<svg width="2318" height="774" viewBox="0 0 2318 774" fill="none" xmlns="http://www.w3.org/2000/svg">
<rect width="2318" height="774" fill="white"/>
<g opacity="0.35">
<path d="M386.999 56.1438L414.571 28.5722L386.999 1.00062H469.714C484.941 1.00062 497.285 13.3449 497.285 28.5722C497.285 43.7995 484.941 56.1438 469.714 56.1438H386.999Z" stroke="#E4E4E8" stroke-width="2" stroke-miterlimit="10" stroke-linecap="round" stroke-linejoin="round"/>
<path d="M717.857 1.00004L745.428 28.5716L773 1.00004V83.7148C773 98.9421 760.656 111.286 745.428 111.286C730.201 111.286 717.857 98.9421 717.857 83.7148V1.00004Z" stroke="#E4E4E8" stroke-width="2" stroke-miterlimit="10" stroke-linecap="round" stroke-linejoin="round"/>
<path d="M552.428 331.858L524.857 304.286L497.285 331.858V249.144C497.285 233.916 509.63 221.572 524.857 221.572C540.084 221.572 552.428 233.916 552.428 249.144V331.858Z" stroke="#E4E4E8" stroke-width="2" stroke-miterlimit="10" stroke-linecap="round" stroke-linejoin="round"/>
<path d="M773 331.858L745.428 359.43L773 386.999H690.285C675.058 386.999 662.714 374.657 662.714 359.43C662.714 344.202 675.058 331.858 690.285 331.858H773Z" stroke="#E4E4E8" stroke-width="2" stroke-miterlimit="10" stroke-linecap="round" stroke-linejoin="round"/>
<path d="M662.714 166.429L690.285 194.001L717.857 166.429V249.144C717.857 264.371 705.513 276.716 690.285 276.716C675.058 276.716 662.714 264.371 662.714 249.144V166.429Z" stroke="#E4E4E8" stroke-width="2" stroke-miterlimit="10" stroke-linecap="round" stroke-linejoin="round"/>
<path d="M717.857 111.286L690.286 83.7148L662.714 111.286V56.1432H717.857V111.286Z" stroke="#E4E4E8" stroke-width="2" stroke-miterlimit="10" stroke-linecap="round" stroke-linejoin="round"/>
<path d="M773 221.572L745.428 249.144L773 276.716H717.857V221.572H773Z" stroke="#E4E4E8" stroke-width="2" stroke-miterlimit="10" stroke-linecap="round" stroke-linejoin="round"/>
<path d="M552.428 276.716L579.999 249.144L552.428 221.572H607.571V276.716H552.428Z" stroke="#E4E4E8" stroke-width="2" stroke-miterlimit="10" stroke-linecap="round" stroke-linejoin="round"/>
<path d="M386.999 166.429L414.571 194.001L442.142 166.429V359.43C442.142 374.657 429.798 386.999 414.571 386.999C399.343 386.999 386.999 374.657 386.999 359.43V166.429Z" stroke="#E4E4E8" stroke-width="2" stroke-miterlimit="10" stroke-linecap="round" stroke-linejoin="round"/>
<path d="M552.428 166.429L524.857 138.858L497.286 166.429V111.286H552.428V166.429Z" stroke="#E4E4E8" stroke-width="2" stroke-miterlimit="10" stroke-linecap="round" stroke-linejoin="round"/>
<path d="M552.428 83.7148C552.428 68.4875 540.084 56.1432 524.857 56.1432H469.796C454.568 56.1432 442.224 68.4875 442.224 83.7148C442.224 98.9421 454.568 111.286 469.796 111.286H524.857C540.084 111.286 552.428 98.9421 552.428 83.7148Z" stroke="#E4E4E8" stroke-width="2" stroke-miterlimit="10" stroke-linecap="round" stroke-linejoin="round"/>
<path d="M580 56.2245C564.773 56.2245 552.428 68.5688 552.428 83.7961V138.857C552.428 154.085 564.773 166.429 580 166.429C595.227 166.429 607.571 154.085 607.571 138.857V83.7961C607.571 68.5688 595.227 56.2245 580 56.2245Z" stroke="#E4E4E8" stroke-width="2" stroke-miterlimit="10" stroke-linecap="round" stroke-linejoin="round"/>
<path d="M662.714 304.286C662.714 319.514 675.058 331.858 690.286 331.858H745.347C760.574 331.858 772.919 319.514 772.919 304.286C772.919 289.059 760.574 276.715 745.347 276.715H690.286C675.058 276.715 662.714 289.059 662.714 304.286Z" stroke="#E4E4E8" stroke-width="2" stroke-miterlimit="10" stroke-linecap="round" stroke-linejoin="round"/>
<path d="M386.999 138.857C386.999 154.085 399.343 166.429 414.571 166.429H469.632C484.86 166.429 497.203 154.085 497.203 138.857C497.203 123.63 484.86 111.286 469.632 111.286H414.571C399.343 111.286 386.999 123.63 386.999 138.857V138.857Z" stroke="#E4E4E8" stroke-width="2" stroke-miterlimit="10" stroke-linecap="round" stroke-linejoin="round"/>
<path d="M469.714 221.572C454.486 221.572 442.142 233.917 442.142 249.144V304.205C442.142 319.433 454.486 331.777 469.714 331.777C484.941 331.777 497.285 319.433 497.285 304.205V249.144C497.285 233.917 484.941 221.572 469.714 221.572Z" stroke="#E4E4E8" stroke-width="2" stroke-miterlimit="10" stroke-linecap="round" stroke-linejoin="round"/>
<path d="M635.142 138.858L615.646 158.354L607.571 166.429H635.14C635.141 166.429 635.141 166.429 635.143 166.429H745.428C760.656 166.429 773 154.085 773 138.858C773 123.631 760.656 111.286 745.428 111.286H607.571L615.646 119.362L635.142 138.858Z" stroke="#E4E4E8" stroke-width="2" stroke-miterlimit="10" stroke-linecap="round" stroke-linejoin="round"/>
<path d="M579.999 166.429H469.714C469.713 166.429 469.712 166.429 469.711 166.429H442.142L450.218 174.505L469.714 194.001L450.218 213.497L442.142 221.572H579.999C595.227 221.572 607.571 209.228 607.571 194.001C607.571 178.773 595.227 166.429 579.999 166.429V166.429Z" stroke="#E4E4E8" stroke-width="2" stroke-miterlimit="10" stroke-linecap="round" stroke-linejoin="round"/>
<path d="M635.143 221.572C619.915 221.572 607.571 233.917 607.571 249.144V386.999L615.647 378.926L635.143 359.43L654.639 378.926L662.714 386.999V249.144C662.714 233.917 650.37 221.572 635.143 221.572Z" stroke="#E4E4E8" stroke-width="2" stroke-miterlimit="10" stroke-linecap="round" stroke-linejoin="round"/>
<path d="M552.428 28.5728C552.428 43.7995 564.773 56.1438 580 56.1438H717.857L709.782 48.0687L690.285 28.5722L709.782 9.0763L717.857 1.00062H580C564.773 1.00062 552.428 13.3449 552.428 28.5728V28.5728Z" stroke="#E4E4E8" stroke-width="2" stroke-miterlimit="10" stroke-linecap="round" stroke-linejoin="round"/>
<path d="M386.999 83.7148C386.999 68.4875 399.344 56.1432 414.571 56.1432C429.798 56.1432 442.142 68.4875 442.142 83.7148C442.142 98.9421 429.798 111.286 414.571 111.286C399.344 111.286 386.999 98.9421 386.999 83.7148Z" stroke="#E4E4E8" stroke-width="2" stroke-miterlimit="10" stroke-linecap="round" stroke-linejoin="round"/>
<path d="M497.286 28.5722C497.286 13.3449 509.63 1.00062 524.857 1.00062C540.084 1.00062 552.428 13.3449 552.428 28.5722C552.428 43.7995 540.084 56.1438 524.857 56.1438C509.63 56.1438 497.286 43.7995 497.286 28.5722Z" stroke="#E4E4E8" stroke-width="2" stroke-miterlimit="10" stroke-linecap="round" stroke-linejoin="round"/>
<path d="M607.571 83.7148C607.571 68.4875 619.915 56.1432 635.143 56.1432C650.37 56.1432 662.714 68.4875 662.714 83.7148C662.714 98.9421 650.37 111.286 635.143 111.286C619.915 111.286 607.571 98.9421 607.571 83.7148Z" stroke="#E4E4E8" stroke-width="2" stroke-miterlimit="10" stroke-linecap="round" stroke-linejoin="round"/>
<path d="M717.857 194.001C717.857 178.773 730.201 166.429 745.428 166.429C760.656 166.429 773 178.773 773 194.001C773 209.228 760.656 221.572 745.428 221.572C730.201 221.572 717.857 209.228 717.857 194.001Z" stroke="#E4E4E8" stroke-width="2" stroke-miterlimit="10" stroke-linecap="round" stroke-linejoin="round"/>
<path d="M607.571 194.001C607.571 178.773 619.915 166.429 635.143 166.429C650.369 166.429 662.714 178.773 662.714 194.001C662.714 209.228 650.369 221.572 635.143 221.572C619.915 221.572 607.571 209.228 607.571 194.001Z" stroke="#E4E4E8" stroke-width="2" stroke-miterlimit="10" stroke-linecap="round" stroke-linejoin="round"/>
<path d="M552.428 304.286C552.428 289.06 564.773 276.715 579.999 276.715C595.227 276.715 607.571 289.06 607.571 304.286C607.571 319.514 595.227 331.858 579.999 331.858C564.773 331.858 552.428 319.514 552.428 304.286Z" stroke="#E4E4E8" stroke-width="2" stroke-miterlimit="10" stroke-linecap="round" stroke-linejoin="round"/>
<path d="M442.142 359.43C442.142 344.202 454.487 331.858 469.714 331.858C484.941 331.858 497.286 344.202 497.286 359.43C497.286 374.657 484.941 386.999 469.714 386.999C454.487 386.999 442.142 374.657 442.142 359.43V359.43Z" stroke="#E4E4E8" stroke-width="2" stroke-miterlimit="10" stroke-linecap="round" stroke-linejoin="round"/>
<path d="M497.286 359.43C497.286 374.657 509.568 386.999 524.72 386.999H607.635L580.2 359.43L607.635 331.858H524.72C509.568 331.858 497.286 344.202 497.286 359.43V359.43Z" stroke="#E4E4E8" stroke-width="2" stroke-miterlimit="10" stroke-linecap="round" stroke-linejoin="round"/>
<path d="M386.999 442.145L414.571 414.573L386.999 387.001H469.714C484.941 387.001 497.285 399.346 497.285 414.573C497.285 429.8 484.941 442.145 469.714 442.145H386.999Z" stroke="#E4E4E8" stroke-width="2" stroke-miterlimit="10" stroke-linecap="round" stroke-linejoin="round"/>
<path d="M717.857 387.001L745.428 414.572L773 387.001V469.716C773 484.943 760.656 497.287 745.428 497.287C730.201 497.287 717.857 484.943 717.857 469.716V387.001Z" stroke="#E4E4E8" stroke-width="2" stroke-miterlimit="10" stroke-linecap="round" stroke-linejoin="round"/>
<path d="M552.428 717.859L524.857 690.287L497.285 717.859V635.145C497.285 619.917 509.63 607.573 524.857 607.573C540.084 607.573 552.428 619.917 552.428 635.145V717.859Z" stroke="#E4E4E8" stroke-width="2" stroke-miterlimit="10" stroke-linecap="round" stroke-linejoin="round"/>
<path d="M773 717.859L745.428 745.43L773 773H690.285C675.058 773 662.714 760.658 662.714 745.43C662.714 730.203 675.058 717.859 690.285 717.859H773Z" stroke="#E4E4E8" stroke-width="2" stroke-miterlimit="10" stroke-linecap="round" stroke-linejoin="round"/>
<path d="M662.714 552.43L690.285 580.002L717.857 552.43V635.145C717.857 650.372 705.513 662.716 690.285 662.716C675.058 662.716 662.714 650.372 662.714 635.145V552.43Z" stroke="#E4E4E8" stroke-width="2" stroke-miterlimit="10" stroke-linecap="round" stroke-linejoin="round"/>
<path d="M717.857 497.287L690.286 469.716L662.714 497.287V442.144H717.857V497.287Z" stroke="#E4E4E8" stroke-width="2" stroke-miterlimit="10" stroke-linecap="round" stroke-linejoin="round"/>
<path d="M773 607.573L745.428 635.145L773 662.716H717.857V607.573H773Z" stroke="#E4E4E8" stroke-width="2" stroke-miterlimit="10" stroke-linecap="round" stroke-linejoin="round"/>
<path d="M552.428 662.716L579.999 635.145L552.428 607.573H607.571V662.716H552.428Z" stroke="#E4E4E8" stroke-width="2" stroke-miterlimit="10" stroke-linecap="round" stroke-linejoin="round"/>
<path d="M386.999 552.43L414.571 580.002L442.142 552.43V745.43C442.142 760.658 429.798 773 414.571 773C399.343 773 386.999 760.658 386.999 745.43V552.43Z" stroke="#E4E4E8" stroke-width="2" stroke-miterlimit="10" stroke-linecap="round" stroke-linejoin="round"/>
<path d="M552.428 552.43L524.857 524.859L497.286 552.43V497.287H552.428V552.43Z" stroke="#E4E4E8" stroke-width="2" stroke-miterlimit="10" stroke-linecap="round" stroke-linejoin="round"/>
<path d="M552.428 469.716C552.428 454.488 540.084 442.144 524.857 442.144H469.796C454.568 442.144 442.224 454.488 442.224 469.716C442.224 484.943 454.568 497.287 469.796 497.287H524.857C540.084 497.287 552.428 484.943 552.428 469.716Z" stroke="#E4E4E8" stroke-width="2" stroke-miterlimit="10" stroke-linecap="round" stroke-linejoin="round"/>
<path d="M580 442.225C564.773 442.225 552.428 454.57 552.428 469.797V524.858C552.428 540.085 564.773 552.43 580 552.43C595.227 552.43 607.571 540.085 607.571 524.858V469.797C607.571 454.57 595.227 442.225 580 442.225Z" stroke="#E4E4E8" stroke-width="2" stroke-miterlimit="10" stroke-linecap="round" stroke-linejoin="round"/>
<path d="M662.714 690.287C662.714 705.514 675.058 717.859 690.286 717.859H745.347C760.574 717.859 772.919 705.514 772.919 690.287C772.919 675.06 760.574 662.716 745.347 662.716H690.286C675.058 662.716 662.714 675.06 662.714 690.287Z" stroke="#E4E4E8" stroke-width="2" stroke-miterlimit="10" stroke-linecap="round" stroke-linejoin="round"/>
<path d="M386.999 524.858C386.999 540.085 399.343 552.43 414.571 552.43H469.632C484.86 552.43 497.203 540.085 497.203 524.858C497.203 509.631 484.86 497.287 469.632 497.287H414.571C399.343 497.287 386.999 509.631 386.999 524.858V524.858Z" stroke="#E4E4E8" stroke-width="2" stroke-miterlimit="10" stroke-linecap="round" stroke-linejoin="round"/>
<path d="M469.714 607.573C454.486 607.573 442.142 619.917 442.142 635.145V690.206C442.142 705.433 454.486 717.777 469.714 717.777C484.941 717.777 497.285 705.433 497.285 690.206V635.145C497.285 619.917 484.941 607.573 469.714 607.573Z" stroke="#E4E4E8" stroke-width="2" stroke-miterlimit="10" stroke-linecap="round" stroke-linejoin="round"/>
<path d="M635.142 524.859L615.646 544.355L607.571 552.43H635.14C635.141 552.43 635.141 552.43 635.143 552.43H745.428C760.656 552.43 773 540.085 773 524.859C773 509.631 760.656 497.287 745.428 497.287H607.571L615.646 505.363L635.142 524.859Z" stroke="#E4E4E8" stroke-width="2" stroke-miterlimit="10" stroke-linecap="round" stroke-linejoin="round"/>
<path d="M579.999 552.43H469.714C469.713 552.43 469.712 552.43 469.711 552.43H442.142L450.218 560.506L469.714 580.001L450.218 599.497L442.142 607.573H579.999C595.227 607.573 607.571 595.229 607.571 580.001C607.571 564.774 595.227 552.43 579.999 552.43V552.43Z" stroke="#E4E4E8" stroke-width="2" stroke-miterlimit="10" stroke-linecap="round" stroke-linejoin="round"/>
<path d="M635.143 607.573C619.915 607.573 607.571 619.917 607.571 635.145V773L615.647 764.927L635.143 745.43L654.639 764.927L662.714 773V635.145C662.714 619.917 650.37 607.573 635.143 607.573Z" stroke="#E4E4E8" stroke-width="2" stroke-miterlimit="10" stroke-linecap="round" stroke-linejoin="round"/>
<path d="M552.428 414.574C552.428 429.8 564.773 442.145 580 442.145H717.857L709.782 434.069L690.285 414.573L709.782 395.077L717.857 387.001H580C564.773 387.001 552.428 399.346 552.428 414.574V414.574Z" stroke="#E4E4E8" stroke-width="2" stroke-miterlimit="10" stroke-linecap="round" stroke-linejoin="round"/>
<path d="M386.999 469.716C386.999 454.488 399.344 442.144 414.571 442.144C429.798 442.144 442.142 454.488 442.142 469.716C442.142 484.943 429.798 497.287 414.571 497.287C399.344 497.287 386.999 484.943 386.999 469.716Z" stroke="#E4E4E8" stroke-width="2" stroke-miterlimit="10" stroke-linecap="round" stroke-linejoin="round"/>
<path d="M497.286 414.573C497.286 399.346 509.63 387.001 524.857 387.001C540.084 387.001 552.428 399.346 552.428 414.573C552.428 429.8 540.084 442.145 524.857 442.145C509.63 442.145 497.286 429.8 497.286 414.573Z" stroke="#E4E4E8" stroke-width="2" stroke-miterlimit="10" stroke-linecap="round" stroke-linejoin="round"/>
<path d="M607.571 469.716C607.571 454.488 619.915 442.144 635.143 442.144C650.37 442.144 662.714 454.488 662.714 469.716C662.714 484.943 650.37 497.287 635.143 497.287C619.915 497.287 607.571 484.943 607.571 469.716Z" stroke="#E4E4E8" stroke-width="2" stroke-miterlimit="10" stroke-linecap="round" stroke-linejoin="round"/>
<path d="M717.857 580.001C717.857 564.774 730.201 552.43 745.428 552.43C760.656 552.43 773 564.774 773 580.001C773 595.229 760.656 607.573 745.428 607.573C730.201 607.573 717.857 595.229 717.857 580.001Z" stroke="#E4E4E8" stroke-width="2" stroke-miterlimit="10" stroke-linecap="round" stroke-linejoin="round"/>
<path d="M607.571 580.001C607.571 564.774 619.915 552.43 635.143 552.43C650.369 552.43 662.714 564.774 662.714 580.001C662.714 595.229 650.369 607.573 635.143 607.573C619.915 607.573 607.571 595.229 607.571 580.001Z" stroke="#E4E4E8" stroke-width="2" stroke-miterlimit="10" stroke-linecap="round" stroke-linejoin="round"/>
<path d="M552.428 690.287C552.428 675.06 564.773 662.716 579.999 662.716C595.227 662.716 607.571 675.06 607.571 690.287C607.571 705.514 595.227 717.859 579.999 717.859C564.773 717.859 552.428 705.514 552.428 690.287Z" stroke="#E4E4E8" stroke-width="2" stroke-miterlimit="10" stroke-linecap="round" stroke-linejoin="round"/>
<path d="M442.142 745.43C442.142 730.203 454.487 717.859 469.714 717.859C484.941 717.859 497.286 730.203 497.286 745.43C497.286 760.658 484.941 773 469.714 773C454.487 773 442.142 760.658 442.142 745.43V745.43Z" stroke="#E4E4E8" stroke-width="2" stroke-miterlimit="10" stroke-linecap="round" stroke-linejoin="round"/>
<path d="M497.286 745.43C497.286 760.658 509.568 773 524.72 773H607.635L580.2 745.43L607.635 717.859H524.72C509.568 717.859 497.286 730.203 497.286 745.43V745.43Z" stroke="#E4E4E8" stroke-width="2" stroke-miterlimit="10" stroke-linecap="round" stroke-linejoin="round"/>
<path d="M1 56.1438L28.5716 28.5722L1 1.00062H83.7144C98.9417 1.00062 111.286 13.3449 111.286 28.5722C111.286 43.7995 98.9417 56.1438 83.7144 56.1438H1Z" stroke="#E4E4E8" stroke-width="2" stroke-miterlimit="10" stroke-linecap="round" stroke-linejoin="round"/>
<path d="M331.857 1.00004L359.429 28.5716L387.001 1.00004V83.7148C387.001 98.9421 374.656 111.286 359.429 111.286C344.202 111.286 331.857 98.9421 331.857 83.7148V1.00004Z" stroke="#E4E4E8" stroke-width="2" stroke-miterlimit="10" stroke-linecap="round" stroke-linejoin="round"/>
<path d="M166.429 331.858L138.858 304.286L111.286 331.858V249.144C111.286 233.916 123.63 221.572 138.858 221.572C154.084 221.572 166.429 233.916 166.429 249.144V331.858Z" stroke="#E4E4E8" stroke-width="2" stroke-miterlimit="10" stroke-linecap="round" stroke-linejoin="round"/>
<path d="M387.001 331.858L359.429 359.43L387.001 386.999H304.286C289.059 386.999 276.715 374.657 276.715 359.43C276.715 344.202 289.059 331.858 304.286 331.858H387.001Z" stroke="#E4E4E8" stroke-width="2" stroke-miterlimit="10" stroke-linecap="round" stroke-linejoin="round"/>
<path d="M276.715 166.429L304.286 194.001L331.858 166.429V249.144C331.858 264.371 319.514 276.716 304.286 276.716C289.059 276.716 276.715 264.371 276.715 249.144V166.429Z" stroke="#E4E4E8" stroke-width="2" stroke-miterlimit="10" stroke-linecap="round" stroke-linejoin="round"/>
<path d="M331.858 111.286L304.287 83.7148L276.715 111.286V56.1432H331.858V111.286Z" stroke="#E4E4E8" stroke-width="2" stroke-miterlimit="10" stroke-linecap="round" stroke-linejoin="round"/>
<path d="M387.001 221.572L359.429 249.144L387.001 276.716H331.857V221.572H387.001Z" stroke="#E4E4E8" stroke-width="2" stroke-miterlimit="10" stroke-linecap="round" stroke-linejoin="round"/>
<path d="M166.429 276.716L194 249.144L166.429 221.572H221.572V276.716H166.429Z" stroke="#E4E4E8" stroke-width="2" stroke-miterlimit="10" stroke-linecap="round" stroke-linejoin="round"/>
<path d="M1.00006 166.429L28.5716 194.001L56.1429 166.429V359.43C56.1429 374.657 43.7989 386.999 28.5716 386.999C13.3442 386.999 1.00006 374.657 1.00006 359.43V166.429Z" stroke="#E4E4E8" stroke-width="2" stroke-miterlimit="10" stroke-linecap="round" stroke-linejoin="round"/>
<path d="M166.429 166.429L138.858 138.858L111.287 166.429V111.286H166.429V166.429Z" stroke="#E4E4E8" stroke-width="2" stroke-miterlimit="10" stroke-linecap="round" stroke-linejoin="round"/>
<path d="M166.429 83.7148C166.429 68.4875 154.085 56.1432 138.858 56.1432H83.7964C68.5691 56.1432 56.2248 68.4875 56.2248 83.7148C56.2248 98.9421 68.5691 111.286 83.7964 111.286H138.858C154.085 111.286 166.429 98.9421 166.429 83.7148Z" stroke="#E4E4E8" stroke-width="2" stroke-miterlimit="10" stroke-linecap="round" stroke-linejoin="round"/>
<path d="M194.001 56.2245C178.773 56.2245 166.429 68.5688 166.429 83.7961V138.857C166.429 154.085 178.773 166.429 194.001 166.429C209.228 166.429 221.572 154.085 221.572 138.857V83.7961C221.572 68.5688 209.228 56.2245 194.001 56.2245Z" stroke="#E4E4E8" stroke-width="2" stroke-miterlimit="10" stroke-linecap="round" stroke-linejoin="round"/>
<path d="M276.715 304.286C276.715 319.514 289.059 331.858 304.287 331.858H359.348C374.575 331.858 386.919 319.514 386.919 304.286C386.919 289.059 374.575 276.715 359.348 276.715H304.287C289.059 276.715 276.715 289.059 276.715 304.286Z" stroke="#E4E4E8" stroke-width="2" stroke-miterlimit="10" stroke-linecap="round" stroke-linejoin="round"/>
<path d="M1 138.857C1 154.085 13.3441 166.429 28.5716 166.429H83.6331C98.8604 166.429 111.204 154.085 111.204 138.857C111.204 123.63 98.8604 111.286 83.6331 111.286H28.5716C13.3441 111.286 1 123.63 1 138.857V138.857Z" stroke="#E4E4E8" stroke-width="2" stroke-miterlimit="10" stroke-linecap="round" stroke-linejoin="round"/>
<path d="M83.7144 221.572C68.4871 221.572 56.1429 233.917 56.1429 249.144V304.205C56.1429 319.433 68.4871 331.777 83.7144 331.777C98.9418 331.777 111.286 319.433 111.286 304.205V249.144C111.286 233.917 98.9418 221.572 83.7144 221.572Z" stroke="#E4E4E8" stroke-width="2" stroke-miterlimit="10" stroke-linecap="round" stroke-linejoin="round"/>
<path d="M249.143 138.858L229.647 158.354L221.572 166.429H249.141C249.142 166.429 249.142 166.429 249.143 166.429H359.429C374.656 166.429 387.001 154.085 387.001 138.858C387.001 123.631 374.656 111.286 359.429 111.286H221.572L229.647 119.362L249.143 138.858Z" stroke="#E4E4E8" stroke-width="2" stroke-miterlimit="10" stroke-linecap="round" stroke-linejoin="round"/>
<path d="M194 166.429H83.7144C83.7138 166.429 83.7127 166.429 83.7121 166.429H56.1429L64.2185 174.505L83.7144 194.001L64.2185 213.497L56.1429 221.572H194C209.228 221.572 221.572 209.228 221.572 194.001C221.572 178.773 209.228 166.429 194 166.429V166.429Z" stroke="#E4E4E8" stroke-width="2" stroke-miterlimit="10" stroke-linecap="round" stroke-linejoin="round"/>
<path d="M249.143 221.572C233.916 221.572 221.572 233.917 221.572 249.144V386.999L229.647 378.926L249.143 359.43L268.64 378.926L276.715 386.999V249.144C276.715 233.917 264.371 221.572 249.143 221.572Z" stroke="#E4E4E8" stroke-width="2" stroke-miterlimit="10" stroke-linecap="round" stroke-linejoin="round"/>
<path d="M166.429 28.5728C166.429 43.7995 178.773 56.1438 194.001 56.1438H331.857L323.782 48.0687L304.286 28.5722L323.782 9.0763L331.857 1.00062H194.001C178.773 1.00062 166.429 13.3449 166.429 28.5728V28.5728Z" stroke="#E4E4E8" stroke-width="2" stroke-miterlimit="10" stroke-linecap="round" stroke-linejoin="round"/>
<path d="M1.00015 83.7148C1.00015 68.4875 13.3442 56.1432 28.5715 56.1432C43.799 56.1432 56.1427 68.4875 56.1427 83.7148C56.1427 98.9421 43.799 111.286 28.5715 111.286C13.3442 111.286 1.00015 98.9421 1.00015 83.7148Z" stroke="#E4E4E8" stroke-width="2" stroke-miterlimit="10" stroke-linecap="round" stroke-linejoin="round"/>
<path d="M111.287 28.5722C111.287 13.3449 123.63 1.00062 138.858 1.00062C154.085 1.00062 166.429 13.3449 166.429 28.5722C166.429 43.7995 154.085 56.1438 138.858 56.1438C123.63 56.1438 111.287 43.7995 111.287 28.5722Z" stroke="#E4E4E8" stroke-width="2" stroke-miterlimit="10" stroke-linecap="round" stroke-linejoin="round"/>
<path d="M221.572 83.7148C221.572 68.4875 233.916 56.1432 249.143 56.1432C264.371 56.1432 276.715 68.4875 276.715 83.7148C276.715 98.9421 264.371 111.286 249.143 111.286C233.916 111.286 221.572 98.9421 221.572 83.7148Z" stroke="#E4E4E8" stroke-width="2" stroke-miterlimit="10" stroke-linecap="round" stroke-linejoin="round"/>
<path d="M331.857 194.001C331.857 178.773 344.202 166.429 359.429 166.429C374.656 166.429 387.001 178.773 387.001 194.001C387.001 209.228 374.656 221.572 359.429 221.572C344.202 221.572 331.857 209.228 331.857 194.001Z" stroke="#E4E4E8" stroke-width="2" stroke-miterlimit="10" stroke-linecap="round" stroke-linejoin="round"/>
<path d="M221.572 194.001C221.572 178.773 233.916 166.429 249.143 166.429C264.37 166.429 276.715 178.773 276.715 194.001C276.715 209.228 264.37 221.572 249.143 221.572C233.916 221.572 221.572 209.228 221.572 194.001Z" stroke="#E4E4E8" stroke-width="2" stroke-miterlimit="10" stroke-linecap="round" stroke-linejoin="round"/>
<path d="M166.429 304.286C166.429 289.06 178.773 276.715 194 276.715C209.228 276.715 221.572 289.06 221.572 304.286C221.572 319.514 209.228 331.858 194 331.858C178.773 331.858 166.429 319.514 166.429 304.286Z" stroke="#E4E4E8" stroke-width="2" stroke-miterlimit="10" stroke-linecap="round" stroke-linejoin="round"/>
<path d="M56.1429 359.43C56.1429 344.202 68.4877 331.858 83.7144 331.858C98.9418 331.858 111.287 344.202 111.287 359.43C111.287 374.657 98.9418 386.999 83.7144 386.999C68.4877 386.999 56.1429 374.657 56.1429 359.43V359.43Z" stroke="#E4E4E8" stroke-width="2" stroke-miterlimit="10" stroke-linecap="round" stroke-linejoin="round"/>
<path d="M111.287 359.43C111.287 374.657 123.569 386.999 138.721 386.999H221.636L194.201 359.43L221.636 331.858H138.721C123.569 331.858 111.287 344.202 111.287 359.43V359.43Z" stroke="#E4E4E8" stroke-width="2" stroke-miterlimit="10" stroke-linecap="round" stroke-linejoin="round"/>
<path d="M1 442.145L28.5716 414.573L1 387.001H83.7144C98.9417 387.001 111.286 399.346 111.286 414.573C111.286 429.8 98.9417 442.145 83.7144 442.145H1Z" stroke="#E4E4E8" stroke-width="2" stroke-miterlimit="10" stroke-linecap="round" stroke-linejoin="round"/>
<path d="M331.857 387.001L359.429 414.572L387.001 387.001V469.716C387.001 484.943 374.656 497.287 359.429 497.287C344.202 497.287 331.857 484.943 331.857 469.716V387.001Z" stroke="#E4E4E8" stroke-width="2" stroke-miterlimit="10" stroke-linecap="round" stroke-linejoin="round"/>
<path d="M166.429 717.859L138.858 690.287L111.286 717.859V635.145C111.286 619.917 123.63 607.573 138.858 607.573C154.084 607.573 166.429 619.917 166.429 635.145V717.859Z" stroke="#E4E4E8" stroke-width="2" stroke-miterlimit="10" stroke-linecap="round" stroke-linejoin="round"/>
<path d="M387.001 717.859L359.429 745.43L387.001 773H304.286C289.059 773 276.715 760.658 276.715 745.43C276.715 730.203 289.059 717.859 304.286 717.859H387.001Z" stroke="#E4E4E8" stroke-width="2" stroke-miterlimit="10" stroke-linecap="round" stroke-linejoin="round"/>
<path d="M276.715 552.43L304.286 580.002L331.858 552.43V635.145C331.858 650.372 319.514 662.716 304.286 662.716C289.059 662.716 276.715 650.372 276.715 635.145V552.43Z" stroke="#E4E4E8" stroke-width="2" stroke-miterlimit="10" stroke-linecap="round" stroke-linejoin="round"/>
<path d="M331.858 497.287L304.287 469.716L276.715 497.287V442.144H331.858V497.287Z" stroke="#E4E4E8" stroke-width="2" stroke-miterlimit="10" stroke-linecap="round" stroke-linejoin="round"/>
<path d="M387.001 607.573L359.429 635.145L387.001 662.716H331.857V607.573H387.001Z" stroke="#E4E4E8" stroke-width="2" stroke-miterlimit="10" stroke-linecap="round" stroke-linejoin="round"/>
<path d="M166.429 662.716L194 635.145L166.429 607.573H221.572V662.716H166.429Z" stroke="#E4E4E8" stroke-width="2" stroke-miterlimit="10" stroke-linecap="round" stroke-linejoin="round"/>
<path d="M1.00006 552.43L28.5716 580.002L56.1429 552.43V745.43C56.1429 760.658 43.7989 773 28.5716 773C13.3442 773 1.00006 760.658 1.00006 745.43V552.43Z" stroke="#E4E4E8" stroke-width="2" stroke-miterlimit="10" stroke-linecap="round" stroke-linejoin="round"/>
<path d="M166.429 552.43L138.858 524.859L111.287 552.43V497.287H166.429V552.43Z" stroke="#E4E4E8" stroke-width="2" stroke-miterlimit="10" stroke-linecap="round" stroke-linejoin="round"/>
<path d="M166.429 469.716C166.429 454.488 154.085 442.144 138.858 442.144H83.7964C68.5691 442.144 56.2248 454.488 56.2248 469.716C56.2248 484.943 68.5691 497.287 83.7964 497.287H138.858C154.085 497.287 166.429 484.943 166.429 469.716Z" stroke="#E4E4E8" stroke-width="2" stroke-miterlimit="10" stroke-linecap="round" stroke-linejoin="round"/>
<path d="M194.001 442.225C178.773 442.225 166.429 454.57 166.429 469.797V524.858C166.429 540.085 178.773 552.43 194.001 552.43C209.228 552.43 221.572 540.085 221.572 524.858V469.797C221.572 454.57 209.228 442.225 194.001 442.225Z" stroke="#E4E4E8" stroke-width="2" stroke-miterlimit="10" stroke-linecap="round" stroke-linejoin="round"/>
<path d="M276.715 690.287C276.715 705.514 289.059 717.859 304.287 717.859H359.348C374.575 717.859 386.919 705.514 386.919 690.287C386.919 675.06 374.575 662.716 359.348 662.716H304.287C289.059 662.716 276.715 675.06 276.715 690.287Z" stroke="#E4E4E8" stroke-width="2" stroke-miterlimit="10" stroke-linecap="round" stroke-linejoin="round"/>
<path d="M1 524.858C1 540.085 13.3441 552.43 28.5716 552.43H83.6331C98.8604 552.43 111.204 540.085 111.204 524.858C111.204 509.631 98.8604 497.287 83.6331 497.287H28.5716C13.3441 497.287 1 509.631 1 524.858V524.858Z" stroke="#E4E4E8" stroke-width="2" stroke-miterlimit="10" stroke-linecap="round" stroke-linejoin="round"/>
<path d="M83.7144 607.573C68.4871 607.573 56.1429 619.917 56.1429 635.145V690.206C56.1429 705.433 68.4871 717.777 83.7144 717.777C98.9418 717.777 111.286 705.433 111.286 690.206V635.145C111.286 619.917 98.9418 607.573 83.7144 607.573Z" stroke="#E4E4E8" stroke-width="2" stroke-miterlimit="10" stroke-linecap="round" stroke-linejoin="round"/>
<path d="M249.143 524.859L229.647 544.355L221.572 552.43H249.141C249.142 552.43 249.142 552.43 249.143 552.43H359.429C374.656 552.43 387.001 540.085 387.001 524.859C387.001 509.631 374.656 497.287 359.429 497.287H221.572L229.647 505.363L249.143 524.859Z" stroke="#E4E4E8" stroke-width="2" stroke-miterlimit="10" stroke-linecap="round" stroke-linejoin="round"/>
<path d="M194 552.43H83.7144C83.7138 552.43 83.7127 552.43 83.7121 552.43H56.1429L64.2185 560.506L83.7144 580.001L64.2185 599.497L56.1429 607.573H194C209.228 607.573 221.572 595.229 221.572 580.001C221.572 564.774 209.228 552.43 194 552.43V552.43Z" stroke="#E4E4E8" stroke-width="2" stroke-miterlimit="10" stroke-linecap="round" stroke-linejoin="round"/>
<path d="M249.143 607.573C233.916 607.573 221.572 619.917 221.572 635.145V773L229.647 764.927L249.143 745.43L268.64 764.927L276.715 773V635.145C276.715 619.917 264.371 607.573 249.143 607.573Z" stroke="#E4E4E8" stroke-width="2" stroke-miterlimit="10" stroke-linecap="round" stroke-linejoin="round"/>
<path d="M166.429 414.574C166.429 429.8 178.773 442.145 194.001 442.145H331.857L323.782 434.069L304.286 414.573L323.782 395.077L331.857 387.001H194.001C178.773 387.001 166.429 399.346 166.429 414.574V414.574Z" stroke="#E4E4E8" stroke-width="2" stroke-miterlimit="10" stroke-linecap="round" stroke-linejoin="round"/>
<path d="M1.00015 469.716C1.00015 454.488 13.3442 442.144 28.5715 442.144C43.799 442.144 56.1427 454.488 56.1427 469.716C56.1427 484.943 43.799 497.287 28.5715 497.287C13.3442 497.287 1.00015 484.943 1.00015 469.716Z" stroke="#E4E4E8" stroke-width="2" stroke-miterlimit="10" stroke-linecap="round" stroke-linejoin="round"/>
<path d="M111.287 414.573C111.287 399.346 123.63 387.001 138.858 387.001C154.085 387.001 166.429 399.346 166.429 414.573C166.429 429.8 154.085 442.145 138.858 442.145C123.63 442.145 111.287 429.8 111.287 414.573Z" stroke="#E4E4E8" stroke-width="2" stroke-miterlimit="10" stroke-linecap="round" stroke-linejoin="round"/>
<path d="M221.572 469.716C221.572 454.488 233.916 442.144 249.143 442.144C264.371 442.144 276.715 454.488 276.715 469.716C276.715 484.943 264.371 497.287 249.143 497.287C233.916 497.287 221.572 484.943 221.572 469.716Z" stroke="#E4E4E8" stroke-width="2" stroke-miterlimit="10" stroke-linecap="round" stroke-linejoin="round"/>
<path d="M331.857 580.001C331.857 564.774 344.202 552.43 359.429 552.43C374.656 552.43 387.001 564.774 387.001 580.001C387.001 595.229 374.656 607.573 359.429 607.573C344.202 607.573 331.857 595.229 331.857 580.001Z" stroke="#E4E4E8" stroke-width="2" stroke-miterlimit="10" stroke-linecap="round" stroke-linejoin="round"/>
<path d="M221.572 580.001C221.572 564.774 233.916 552.43 249.143 552.43C264.37 552.43 276.715 564.774 276.715 580.001C276.715 595.229 264.37 607.573 249.143 607.573C233.916 607.573 221.572 595.229 221.572 580.001Z" stroke="#E4E4E8" stroke-width="2" stroke-miterlimit="10" stroke-linecap="round" stroke-linejoin="round"/>
<path d="M166.429 690.287C166.429 675.06 178.773 662.716 194 662.716C209.228 662.716 221.572 675.06 221.572 690.287C221.572 705.514 209.228 717.859 194 717.859C178.773 717.859 166.429 705.514 166.429 690.287Z" stroke="#E4E4E8" stroke-width="2" stroke-miterlimit="10" stroke-linecap="round" stroke-linejoin="round"/>
<path d="M56.1429 745.43C56.1429 730.203 68.4877 717.859 83.7144 717.859C98.9418 717.859 111.287 730.203 111.287 745.43C111.287 760.658 98.9418 773 83.7144 773C68.4877 773 56.1429 760.658 56.1429 745.43V745.43Z" stroke="#E4E4E8" stroke-width="2" stroke-miterlimit="10" stroke-linecap="round" stroke-linejoin="round"/>
<path d="M111.287 745.43C111.287 760.658 123.569 773 138.721 773H221.636L194.201 745.43L221.636 717.859H138.721C123.569 717.859 111.287 730.203 111.287 745.43V745.43Z" stroke="#E4E4E8" stroke-width="2" stroke-miterlimit="10" stroke-linecap="round" stroke-linejoin="round"/>
</g>
<g opacity="0.35">
<path d="M1159 56.1438L1186.57 28.5722L1159 1.00062H1241.71C1256.94 1.00062 1269.29 13.3449 1269.29 28.5722C1269.29 43.7995 1256.94 56.1438 1241.71 56.1438H1159Z" stroke="#E4E4E8" stroke-width="2" stroke-miterlimit="10" stroke-linecap="round" stroke-linejoin="round"/>
<path d="M1489.86 1.00004L1517.43 28.5716L1545 1.00004V83.7148C1545 98.9421 1532.66 111.286 1517.43 111.286C1502.2 111.286 1489.86 98.9421 1489.86 83.7148V1.00004Z" stroke="#E4E4E8" stroke-width="2" stroke-miterlimit="10" stroke-linecap="round" stroke-linejoin="round"/>
<path d="M1324.43 331.858L1296.86 304.286L1269.29 331.858V249.144C1269.29 233.916 1281.63 221.572 1296.86 221.572C1312.08 221.572 1324.43 233.916 1324.43 249.144V331.858Z" stroke="#E4E4E8" stroke-width="2" stroke-miterlimit="10" stroke-linecap="round" stroke-linejoin="round"/>
<path d="M1545 331.858L1517.43 359.43L1545 386.999H1462.29C1447.06 386.999 1434.71 374.657 1434.71 359.43C1434.71 344.202 1447.06 331.858 1462.29 331.858H1545Z" stroke="#E4E4E8" stroke-width="2" stroke-miterlimit="10" stroke-linecap="round" stroke-linejoin="round"/>
<path d="M1434.71 166.429L1462.29 194.001L1489.86 166.429V249.144C1489.86 264.371 1477.51 276.716 1462.29 276.716C1447.06 276.716 1434.71 264.371 1434.71 249.144V166.429Z" stroke="#E4E4E8" stroke-width="2" stroke-miterlimit="10" stroke-linecap="round" stroke-linejoin="round"/>
<path d="M1489.86 111.286L1462.29 83.7148L1434.71 111.286V56.1432H1489.86V111.286Z" stroke="#E4E4E8" stroke-width="2" stroke-miterlimit="10" stroke-linecap="round" stroke-linejoin="round"/>
<path d="M1545 221.572L1517.43 249.144L1545 276.716H1489.86V221.572H1545Z" stroke="#E4E4E8" stroke-width="2" stroke-miterlimit="10" stroke-linecap="round" stroke-linejoin="round"/>
<path d="M1324.43 276.716L1352 249.144L1324.43 221.572H1379.57V276.716H1324.43Z" stroke="#E4E4E8" stroke-width="2" stroke-miterlimit="10" stroke-linecap="round" stroke-linejoin="round"/>
<path d="M1159 166.429L1186.57 194.001L1214.14 166.429V359.43C1214.14 374.657 1201.8 386.999 1186.57 386.999C1171.34 386.999 1159 374.657 1159 359.43V166.429Z" stroke="#E4E4E8" stroke-width="2" stroke-miterlimit="10" stroke-linecap="round" stroke-linejoin="round"/>
<path d="M1324.43 166.429L1296.86 138.858L1269.29 166.429V111.286H1324.43V166.429Z" stroke="#E4E4E8" stroke-width="2" stroke-miterlimit="10" stroke-linecap="round" stroke-linejoin="round"/>
<path d="M1324.43 83.7148C1324.43 68.4875 1312.08 56.1432 1296.86 56.1432H1241.8C1226.57 56.1432 1214.22 68.4875 1214.22 83.7148C1214.22 98.9421 1226.57 111.286 1241.8 111.286H1296.86C1312.08 111.286 1324.43 98.9421 1324.43 83.7148Z" stroke="#E4E4E8" stroke-width="2" stroke-miterlimit="10" stroke-linecap="round" stroke-linejoin="round"/>
<path d="M1352 56.2245C1336.77 56.2245 1324.43 68.5688 1324.43 83.7961V138.857C1324.43 154.085 1336.77 166.429 1352 166.429C1367.23 166.429 1379.57 154.085 1379.57 138.857V83.7961C1379.57 68.5688 1367.23 56.2245 1352 56.2245Z" stroke="#E4E4E8" stroke-width="2" stroke-miterlimit="10" stroke-linecap="round" stroke-linejoin="round"/>
<path d="M1434.71 304.286C1434.71 319.514 1447.06 331.858 1462.29 331.858H1517.35C1532.57 331.858 1544.92 319.514 1544.92 304.286C1544.92 289.059 1532.57 276.715 1517.35 276.715H1462.29C1447.06 276.715 1434.71 289.059 1434.71 304.286Z" stroke="#E4E4E8" stroke-width="2" stroke-miterlimit="10" stroke-linecap="round" stroke-linejoin="round"/>
<path d="M1159 138.857C1159 154.085 1171.34 166.429 1186.57 166.429H1241.63C1256.86 166.429 1269.2 154.085 1269.2 138.857C1269.2 123.63 1256.86 111.286 1241.63 111.286H1186.57C1171.34 111.286 1159 123.63 1159 138.857V138.857Z" stroke="#E4E4E8" stroke-width="2" stroke-miterlimit="10" stroke-linecap="round" stroke-linejoin="round"/>
<path d="M1241.71 221.572C1226.49 221.572 1214.14 233.917 1214.14 249.144V304.205C1214.14 319.433 1226.49 331.777 1241.71 331.777C1256.94 331.777 1269.29 319.433 1269.29 304.205V249.144C1269.29 233.917 1256.94 221.572 1241.71 221.572Z" stroke="#E4E4E8" stroke-width="2" stroke-miterlimit="10" stroke-linecap="round" stroke-linejoin="round"/>
<path d="M1407.14 138.858L1387.65 158.354L1379.57 166.429H1407.14C1407.14 166.429 1407.14 166.429 1407.14 166.429H1517.43C1532.66 166.429 1545 154.085 1545 138.858C1545 123.631 1532.66 111.286 1517.43 111.286H1379.57L1387.65 119.362L1407.14 138.858Z" stroke="#E4E4E8" stroke-width="2" stroke-miterlimit="10" stroke-linecap="round" stroke-linejoin="round"/>
<path d="M1352 166.429H1241.71C1241.71 166.429 1241.71 166.429 1241.71 166.429H1214.14L1222.22 174.505L1241.71 194.001L1222.22 213.497L1214.14 221.572H1352C1367.23 221.572 1379.57 209.228 1379.57 194.001C1379.57 178.773 1367.23 166.429 1352 166.429V166.429Z" stroke="#E4E4E8" stroke-width="2" stroke-miterlimit="10" stroke-linecap="round" stroke-linejoin="round"/>
<path d="M1407.14 221.572C1391.92 221.572 1379.57 233.917 1379.57 249.144V386.999L1387.65 378.926L1407.14 359.43L1426.64 378.926L1434.71 386.999V249.144C1434.71 233.917 1422.37 221.572 1407.14 221.572Z" stroke="#E4E4E8" stroke-width="2" stroke-miterlimit="10" stroke-linecap="round" stroke-linejoin="round"/>
<path d="M1324.43 28.5728C1324.43 43.7995 1336.77 56.1438 1352 56.1438H1489.86L1481.78 48.0687L1462.29 28.5722L1481.78 9.0763L1489.86 1.00062H1352C1336.77 1.00062 1324.43 13.3449 1324.43 28.5728V28.5728Z" stroke="#E4E4E8" stroke-width="2" stroke-miterlimit="10" stroke-linecap="round" stroke-linejoin="round"/>
<path d="M1159 83.7148C1159 68.4875 1171.34 56.1432 1186.57 56.1432C1201.8 56.1432 1214.14 68.4875 1214.14 83.7148C1214.14 98.9421 1201.8 111.286 1186.57 111.286C1171.34 111.286 1159 98.9421 1159 83.7148Z" stroke="#E4E4E8" stroke-width="2" stroke-miterlimit="10" stroke-linecap="round" stroke-linejoin="round"/>
<path d="M1269.29 28.5722C1269.29 13.3449 1281.63 1.00062 1296.86 1.00062C1312.08 1.00062 1324.43 13.3449 1324.43 28.5722C1324.43 43.7995 1312.08 56.1438 1296.86 56.1438C1281.63 56.1438 1269.29 43.7995 1269.29 28.5722Z" stroke="#E4E4E8" stroke-width="2" stroke-miterlimit="10" stroke-linecap="round" stroke-linejoin="round"/>
<path d="M1379.57 83.7148C1379.57 68.4875 1391.92 56.1432 1407.14 56.1432C1422.37 56.1432 1434.71 68.4875 1434.71 83.7148C1434.71 98.9421 1422.37 111.286 1407.14 111.286C1391.92 111.286 1379.57 98.9421 1379.57 83.7148Z" stroke="#E4E4E8" stroke-width="2" stroke-miterlimit="10" stroke-linecap="round" stroke-linejoin="round"/>
<path d="M1489.86 194.001C1489.86 178.773 1502.2 166.429 1517.43 166.429C1532.66 166.429 1545 178.773 1545 194.001C1545 209.228 1532.66 221.572 1517.43 221.572C1502.2 221.572 1489.86 209.228 1489.86 194.001Z" stroke="#E4E4E8" stroke-width="2" stroke-miterlimit="10" stroke-linecap="round" stroke-linejoin="round"/>
<path d="M1379.57 194.001C1379.57 178.773 1391.92 166.429 1407.14 166.429C1422.37 166.429 1434.71 178.773 1434.71 194.001C1434.71 209.228 1422.37 221.572 1407.14 221.572C1391.92 221.572 1379.57 209.228 1379.57 194.001Z" stroke="#E4E4E8" stroke-width="2" stroke-miterlimit="10" stroke-linecap="round" stroke-linejoin="round"/>
<path d="M1324.43 304.286C1324.43 289.06 1336.77 276.715 1352 276.715C1367.23 276.715 1379.57 289.06 1379.57 304.286C1379.57 319.514 1367.23 331.858 1352 331.858C1336.77 331.858 1324.43 319.514 1324.43 304.286Z" stroke="#E4E4E8" stroke-width="2" stroke-miterlimit="10" stroke-linecap="round" stroke-linejoin="round"/>
<path d="M1214.14 359.43C1214.14 344.202 1226.49 331.858 1241.71 331.858C1256.94 331.858 1269.29 344.202 1269.29 359.43C1269.29 374.657 1256.94 386.999 1241.71 386.999C1226.49 386.999 1214.14 374.657 1214.14 359.43V359.43Z" stroke="#E4E4E8" stroke-width="2" stroke-miterlimit="10" stroke-linecap="round" stroke-linejoin="round"/>
<path d="M1269.29 359.43C1269.29 374.657 1281.57 386.999 1296.72 386.999H1379.64L1352.2 359.43L1379.64 331.858H1296.72C1281.57 331.858 1269.29 344.202 1269.29 359.43V359.43Z" stroke="#E4E4E8" stroke-width="2" stroke-miterlimit="10" stroke-linecap="round" stroke-linejoin="round"/>
<path d="M1159 442.145L1186.57 414.573L1159 387.001H1241.71C1256.94 387.001 1269.29 399.346 1269.29 414.573C1269.29 429.8 1256.94 442.145 1241.71 442.145H1159Z" stroke="#E4E4E8" stroke-width="2" stroke-miterlimit="10" stroke-linecap="round" stroke-linejoin="round"/>
<path d="M1489.86 387.001L1517.43 414.572L1545 387.001V469.716C1545 484.943 1532.66 497.287 1517.43 497.287C1502.2 497.287 1489.86 484.943 1489.86 469.716V387.001Z" stroke="#E4E4E8" stroke-width="2" stroke-miterlimit="10" stroke-linecap="round" stroke-linejoin="round"/>
<path d="M1324.43 717.859L1296.86 690.287L1269.29 717.859V635.145C1269.29 619.917 1281.63 607.573 1296.86 607.573C1312.08 607.573 1324.43 619.917 1324.43 635.145V717.859Z" stroke="#E4E4E8" stroke-width="2" stroke-miterlimit="10" stroke-linecap="round" stroke-linejoin="round"/>
<path d="M1545 717.859L1517.43 745.43L1545 773H1462.29C1447.06 773 1434.71 760.658 1434.71 745.43C1434.71 730.203 1447.06 717.859 1462.29 717.859H1545Z" stroke="#E4E4E8" stroke-width="2" stroke-miterlimit="10" stroke-linecap="round" stroke-linejoin="round"/>
<path d="M1434.71 552.43L1462.29 580.002L1489.86 552.43V635.145C1489.86 650.372 1477.51 662.716 1462.29 662.716C1447.06 662.716 1434.71 650.372 1434.71 635.145V552.43Z" stroke="#E4E4E8" stroke-width="2" stroke-miterlimit="10" stroke-linecap="round" stroke-linejoin="round"/>
<path d="M1489.86 497.287L1462.29 469.716L1434.71 497.287V442.144H1489.86V497.287Z" stroke="#E4E4E8" stroke-width="2" stroke-miterlimit="10" stroke-linecap="round" stroke-linejoin="round"/>
<path d="M1545 607.573L1517.43 635.145L1545 662.716H1489.86V607.573H1545Z" stroke="#E4E4E8" stroke-width="2" stroke-miterlimit="10" stroke-linecap="round" stroke-linejoin="round"/>
<path d="M1324.43 662.716L1352 635.145L1324.43 607.573H1379.57V662.716H1324.43Z" stroke="#E4E4E8" stroke-width="2" stroke-miterlimit="10" stroke-linecap="round" stroke-linejoin="round"/>
<path d="M1159 552.43L1186.57 580.002L1214.14 552.43V745.43C1214.14 760.658 1201.8 773 1186.57 773C1171.34 773 1159 760.658 1159 745.43V552.43Z" stroke="#E4E4E8" stroke-width="2" stroke-miterlimit="10" stroke-linecap="round" stroke-linejoin="round"/>
<path d="M1324.43 552.43L1296.86 524.859L1269.29 552.43V497.287H1324.43V552.43Z" stroke="#E4E4E8" stroke-width="2" stroke-miterlimit="10" stroke-linecap="round" stroke-linejoin="round"/>
<path d="M1324.43 469.716C1324.43 454.488 1312.08 442.144 1296.86 442.144H1241.8C1226.57 442.144 1214.22 454.488 1214.22 469.716C1214.22 484.943 1226.57 497.287 1241.8 497.287H1296.86C1312.08 497.287 1324.43 484.943 1324.43 469.716Z" stroke="#E4E4E8" stroke-width="2" stroke-miterlimit="10" stroke-linecap="round" stroke-linejoin="round"/>
<path d="M1352 442.225C1336.77 442.225 1324.43 454.57 1324.43 469.797V524.858C1324.43 540.085 1336.77 552.43 1352 552.43C1367.23 552.43 1379.57 540.085 1379.57 524.858V469.797C1379.57 454.57 1367.23 442.225 1352 442.225Z" stroke="#E4E4E8" stroke-width="2" stroke-miterlimit="10" stroke-linecap="round" stroke-linejoin="round"/>
<path d="M1434.71 690.287C1434.71 705.514 1447.06 717.859 1462.29 717.859H1517.35C1532.57 717.859 1544.92 705.514 1544.92 690.287C1544.92 675.06 1532.57 662.716 1517.35 662.716H1462.29C1447.06 662.716 1434.71 675.06 1434.71 690.287Z" stroke="#E4E4E8" stroke-width="2" stroke-miterlimit="10" stroke-linecap="round" stroke-linejoin="round"/>
<path d="M1159 524.858C1159 540.085 1171.34 552.43 1186.57 552.43H1241.63C1256.86 552.43 1269.2 540.085 1269.2 524.858C1269.2 509.631 1256.86 497.287 1241.63 497.287H1186.57C1171.34 497.287 1159 509.631 1159 524.858V524.858Z" stroke="#E4E4E8" stroke-width="2" stroke-miterlimit="10" stroke-linecap="round" stroke-linejoin="round"/>
<path d="M1241.71 607.573C1226.49 607.573 1214.14 619.917 1214.14 635.145V690.206C1214.14 705.433 1226.49 717.777 1241.71 717.777C1256.94 717.777 1269.29 705.433 1269.29 690.206V635.145C1269.29 619.917 1256.94 607.573 1241.71 607.573Z" stroke="#E4E4E8" stroke-width="2" stroke-miterlimit="10" stroke-linecap="round" stroke-linejoin="round"/>
<path d="M1407.14 524.859L1387.65 544.355L1379.57 552.43H1407.14C1407.14 552.43 1407.14 552.43 1407.14 552.43H1517.43C1532.66 552.43 1545 540.085 1545 524.859C1545 509.631 1532.66 497.287 1517.43 497.287H1379.57L1387.65 505.363L1407.14 524.859Z" stroke="#E4E4E8" stroke-width="2" stroke-miterlimit="10" stroke-linecap="round" stroke-linejoin="round"/>
<path d="M1352 552.43H1241.71C1241.71 552.43 1241.71 552.43 1241.71 552.43H1214.14L1222.22 560.506L1241.71 580.001L1222.22 599.497L1214.14 607.573H1352C1367.23 607.573 1379.57 595.229 1379.57 580.001C1379.57 564.774 1367.23 552.43 1352 552.43V552.43Z" stroke="#E4E4E8" stroke-width="2" stroke-miterlimit="10" stroke-linecap="round" stroke-linejoin="round"/>
<path d="M1407.14 607.573C1391.92 607.573 1379.57 619.917 1379.57 635.145V773L1387.65 764.927L1407.14 745.43L1426.64 764.927L1434.71 773V635.145C1434.71 619.917 1422.37 607.573 1407.14 607.573Z" stroke="#E4E4E8" stroke-width="2" stroke-miterlimit="10" stroke-linecap="round" stroke-linejoin="round"/>
<path d="M1324.43 414.574C1324.43 429.8 1336.77 442.145 1352 442.145H1489.86L1481.78 434.069L1462.29 414.573L1481.78 395.077L1489.86 387.001H1352C1336.77 387.001 1324.43 399.346 1324.43 414.574V414.574Z" stroke="#E4E4E8" stroke-width="2" stroke-miterlimit="10" stroke-linecap="round" stroke-linejoin="round"/>
<path d="M1159 469.716C1159 454.488 1171.34 442.144 1186.57 442.144C1201.8 442.144 1214.14 454.488 1214.14 469.716C1214.14 484.943 1201.8 497.287 1186.57 497.287C1171.34 497.287 1159 484.943 1159 469.716Z" stroke="#E4E4E8" stroke-width="2" stroke-miterlimit="10" stroke-linecap="round" stroke-linejoin="round"/>
<path d="M1269.29 414.573C1269.29 399.346 1281.63 387.001 1296.86 387.001C1312.08 387.001 1324.43 399.346 1324.43 414.573C1324.43 429.8 1312.08 442.145 1296.86 442.145C1281.63 442.145 1269.29 429.8 1269.29 414.573Z" stroke="#E4E4E8" stroke-width="2" stroke-miterlimit="10" stroke-linecap="round" stroke-linejoin="round"/>
<path d="M1379.57 469.716C1379.57 454.488 1391.92 442.144 1407.14 442.144C1422.37 442.144 1434.71 454.488 1434.71 469.716C1434.71 484.943 1422.37 497.287 1407.14 497.287C1391.92 497.287 1379.57 484.943 1379.57 469.716Z" stroke="#E4E4E8" stroke-width="2" stroke-miterlimit="10" stroke-linecap="round" stroke-linejoin="round"/>
<path d="M1489.86 580.001C1489.86 564.774 1502.2 552.43 1517.43 552.43C1532.66 552.43 1545 564.774 1545 580.001C1545 595.229 1532.66 607.573 1517.43 607.573C1502.2 607.573 1489.86 595.229 1489.86 580.001Z" stroke="#E4E4E8" stroke-width="2" stroke-miterlimit="10" stroke-linecap="round" stroke-linejoin="round"/>
<path d="M1379.57 580.001C1379.57 564.774 1391.92 552.43 1407.14 552.43C1422.37 552.43 1434.71 564.774 1434.71 580.001C1434.71 595.229 1422.37 607.573 1407.14 607.573C1391.92 607.573 1379.57 595.229 1379.57 580.001Z" stroke="#E4E4E8" stroke-width="2" stroke-miterlimit="10" stroke-linecap="round" stroke-linejoin="round"/>
<path d="M1324.43 690.287C1324.43 675.06 1336.77 662.716 1352 662.716C1367.23 662.716 1379.57 675.06 1379.57 690.287C1379.57 705.514 1367.23 717.859 1352 717.859C1336.77 717.859 1324.43 705.514 1324.43 690.287Z" stroke="#E4E4E8" stroke-width="2" stroke-miterlimit="10" stroke-linecap="round" stroke-linejoin="round"/>
<path d="M1214.14 745.43C1214.14 730.203 1226.49 717.859 1241.71 717.859C1256.94 717.859 1269.29 730.203 1269.29 745.43C1269.29 760.658 1256.94 773 1241.71 773C1226.49 773 1214.14 760.658 1214.14 745.43V745.43Z" stroke="#E4E4E8" stroke-width="2" stroke-miterlimit="10" stroke-linecap="round" stroke-linejoin="round"/>
<path d="M1269.29 745.43C1269.29 760.658 1281.57 773 1296.72 773H1379.64L1352.2 745.43L1379.64 717.859H1296.72C1281.57 717.859 1269.29 730.203 1269.29 745.43V745.43Z" stroke="#E4E4E8" stroke-width="2" stroke-miterlimit="10" stroke-linecap="round" stroke-linejoin="round"/>
<path d="M773 56.1438L800.572 28.5722L773 1.00062H855.714C870.942 1.00062 883.286 13.3449 883.286 28.5722C883.286 43.7995 870.942 56.1438 855.714 56.1438H773Z" stroke="#E4E4E8" stroke-width="2" stroke-miterlimit="10" stroke-linecap="round" stroke-linejoin="round"/>
<path d="M1103.86 1.00004L1131.43 28.5716L1159 1.00004V83.7148C1159 98.9421 1146.66 111.286 1131.43 111.286C1116.2 111.286 1103.86 98.9421 1103.86 83.7148V1.00004Z" stroke="#E4E4E8" stroke-width="2" stroke-miterlimit="10" stroke-linecap="round" stroke-linejoin="round"/>
<path d="M938.429 331.858L910.858 304.286L883.286 331.858V249.144C883.286 233.916 895.63 221.572 910.858 221.572C926.084 221.572 938.429 233.916 938.429 249.144V331.858Z" stroke="#E4E4E8" stroke-width="2" stroke-miterlimit="10" stroke-linecap="round" stroke-linejoin="round"/>
<path d="M1159 331.858L1131.43 359.43L1159 386.999H1076.29C1061.06 386.999 1048.71 374.657 1048.71 359.43C1048.71 344.202 1061.06 331.858 1076.29 331.858H1159Z" stroke="#E4E4E8" stroke-width="2" stroke-miterlimit="10" stroke-linecap="round" stroke-linejoin="round"/>
<path d="M1048.71 166.429L1076.29 194.001L1103.86 166.429V249.144C1103.86 264.371 1091.51 276.716 1076.29 276.716C1061.06 276.716 1048.71 264.371 1048.71 249.144V166.429Z" stroke="#E4E4E8" stroke-width="2" stroke-miterlimit="10" stroke-linecap="round" stroke-linejoin="round"/>
<path d="M1103.86 111.286L1076.29 83.7148L1048.71 111.286V56.1432H1103.86V111.286Z" stroke="#E4E4E8" stroke-width="2" stroke-miterlimit="10" stroke-linecap="round" stroke-linejoin="round"/>
<path d="M1159 221.572L1131.43 249.144L1159 276.716H1103.86V221.572H1159Z" stroke="#E4E4E8" stroke-width="2" stroke-miterlimit="10" stroke-linecap="round" stroke-linejoin="round"/>
<path d="M938.429 276.716L966 249.144L938.429 221.572H993.572V276.716H938.429Z" stroke="#E4E4E8" stroke-width="2" stroke-miterlimit="10" stroke-linecap="round" stroke-linejoin="round"/>
<path d="M773 166.429L800.572 194.001L828.143 166.429V359.43C828.143 374.657 815.799 386.999 800.572 386.999C785.344 386.999 773 374.657 773 359.43V166.429Z" stroke="#E4E4E8" stroke-width="2" stroke-miterlimit="10" stroke-linecap="round" stroke-linejoin="round"/>
<path d="M938.429 166.429L910.858 138.858L883.287 166.429V111.286H938.429V166.429Z" stroke="#E4E4E8" stroke-width="2" stroke-miterlimit="10" stroke-linecap="round" stroke-linejoin="round"/>
<path d="M938.429 83.7148C938.429 68.4875 926.085 56.1432 910.858 56.1432H855.796C840.569 56.1432 828.225 68.4875 828.225 83.7148C828.225 98.9421 840.569 111.286 855.796 111.286H910.858C926.085 111.286 938.429 98.9421 938.429 83.7148Z" stroke="#E4E4E8" stroke-width="2" stroke-miterlimit="10" stroke-linecap="round" stroke-linejoin="round"/>
<path d="M966.001 56.2245C950.773 56.2245 938.429 68.5688 938.429 83.7961V138.857C938.429 154.085 950.773 166.429 966.001 166.429C981.228 166.429 993.572 154.085 993.572 138.857V83.7961C993.572 68.5688 981.228 56.2245 966.001 56.2245Z" stroke="#E4E4E8" stroke-width="2" stroke-miterlimit="10" stroke-linecap="round" stroke-linejoin="round"/>
<path d="M1048.71 304.286C1048.71 319.514 1061.06 331.858 1076.29 331.858H1131.35C1146.58 331.858 1158.92 319.514 1158.92 304.286C1158.92 289.059 1146.58 276.715 1131.35 276.715H1076.29C1061.06 276.715 1048.71 289.059 1048.71 304.286Z" stroke="#E4E4E8" stroke-width="2" stroke-miterlimit="10" stroke-linecap="round" stroke-linejoin="round"/>
<path d="M773 138.857C773 154.085 785.344 166.429 800.572 166.429H855.633C870.86 166.429 883.204 154.085 883.204 138.857C883.204 123.63 870.86 111.286 855.633 111.286H800.572C785.344 111.286 773 123.63 773 138.857V138.857Z" stroke="#E4E4E8" stroke-width="2" stroke-miterlimit="10" stroke-linecap="round" stroke-linejoin="round"/>
<path d="M855.714 221.572C840.487 221.572 828.143 233.917 828.143 249.144V304.205C828.143 319.433 840.487 331.777 855.714 331.777C870.942 331.777 883.286 319.433 883.286 304.205V249.144C883.286 233.917 870.942 221.572 855.714 221.572Z" stroke="#E4E4E8" stroke-width="2" stroke-miterlimit="10" stroke-linecap="round" stroke-linejoin="round"/>
<path d="M1021.14 138.858L1001.65 158.354L993.572 166.429H1021.14C1021.14 166.429 1021.14 166.429 1021.14 166.429H1131.43C1146.66 166.429 1159 154.085 1159 138.858C1159 123.631 1146.66 111.286 1131.43 111.286H993.572L1001.65 119.362L1021.14 138.858Z" stroke="#E4E4E8" stroke-width="2" stroke-miterlimit="10" stroke-linecap="round" stroke-linejoin="round"/>
<path d="M966 166.429H855.714C855.714 166.429 855.713 166.429 855.712 166.429H828.143L836.219 174.505L855.714 194.001L836.219 213.497L828.143 221.572H966C981.228 221.572 993.572 209.228 993.572 194.001C993.572 178.773 981.228 166.429 966 166.429V166.429Z" stroke="#E4E4E8" stroke-width="2" stroke-miterlimit="10" stroke-linecap="round" stroke-linejoin="round"/>
<path d="M1021.14 221.572C1005.92 221.572 993.572 233.917 993.572 249.144V386.999L1001.65 378.926L1021.14 359.43L1040.64 378.926L1048.71 386.999V249.144C1048.71 233.917 1036.37 221.572 1021.14 221.572Z" stroke="#E4E4E8" stroke-width="2" stroke-miterlimit="10" stroke-linecap="round" stroke-linejoin="round"/>
<path d="M938.429 28.5728C938.429 43.7995 950.773 56.1438 966.001 56.1438H1103.86L1095.78 48.0687L1076.29 28.5722L1095.78 9.0763L1103.86 1.00062H966.001C950.773 1.00062 938.429 13.3449 938.429 28.5728V28.5728Z" stroke="#E4E4E8" stroke-width="2" stroke-miterlimit="10" stroke-linecap="round" stroke-linejoin="round"/>
<path d="M773 83.7148C773 68.4875 785.344 56.1432 800.572 56.1432C815.799 56.1432 828.143 68.4875 828.143 83.7148C828.143 98.9421 815.799 111.286 800.572 111.286C785.344 111.286 773 98.9421 773 83.7148Z" stroke="#E4E4E8" stroke-width="2" stroke-miterlimit="10" stroke-linecap="round" stroke-linejoin="round"/>
<path d="M883.287 28.5722C883.287 13.3449 895.63 1.00062 910.858 1.00062C926.085 1.00062 938.429 13.3449 938.429 28.5722C938.429 43.7995 926.085 56.1438 910.858 56.1438C895.63 56.1438 883.287 43.7995 883.287 28.5722Z" stroke="#E4E4E8" stroke-width="2" stroke-miterlimit="10" stroke-linecap="round" stroke-linejoin="round"/>
<path d="M993.572 83.7148C993.572 68.4875 1005.92 56.1432 1021.14 56.1432C1036.37 56.1432 1048.71 68.4875 1048.71 83.7148C1048.71 98.9421 1036.37 111.286 1021.14 111.286C1005.92 111.286 993.572 98.9421 993.572 83.7148Z" stroke="#E4E4E8" stroke-width="2" stroke-miterlimit="10" stroke-linecap="round" stroke-linejoin="round"/>
<path d="M1103.86 194.001C1103.86 178.773 1116.2 166.429 1131.43 166.429C1146.66 166.429 1159 178.773 1159 194.001C1159 209.228 1146.66 221.572 1131.43 221.572C1116.2 221.572 1103.86 209.228 1103.86 194.001Z" stroke="#E4E4E8" stroke-width="2" stroke-miterlimit="10" stroke-linecap="round" stroke-linejoin="round"/>
<path d="M993.572 194.001C993.572 178.773 1005.92 166.429 1021.14 166.429C1036.37 166.429 1048.71 178.773 1048.71 194.001C1048.71 209.228 1036.37 221.572 1021.14 221.572C1005.92 221.572 993.572 209.228 993.572 194.001Z" stroke="#E4E4E8" stroke-width="2" stroke-miterlimit="10" stroke-linecap="round" stroke-linejoin="round"/>
<path d="M938.429 304.286C938.429 289.06 950.773 276.715 966 276.715C981.228 276.715 993.572 289.06 993.572 304.286C993.572 319.514 981.228 331.858 966 331.858C950.773 331.858 938.429 319.514 938.429 304.286Z" stroke="#E4E4E8" stroke-width="2" stroke-miterlimit="10" stroke-linecap="round" stroke-linejoin="round"/>
<path d="M828.143 359.43C828.143 344.202 840.488 331.858 855.714 331.858C870.942 331.858 883.287 344.202 883.287 359.43C883.287 374.657 870.942 386.999 855.714 386.999C840.488 386.999 828.143 374.657 828.143 359.43V359.43Z" stroke="#E4E4E8" stroke-width="2" stroke-miterlimit="10" stroke-linecap="round" stroke-linejoin="round"/>
<path d="M883.287 359.43C883.287 374.657 895.569 386.999 910.721 386.999H993.636L966.201 359.43L993.636 331.858H910.721C895.569 331.858 883.287 344.202 883.287 359.43V359.43Z" stroke="#E4E4E8" stroke-width="2" stroke-miterlimit="10" stroke-linecap="round" stroke-linejoin="round"/>
<path d="M773 442.145L800.572 414.573L773 387.001H855.714C870.942 387.001 883.286 399.346 883.286 414.573C883.286 429.8 870.942 442.145 855.714 442.145H773Z" stroke="#E4E4E8" stroke-width="2" stroke-miterlimit="10" stroke-linecap="round" stroke-linejoin="round"/>
<path d="M1103.86 387.001L1131.43 414.572L1159 387.001V469.716C1159 484.943 1146.66 497.287 1131.43 497.287C1116.2 497.287 1103.86 484.943 1103.86 469.716V387.001Z" stroke="#E4E4E8" stroke-width="2" stroke-miterlimit="10" stroke-linecap="round" stroke-linejoin="round"/>
<path d="M938.429 717.859L910.858 690.287L883.286 717.859V635.145C883.286 619.917 895.63 607.573 910.858 607.573C926.084 607.573 938.429 619.917 938.429 635.145V717.859Z" stroke="#E4E4E8" stroke-width="2" stroke-miterlimit="10" stroke-linecap="round" stroke-linejoin="round"/>
<path d="M1159 717.859L1131.43 745.43L1159 773H1076.29C1061.06 773 1048.71 760.658 1048.71 745.43C1048.71 730.203 1061.06 717.859 1076.29 717.859H1159Z" stroke="#E4E4E8" stroke-width="2" stroke-miterlimit="10" stroke-linecap="round" stroke-linejoin="round"/>
<path d="M1048.71 552.43L1076.29 580.002L1103.86 552.43V635.145C1103.86 650.372 1091.51 662.716 1076.29 662.716C1061.06 662.716 1048.71 650.372 1048.71 635.145V552.43Z" stroke="#E4E4E8" stroke-width="2" stroke-miterlimit="10" stroke-linecap="round" stroke-linejoin="round"/>
<path d="M1103.86 497.287L1076.29 469.716L1048.71 497.287V442.144H1103.86V497.287Z" stroke="#E4E4E8" stroke-width="2" stroke-miterlimit="10" stroke-linecap="round" stroke-linejoin="round"/>
<path d="M1159 607.573L1131.43 635.145L1159 662.716H1103.86V607.573H1159Z" stroke="#E4E4E8" stroke-width="2" stroke-miterlimit="10" stroke-linecap="round" stroke-linejoin="round"/>
<path d="M938.429 662.716L966 635.145L938.429 607.573H993.572V662.716H938.429Z" stroke="#E4E4E8" stroke-width="2" stroke-miterlimit="10" stroke-linecap="round" stroke-linejoin="round"/>
<path d="M773 552.43L800.572 580.002L828.143 552.43V745.43C828.143 760.658 815.799 773 800.572 773C785.344 773 773 760.658 773 745.43V552.43Z" stroke="#E4E4E8" stroke-width="2" stroke-miterlimit="10" stroke-linecap="round" stroke-linejoin="round"/>
<path d="M938.429 552.43L910.858 524.859L883.287 552.43V497.287H938.429V552.43Z" stroke="#E4E4E8" stroke-width="2" stroke-miterlimit="10" stroke-linecap="round" stroke-linejoin="round"/>
<path d="M938.429 469.716C938.429 454.488 926.085 442.144 910.858 442.144H855.796C840.569 442.144 828.225 454.488 828.225 469.716C828.225 484.943 840.569 497.287 855.796 497.287H910.858C926.085 497.287 938.429 484.943 938.429 469.716Z" stroke="#E4E4E8" stroke-width="2" stroke-miterlimit="10" stroke-linecap="round" stroke-linejoin="round"/>
<path d="M966.001 442.225C950.773 442.225 938.429 454.57 938.429 469.797V524.858C938.429 540.085 950.773 552.43 966.001 552.43C981.228 552.43 993.572 540.085 993.572 524.858V469.797C993.572 454.57 981.228 442.225 966.001 442.225Z" stroke="#E4E4E8" stroke-width="2" stroke-miterlimit="10" stroke-linecap="round" stroke-linejoin="round"/>
<path d="M1048.71 690.287C1048.71 705.514 1061.06 717.859 1076.29 717.859H1131.35C1146.58 717.859 1158.92 705.514 1158.92 690.287C1158.92 675.06 1146.58 662.716 1131.35 662.716H1076.29C1061.06 662.716 1048.71 675.06 1048.71 690.287Z" stroke="#E4E4E8" stroke-width="2" stroke-miterlimit="10" stroke-linecap="round" stroke-linejoin="round"/>
<path d="M773 524.858C773 540.085 785.344 552.43 800.572 552.43H855.633C870.86 552.43 883.204 540.085 883.204 524.858C883.204 509.631 870.86 497.287 855.633 497.287H800.572C785.344 497.287 773 509.631 773 524.858V524.858Z" stroke="#E4E4E8" stroke-width="2" stroke-miterlimit="10" stroke-linecap="round" stroke-linejoin="round"/>
<path d="M855.714 607.573C840.487 607.573 828.143 619.917 828.143 635.145V690.206C828.143 705.433 840.487 717.777 855.714 717.777C870.942 717.777 883.286 705.433 883.286 690.206V635.145C883.286 619.917 870.942 607.573 855.714 607.573Z" stroke="#E4E4E8" stroke-width="2" stroke-miterlimit="10" stroke-linecap="round" stroke-linejoin="round"/>
<path d="M1021.14 524.859L1001.65 544.355L993.572 552.43H1021.14C1021.14 552.43 1021.14 552.43 1021.14 552.43H1131.43C1146.66 552.43 1159 540.085 1159 524.859C1159 509.631 1146.66 497.287 1131.43 497.287H993.572L1001.65 505.363L1021.14 524.859Z" stroke="#E4E4E8" stroke-width="2" stroke-miterlimit="10" stroke-linecap="round" stroke-linejoin="round"/>
<path d="M966 552.43H855.714C855.714 552.43 855.713 552.43 855.712 552.43H828.143L836.219 560.506L855.714 580.001L836.219 599.497L828.143 607.573H966C981.228 607.573 993.572 595.229 993.572 580.001C993.572 564.774 981.228 552.43 966 552.43V552.43Z" stroke="#E4E4E8" stroke-width="2" stroke-miterlimit="10" stroke-linecap="round" stroke-linejoin="round"/>
<path d="M1021.14 607.573C1005.92 607.573 993.572 619.917 993.572 635.145V773L1001.65 764.927L1021.14 745.43L1040.64 764.927L1048.71 773V635.145C1048.71 619.917 1036.37 607.573 1021.14 607.573Z" stroke="#E4E4E8" stroke-width="2" stroke-miterlimit="10" stroke-linecap="round" stroke-linejoin="round"/>
<path d="M938.429 414.574C938.429 429.8 950.773 442.145 966.001 442.145H1103.86L1095.78 434.069L1076.29 414.573L1095.78 395.077L1103.86 387.001H966.001C950.773 387.001 938.429 399.346 938.429 414.574V414.574Z" stroke="#E4E4E8" stroke-width="2" stroke-miterlimit="10" stroke-linecap="round" stroke-linejoin="round"/>
<path d="M773 469.716C773 454.488 785.344 442.144 800.572 442.144C815.799 442.144 828.143 454.488 828.143 469.716C828.143 484.943 815.799 497.287 800.572 497.287C785.344 497.287 773 484.943 773 469.716Z" stroke="#E4E4E8" stroke-width="2" stroke-miterlimit="10" stroke-linecap="round" stroke-linejoin="round"/>
<path d="M883.287 414.573C883.287 399.346 895.63 387.001 910.858 387.001C926.085 387.001 938.429 399.346 938.429 414.573C938.429 429.8 926.085 442.145 910.858 442.145C895.63 442.145 883.287 429.8 883.287 414.573Z" stroke="#E4E4E8" stroke-width="2" stroke-miterlimit="10" stroke-linecap="round" stroke-linejoin="round"/>
<path d="M993.572 469.716C993.572 454.488 1005.92 442.144 1021.14 442.144C1036.37 442.144 1048.71 454.488 1048.71 469.716C1048.71 484.943 1036.37 497.287 1021.14 497.287C1005.92 497.287 993.572 484.943 993.572 469.716Z" stroke="#E4E4E8" stroke-width="2" stroke-miterlimit="10" stroke-linecap="round" stroke-linejoin="round"/>
<path d="M1103.86 580.001C1103.86 564.774 1116.2 552.43 1131.43 552.43C1146.66 552.43 1159 564.774 1159 580.001C1159 595.229 1146.66 607.573 1131.43 607.573C1116.2 607.573 1103.86 595.229 1103.86 580.001Z" stroke="#E4E4E8" stroke-width="2" stroke-miterlimit="10" stroke-linecap="round" stroke-linejoin="round"/>
<path d="M993.572 580.001C993.572 564.774 1005.92 552.43 1021.14 552.43C1036.37 552.43 1048.71 564.774 1048.71 580.001C1048.71 595.229 1036.37 607.573 1021.14 607.573C1005.92 607.573 993.572 595.229 993.572 580.001Z" stroke="#E4E4E8" stroke-width="2" stroke-miterlimit="10" stroke-linecap="round" stroke-linejoin="round"/>
<path d="M938.429 690.287C938.429 675.06 950.773 662.716 966 662.716C981.228 662.716 993.572 675.06 993.572 690.287C993.572 705.514 981.228 717.859 966 717.859C950.773 717.859 938.429 705.514 938.429 690.287Z" stroke="#E4E4E8" stroke-width="2" stroke-miterlimit="10" stroke-linecap="round" stroke-linejoin="round"/>
<path d="M828.143 745.43C828.143 730.203 840.488 717.859 855.714 717.859C870.942 717.859 883.287 730.203 883.287 745.43C883.287 760.658 870.942 773 855.714 773C840.488 773 828.143 760.658 828.143 745.43V745.43Z" stroke="#E4E4E8" stroke-width="2" stroke-miterlimit="10" stroke-linecap="round" stroke-linejoin="round"/>
<path d="M883.287 745.43C883.287 760.658 895.569 773 910.721 773H993.636L966.201 745.43L993.636 717.859H910.721C895.569 717.859 883.287 730.203 883.287 745.43V745.43Z" stroke="#E4E4E8" stroke-width="2" stroke-miterlimit="10" stroke-linecap="round" stroke-linejoin="round"/>
</g>
<g opacity="0.35">
<path d="M1931 56.1438L1958.57 28.5722L1931 1.00062H2013.71C2028.94 1.00062 2041.29 13.3449 2041.29 28.5722C2041.29 43.7995 2028.94 56.1438 2013.71 56.1438H1931Z" stroke="#E4E4E8" stroke-width="2" stroke-miterlimit="10" stroke-linecap="round" stroke-linejoin="round"/>
<path d="M2261.86 1.00004L2289.43 28.5716L2317 1.00004V83.7148C2317 98.9421 2304.66 111.286 2289.43 111.286C2274.2 111.286 2261.86 98.9421 2261.86 83.7148V1.00004Z" stroke="#E4E4E8" stroke-width="2" stroke-miterlimit="10" stroke-linecap="round" stroke-linejoin="round"/>
<path d="M2096.43 331.858L2068.86 304.286L2041.29 331.858V249.144C2041.29 233.916 2053.63 221.572 2068.86 221.572C2084.08 221.572 2096.43 233.916 2096.43 249.144V331.858Z" stroke="#E4E4E8" stroke-width="2" stroke-miterlimit="10" stroke-linecap="round" stroke-linejoin="round"/>
<path d="M2317 331.858L2289.43 359.43L2317 386.999H2234.29C2219.06 386.999 2206.71 374.657 2206.71 359.43C2206.71 344.202 2219.06 331.858 2234.29 331.858H2317Z" stroke="#E4E4E8" stroke-width="2" stroke-miterlimit="10" stroke-linecap="round" stroke-linejoin="round"/>
<path d="M2206.71 166.429L2234.29 194.001L2261.86 166.429V249.144C2261.86 264.371 2249.51 276.716 2234.29 276.716C2219.06 276.716 2206.71 264.371 2206.71 249.144V166.429Z" stroke="#E4E4E8" stroke-width="2" stroke-miterlimit="10" stroke-linecap="round" stroke-linejoin="round"/>
<path d="M2261.86 111.286L2234.29 83.7148L2206.71 111.286V56.1432H2261.86V111.286Z" stroke="#E4E4E8" stroke-width="2" stroke-miterlimit="10" stroke-linecap="round" stroke-linejoin="round"/>
<path d="M2317 221.572L2289.43 249.144L2317 276.716H2261.86V221.572H2317Z" stroke="#E4E4E8" stroke-width="2" stroke-miterlimit="10" stroke-linecap="round" stroke-linejoin="round"/>
<path d="M2096.43 276.716L2124 249.144L2096.43 221.572H2151.57V276.716H2096.43Z" stroke="#E4E4E8" stroke-width="2" stroke-miterlimit="10" stroke-linecap="round" stroke-linejoin="round"/>
<path d="M1931 166.429L1958.57 194.001L1986.14 166.429V359.43C1986.14 374.657 1973.8 386.999 1958.57 386.999C1943.34 386.999 1931 374.657 1931 359.43V166.429Z" stroke="#E4E4E8" stroke-width="2" stroke-miterlimit="10" stroke-linecap="round" stroke-linejoin="round"/>
<path d="M2096.43 166.429L2068.86 138.858L2041.29 166.429V111.286H2096.43V166.429Z" stroke="#E4E4E8" stroke-width="2" stroke-miterlimit="10" stroke-linecap="round" stroke-linejoin="round"/>
<path d="M2096.43 83.7148C2096.43 68.4875 2084.08 56.1432 2068.86 56.1432H2013.8C1998.57 56.1432 1986.22 68.4875 1986.22 83.7148C1986.22 98.9421 1998.57 111.286 2013.8 111.286H2068.86C2084.08 111.286 2096.43 98.9421 2096.43 83.7148Z" stroke="#E4E4E8" stroke-width="2" stroke-miterlimit="10" stroke-linecap="round" stroke-linejoin="round"/>
<path d="M2124 56.2245C2108.77 56.2245 2096.43 68.5688 2096.43 83.7961V138.857C2096.43 154.085 2108.77 166.429 2124 166.429C2139.23 166.429 2151.57 154.085 2151.57 138.857V83.7961C2151.57 68.5688 2139.23 56.2245 2124 56.2245Z" stroke="#E4E4E8" stroke-width="2" stroke-miterlimit="10" stroke-linecap="round" stroke-linejoin="round"/>
<path d="M2206.71 304.286C2206.71 319.514 2219.06 331.858 2234.29 331.858H2289.35C2304.57 331.858 2316.92 319.514 2316.92 304.286C2316.92 289.059 2304.57 276.715 2289.35 276.715H2234.29C2219.06 276.715 2206.71 289.059 2206.71 304.286Z" stroke="#E4E4E8" stroke-width="2" stroke-miterlimit="10" stroke-linecap="round" stroke-linejoin="round"/>
<path d="M1931 138.857C1931 154.085 1943.34 166.429 1958.57 166.429H2013.63C2028.86 166.429 2041.2 154.085 2041.2 138.857C2041.2 123.63 2028.86 111.286 2013.63 111.286H1958.57C1943.34 111.286 1931 123.63 1931 138.857V138.857Z" stroke="#E4E4E8" stroke-width="2" stroke-miterlimit="10" stroke-linecap="round" stroke-linejoin="round"/>
<path d="M2013.71 221.572C1998.49 221.572 1986.14 233.917 1986.14 249.144V304.205C1986.14 319.433 1998.49 331.777 2013.71 331.777C2028.94 331.777 2041.29 319.433 2041.29 304.205V249.144C2041.29 233.917 2028.94 221.572 2013.71 221.572Z" stroke="#E4E4E8" stroke-width="2" stroke-miterlimit="10" stroke-linecap="round" stroke-linejoin="round"/>
<path d="M2179.14 138.858L2159.65 158.354L2151.57 166.429H2179.14C2179.14 166.429 2179.14 166.429 2179.14 166.429H2289.43C2304.66 166.429 2317 154.085 2317 138.858C2317 123.631 2304.66 111.286 2289.43 111.286H2151.57L2159.65 119.362L2179.14 138.858Z" stroke="#E4E4E8" stroke-width="2" stroke-miterlimit="10" stroke-linecap="round" stroke-linejoin="round"/>
<path d="M2124 166.429H2013.71C2013.71 166.429 2013.71 166.429 2013.71 166.429H1986.14L1994.22 174.505L2013.71 194.001L1994.22 213.497L1986.14 221.572H2124C2139.23 221.572 2151.57 209.228 2151.57 194.001C2151.57 178.773 2139.23 166.429 2124 166.429V166.429Z" stroke="#E4E4E8" stroke-width="2" stroke-miterlimit="10" stroke-linecap="round" stroke-linejoin="round"/>
<path d="M2179.14 221.572C2163.92 221.572 2151.57 233.917 2151.57 249.144V386.999L2159.65 378.926L2179.14 359.43L2198.64 378.926L2206.71 386.999V249.144C2206.71 233.917 2194.37 221.572 2179.14 221.572Z" stroke="#E4E4E8" stroke-width="2" stroke-miterlimit="10" stroke-linecap="round" stroke-linejoin="round"/>
<path d="M2096.43 28.5728C2096.43 43.7995 2108.77 56.1438 2124 56.1438H2261.86L2253.78 48.0687L2234.29 28.5722L2253.78 9.0763L2261.86 1.00062H2124C2108.77 1.00062 2096.43 13.3449 2096.43 28.5728V28.5728Z" stroke="#E4E4E8" stroke-width="2" stroke-miterlimit="10" stroke-linecap="round" stroke-linejoin="round"/>
<path d="M1931 83.7148C1931 68.4875 1943.34 56.1432 1958.57 56.1432C1973.8 56.1432 1986.14 68.4875 1986.14 83.7148C1986.14 98.9421 1973.8 111.286 1958.57 111.286C1943.34 111.286 1931 98.9421 1931 83.7148Z" stroke="#E4E4E8" stroke-width="2" stroke-miterlimit="10" stroke-linecap="round" stroke-linejoin="round"/>
<path d="M2041.29 28.5722C2041.29 13.3449 2053.63 1.00062 2068.86 1.00062C2084.08 1.00062 2096.43 13.3449 2096.43 28.5722C2096.43 43.7995 2084.08 56.1438 2068.86 56.1438C2053.63 56.1438 2041.29 43.7995 2041.29 28.5722Z" stroke="#E4E4E8" stroke-width="2" stroke-miterlimit="10" stroke-linecap="round" stroke-linejoin="round"/>
<path d="M2151.57 83.7148C2151.57 68.4875 2163.92 56.1432 2179.14 56.1432C2194.37 56.1432 2206.71 68.4875 2206.71 83.7148C2206.71 98.9421 2194.37 111.286 2179.14 111.286C2163.92 111.286 2151.57 98.9421 2151.57 83.7148Z" stroke="#E4E4E8" stroke-width="2" stroke-miterlimit="10" stroke-linecap="round" stroke-linejoin="round"/>
<path d="M2261.86 194.001C2261.86 178.773 2274.2 166.429 2289.43 166.429C2304.66 166.429 2317 178.773 2317 194.001C2317 209.228 2304.66 221.572 2289.43 221.572C2274.2 221.572 2261.86 209.228 2261.86 194.001Z" stroke="#E4E4E8" stroke-width="2" stroke-miterlimit="10" stroke-linecap="round" stroke-linejoin="round"/>
<path d="M2151.57 194.001C2151.57 178.773 2163.92 166.429 2179.14 166.429C2194.37 166.429 2206.71 178.773 2206.71 194.001C2206.71 209.228 2194.37 221.572 2179.14 221.572C2163.92 221.572 2151.57 209.228 2151.57 194.001Z" stroke="#E4E4E8" stroke-width="2" stroke-miterlimit="10" stroke-linecap="round" stroke-linejoin="round"/>
<path d="M2096.43 304.286C2096.43 289.06 2108.77 276.715 2124 276.715C2139.23 276.715 2151.57 289.06 2151.57 304.286C2151.57 319.514 2139.23 331.858 2124 331.858C2108.77 331.858 2096.43 319.514 2096.43 304.286Z" stroke="#E4E4E8" stroke-width="2" stroke-miterlimit="10" stroke-linecap="round" stroke-linejoin="round"/>
<path d="M1986.14 359.43C1986.14 344.202 1998.49 331.858 2013.71 331.858C2028.94 331.858 2041.29 344.202 2041.29 359.43C2041.29 374.657 2028.94 386.999 2013.71 386.999C1998.49 386.999 1986.14 374.657 1986.14 359.43V359.43Z" stroke="#E4E4E8" stroke-width="2" stroke-miterlimit="10" stroke-linecap="round" stroke-linejoin="round"/>
<path d="M2041.29 359.43C2041.29 374.657 2053.57 386.999 2068.72 386.999H2151.64L2124.2 359.43L2151.64 331.858H2068.72C2053.57 331.858 2041.29 344.202 2041.29 359.43V359.43Z" stroke="#E4E4E8" stroke-width="2" stroke-miterlimit="10" stroke-linecap="round" stroke-linejoin="round"/>
<path d="M1931 442.145L1958.57 414.573L1931 387.001H2013.71C2028.94 387.001 2041.29 399.346 2041.29 414.573C2041.29 429.8 2028.94 442.145 2013.71 442.145H1931Z" stroke="#E4E4E8" stroke-width="2" stroke-miterlimit="10" stroke-linecap="round" stroke-linejoin="round"/>
<path d="M2261.86 387.001L2289.43 414.572L2317 387.001V469.716C2317 484.943 2304.66 497.287 2289.43 497.287C2274.2 497.287 2261.86 484.943 2261.86 469.716V387.001Z" stroke="#E4E4E8" stroke-width="2" stroke-miterlimit="10" stroke-linecap="round" stroke-linejoin="round"/>
<path d="M2096.43 717.859L2068.86 690.287L2041.29 717.859V635.145C2041.29 619.917 2053.63 607.573 2068.86 607.573C2084.08 607.573 2096.43 619.917 2096.43 635.145V717.859Z" stroke="#E4E4E8" stroke-width="2" stroke-miterlimit="10" stroke-linecap="round" stroke-linejoin="round"/>
<path d="M2317 717.859L2289.43 745.43L2317 773H2234.29C2219.06 773 2206.71 760.658 2206.71 745.43C2206.71 730.203 2219.06 717.859 2234.29 717.859H2317Z" stroke="#E4E4E8" stroke-width="2" stroke-miterlimit="10" stroke-linecap="round" stroke-linejoin="round"/>
<path d="M2206.71 552.43L2234.29 580.002L2261.86 552.43V635.145C2261.86 650.372 2249.51 662.716 2234.29 662.716C2219.06 662.716 2206.71 650.372 2206.71 635.145V552.43Z" stroke="#E4E4E8" stroke-width="2" stroke-miterlimit="10" stroke-linecap="round" stroke-linejoin="round"/>
<path d="M2261.86 497.287L2234.29 469.716L2206.71 497.287V442.144H2261.86V497.287Z" stroke="#E4E4E8" stroke-width="2" stroke-miterlimit="10" stroke-linecap="round" stroke-linejoin="round"/>
<path d="M2317 607.573L2289.43 635.145L2317 662.716H2261.86V607.573H2317Z" stroke="#E4E4E8" stroke-width="2" stroke-miterlimit="10" stroke-linecap="round" stroke-linejoin="round"/>
<path d="M2096.43 662.716L2124 635.145L2096.43 607.573H2151.57V662.716H2096.43Z" stroke="#E4E4E8" stroke-width="2" stroke-miterlimit="10" stroke-linecap="round" stroke-linejoin="round"/>
<path d="M1931 552.43L1958.57 580.002L1986.14 552.43V745.43C1986.14 760.658 1973.8 773 1958.57 773C1943.34 773 1931 760.658 1931 745.43V552.43Z" stroke="#E4E4E8" stroke-width="2" stroke-miterlimit="10" stroke-linecap="round" stroke-linejoin="round"/>
<path d="M2096.43 552.43L2068.86 524.859L2041.29 552.43V497.287H2096.43V552.43Z" stroke="#E4E4E8" stroke-width="2" stroke-miterlimit="10" stroke-linecap="round" stroke-linejoin="round"/>
<path d="M2096.43 469.716C2096.43 454.488 2084.08 442.144 2068.86 442.144H2013.8C1998.57 442.144 1986.22 454.488 1986.22 469.716C1986.22 484.943 1998.57 497.287 2013.8 497.287H2068.86C2084.08 497.287 2096.43 484.943 2096.43 469.716Z" stroke="#E4E4E8" stroke-width="2" stroke-miterlimit="10" stroke-linecap="round" stroke-linejoin="round"/>
<path d="M2124 442.225C2108.77 442.225 2096.43 454.57 2096.43 469.797V524.858C2096.43 540.085 2108.77 552.43 2124 552.43C2139.23 552.43 2151.57 540.085 2151.57 524.858V469.797C2151.57 454.57 2139.23 442.225 2124 442.225Z" stroke="#E4E4E8" stroke-width="2" stroke-miterlimit="10" stroke-linecap="round" stroke-linejoin="round"/>
<path d="M2206.71 690.287C2206.71 705.514 2219.06 717.859 2234.29 717.859H2289.35C2304.57 717.859 2316.92 705.514 2316.92 690.287C2316.92 675.06 2304.57 662.716 2289.35 662.716H2234.29C2219.06 662.716 2206.71 675.06 2206.71 690.287Z" stroke="#E4E4E8" stroke-width="2" stroke-miterlimit="10" stroke-linecap="round" stroke-linejoin="round"/>
<path d="M1931 524.858C1931 540.085 1943.34 552.43 1958.57 552.43H2013.63C2028.86 552.43 2041.2 540.085 2041.2 524.858C2041.2 509.631 2028.86 497.287 2013.63 497.287H1958.57C1943.34 497.287 1931 509.631 1931 524.858V524.858Z" stroke="#E4E4E8" stroke-width="2" stroke-miterlimit="10" stroke-linecap="round" stroke-linejoin="round"/>
<path d="M2013.71 607.573C1998.49 607.573 1986.14 619.917 1986.14 635.145V690.206C1986.14 705.433 1998.49 717.777 2013.71 717.777C2028.94 717.777 2041.29 705.433 2041.29 690.206V635.145C2041.29 619.917 2028.94 607.573 2013.71 607.573Z" stroke="#E4E4E8" stroke-width="2" stroke-miterlimit="10" stroke-linecap="round" stroke-linejoin="round"/>
<path d="M2179.14 524.859L2159.65 544.355L2151.57 552.43H2179.14C2179.14 552.43 2179.14 552.43 2179.14 552.43H2289.43C2304.66 552.43 2317 540.085 2317 524.859C2317 509.631 2304.66 497.287 2289.43 497.287H2151.57L2159.65 505.363L2179.14 524.859Z" stroke="#E4E4E8" stroke-width="2" stroke-miterlimit="10" stroke-linecap="round" stroke-linejoin="round"/>
<path d="M2124 552.43H2013.71C2013.71 552.43 2013.71 552.43 2013.71 552.43H1986.14L1994.22 560.506L2013.71 580.001L1994.22 599.497L1986.14 607.573H2124C2139.23 607.573 2151.57 595.229 2151.57 580.001C2151.57 564.774 2139.23 552.43 2124 552.43V552.43Z" stroke="#E4E4E8" stroke-width="2" stroke-miterlimit="10" stroke-linecap="round" stroke-linejoin="round"/>
<path d="M2179.14 607.573C2163.92 607.573 2151.57 619.917 2151.57 635.145V773L2159.65 764.927L2179.14 745.43L2198.64 764.927L2206.71 773V635.145C2206.71 619.917 2194.37 607.573 2179.14 607.573Z" stroke="#E4E4E8" stroke-width="2" stroke-miterlimit="10" stroke-linecap="round" stroke-linejoin="round"/>
<path d="M2096.43 414.574C2096.43 429.8 2108.77 442.145 2124 442.145H2261.86L2253.78 434.069L2234.29 414.573L2253.78 395.077L2261.86 387.001H2124C2108.77 387.001 2096.43 399.346 2096.43 414.574V414.574Z" stroke="#E4E4E8" stroke-width="2" stroke-miterlimit="10" stroke-linecap="round" stroke-linejoin="round"/>
<path d="M1931 469.716C1931 454.488 1943.34 442.144 1958.57 442.144C1973.8 442.144 1986.14 454.488 1986.14 469.716C1986.14 484.943 1973.8 497.287 1958.57 497.287C1943.34 497.287 1931 484.943 1931 469.716Z" stroke="#E4E4E8" stroke-width="2" stroke-miterlimit="10" stroke-linecap="round" stroke-linejoin="round"/>
<path d="M2041.29 414.573C2041.29 399.346 2053.63 387.001 2068.86 387.001C2084.08 387.001 2096.43 399.346 2096.43 414.573C2096.43 429.8 2084.08 442.145 2068.86 442.145C2053.63 442.145 2041.29 429.8 2041.29 414.573Z" stroke="#E4E4E8" stroke-width="2" stroke-miterlimit="10" stroke-linecap="round" stroke-linejoin="round"/>
<path d="M2151.57 469.716C2151.57 454.488 2163.92 442.144 2179.14 442.144C2194.37 442.144 2206.71 454.488 2206.71 469.716C2206.71 484.943 2194.37 497.287 2179.14 497.287C2163.92 497.287 2151.57 484.943 2151.57 469.716Z" stroke="#E4E4E8" stroke-width="2" stroke-miterlimit="10" stroke-linecap="round" stroke-linejoin="round"/>
<path d="M2261.86 580.001C2261.86 564.774 2274.2 552.43 2289.43 552.43C2304.66 552.43 2317 564.774 2317 580.001C2317 595.229 2304.66 607.573 2289.43 607.573C2274.2 607.573 2261.86 595.229 2261.86 580.001Z" stroke="#E4E4E8" stroke-width="2" stroke-miterlimit="10" stroke-linecap="round" stroke-linejoin="round"/>
<path d="M2151.57 580.001C2151.57 564.774 2163.92 552.43 2179.14 552.43C2194.37 552.43 2206.71 564.774 2206.71 580.001C2206.71 595.229 2194.37 607.573 2179.14 607.573C2163.92 607.573 2151.57 595.229 2151.57 580.001Z" stroke="#E4E4E8" stroke-width="2" stroke-miterlimit="10" stroke-linecap="round" stroke-linejoin="round"/>
<path d="M2096.43 690.287C2096.43 675.06 2108.77 662.716 2124 662.716C2139.23 662.716 2151.57 675.06 2151.57 690.287C2151.57 705.514 2139.23 717.859 2124 717.859C2108.77 717.859 2096.43 705.514 2096.43 690.287Z" stroke="#E4E4E8" stroke-width="2" stroke-miterlimit="10" stroke-linecap="round" stroke-linejoin="round"/>
<path d="M1986.14 745.43C1986.14 730.203 1998.49 717.859 2013.71 717.859C2028.94 717.859 2041.29 730.203 2041.29 745.43C2041.29 760.658 2028.94 773 2013.71 773C1998.49 773 1986.14 760.658 1986.14 745.43V745.43Z" stroke="#E4E4E8" stroke-width="2" stroke-miterlimit="10" stroke-linecap="round" stroke-linejoin="round"/>
<path d="M2041.29 745.43C2041.29 760.658 2053.57 773 2068.72 773H2151.64L2124.2 745.43L2151.64 717.859H2068.72C2053.57 717.859 2041.29 730.203 2041.29 745.43V745.43Z" stroke="#E4E4E8" stroke-width="2" stroke-miterlimit="10" stroke-linecap="round" stroke-linejoin="round"/>
<path d="M1545 56.1438L1572.57 28.5722L1545 1.00062H1627.71C1642.94 1.00062 1655.29 13.3449 1655.29 28.5722C1655.29 43.7995 1642.94 56.1438 1627.71 56.1438H1545Z" stroke="#E4E4E8" stroke-width="2" stroke-miterlimit="10" stroke-linecap="round" stroke-linejoin="round"/>
<path d="M1875.86 1.00004L1903.43 28.5716L1931 1.00004V83.7148C1931 98.9421 1918.66 111.286 1903.43 111.286C1888.2 111.286 1875.86 98.9421 1875.86 83.7148V1.00004Z" stroke="#E4E4E8" stroke-width="2" stroke-miterlimit="10" stroke-linecap="round" stroke-linejoin="round"/>
<path d="M1710.43 331.858L1682.86 304.286L1655.29 331.858V249.144C1655.29 233.916 1667.63 221.572 1682.86 221.572C1698.08 221.572 1710.43 233.916 1710.43 249.144V331.858Z" stroke="#E4E4E8" stroke-width="2" stroke-miterlimit="10" stroke-linecap="round" stroke-linejoin="round"/>
<path d="M1931 331.858L1903.43 359.43L1931 386.999H1848.29C1833.06 386.999 1820.71 374.657 1820.71 359.43C1820.71 344.202 1833.06 331.858 1848.29 331.858H1931Z" stroke="#E4E4E8" stroke-width="2" stroke-miterlimit="10" stroke-linecap="round" stroke-linejoin="round"/>
<path d="M1820.71 166.429L1848.29 194.001L1875.86 166.429V249.144C1875.86 264.371 1863.51 276.716 1848.29 276.716C1833.06 276.716 1820.71 264.371 1820.71 249.144V166.429Z" stroke="#E4E4E8" stroke-width="2" stroke-miterlimit="10" stroke-linecap="round" stroke-linejoin="round"/>
<path d="M1875.86 111.286L1848.29 83.7148L1820.71 111.286V56.1432H1875.86V111.286Z" stroke="#E4E4E8" stroke-width="2" stroke-miterlimit="10" stroke-linecap="round" stroke-linejoin="round"/>
<path d="M1931 221.572L1903.43 249.144L1931 276.716H1875.86V221.572H1931Z" stroke="#E4E4E8" stroke-width="2" stroke-miterlimit="10" stroke-linecap="round" stroke-linejoin="round"/>
<path d="M1710.43 276.716L1738 249.144L1710.43 221.572H1765.57V276.716H1710.43Z" stroke="#E4E4E8" stroke-width="2" stroke-miterlimit="10" stroke-linecap="round" stroke-linejoin="round"/>
<path d="M1545 166.429L1572.57 194.001L1600.14 166.429V359.43C1600.14 374.657 1587.8 386.999 1572.57 386.999C1557.34 386.999 1545 374.657 1545 359.43V166.429Z" stroke="#E4E4E8" stroke-width="2" stroke-miterlimit="10" stroke-linecap="round" stroke-linejoin="round"/>
<path d="M1710.43 166.429L1682.86 138.858L1655.29 166.429V111.286H1710.43V166.429Z" stroke="#E4E4E8" stroke-width="2" stroke-miterlimit="10" stroke-linecap="round" stroke-linejoin="round"/>
<path d="M1710.43 83.7148C1710.43 68.4875 1698.08 56.1432 1682.86 56.1432H1627.8C1612.57 56.1432 1600.22 68.4875 1600.22 83.7148C1600.22 98.9421 1612.57 111.286 1627.8 111.286H1682.86C1698.08 111.286 1710.43 98.9421 1710.43 83.7148Z" stroke="#E4E4E8" stroke-width="2" stroke-miterlimit="10" stroke-linecap="round" stroke-linejoin="round"/>
<path d="M1738 56.2245C1722.77 56.2245 1710.43 68.5688 1710.43 83.7961V138.857C1710.43 154.085 1722.77 166.429 1738 166.429C1753.23 166.429 1765.57 154.085 1765.57 138.857V83.7961C1765.57 68.5688 1753.23 56.2245 1738 56.2245Z" stroke="#E4E4E8" stroke-width="2" stroke-miterlimit="10" stroke-linecap="round" stroke-linejoin="round"/>
<path d="M1820.71 304.286C1820.71 319.514 1833.06 331.858 1848.29 331.858H1903.35C1918.58 331.858 1930.92 319.514 1930.92 304.286C1930.92 289.059 1918.58 276.715 1903.35 276.715H1848.29C1833.06 276.715 1820.71 289.059 1820.71 304.286Z" stroke="#E4E4E8" stroke-width="2" stroke-miterlimit="10" stroke-linecap="round" stroke-linejoin="round"/>
<path d="M1545 138.857C1545 154.085 1557.34 166.429 1572.57 166.429H1627.63C1642.86 166.429 1655.2 154.085 1655.2 138.857C1655.2 123.63 1642.86 111.286 1627.63 111.286H1572.57C1557.34 111.286 1545 123.63 1545 138.857V138.857Z" stroke="#E4E4E8" stroke-width="2" stroke-miterlimit="10" stroke-linecap="round" stroke-linejoin="round"/>
<path d="M1627.71 221.572C1612.49 221.572 1600.14 233.917 1600.14 249.144V304.205C1600.14 319.433 1612.49 331.777 1627.71 331.777C1642.94 331.777 1655.29 319.433 1655.29 304.205V249.144C1655.29 233.917 1642.94 221.572 1627.71 221.572Z" stroke="#E4E4E8" stroke-width="2" stroke-miterlimit="10" stroke-linecap="round" stroke-linejoin="round"/>
<path d="M1793.14 138.858L1773.65 158.354L1765.57 166.429H1793.14C1793.14 166.429 1793.14 166.429 1793.14 166.429H1903.43C1918.66 166.429 1931 154.085 1931 138.858C1931 123.631 1918.66 111.286 1903.43 111.286H1765.57L1773.65 119.362L1793.14 138.858Z" stroke="#E4E4E8" stroke-width="2" stroke-miterlimit="10" stroke-linecap="round" stroke-linejoin="round"/>
<path d="M1738 166.429H1627.71C1627.71 166.429 1627.71 166.429 1627.71 166.429H1600.14L1608.22 174.505L1627.71 194.001L1608.22 213.497L1600.14 221.572H1738C1753.23 221.572 1765.57 209.228 1765.57 194.001C1765.57 178.773 1753.23 166.429 1738 166.429V166.429Z" stroke="#E4E4E8" stroke-width="2" stroke-miterlimit="10" stroke-linecap="round" stroke-linejoin="round"/>
<path d="M1793.14 221.572C1777.92 221.572 1765.57 233.917 1765.57 249.144V386.999L1773.65 378.926L1793.14 359.43L1812.64 378.926L1820.71 386.999V249.144C1820.71 233.917 1808.37 221.572 1793.14 221.572Z" stroke="#E4E4E8" stroke-width="2" stroke-miterlimit="10" stroke-linecap="round" stroke-linejoin="round"/>
<path d="M1710.43 28.5728C1710.43 43.7995 1722.77 56.1438 1738 56.1438H1875.86L1867.78 48.0687L1848.29 28.5722L1867.78 9.0763L1875.86 1.00062H1738C1722.77 1.00062 1710.43 13.3449 1710.43 28.5728V28.5728Z" stroke="#E4E4E8" stroke-width="2" stroke-miterlimit="10" stroke-linecap="round" stroke-linejoin="round"/>
<path d="M1545 83.7148C1545 68.4875 1557.34 56.1432 1572.57 56.1432C1587.8 56.1432 1600.14 68.4875 1600.14 83.7148C1600.14 98.9421 1587.8 111.286 1572.57 111.286C1557.34 111.286 1545 98.9421 1545 83.7148Z" stroke="#E4E4E8" stroke-width="2" stroke-miterlimit="10" stroke-linecap="round" stroke-linejoin="round"/>
<path d="M1655.29 28.5722C1655.29 13.3449 1667.63 1.00062 1682.86 1.00062C1698.08 1.00062 1710.43 13.3449 1710.43 28.5722C1710.43 43.7995 1698.08 56.1438 1682.86 56.1438C1667.63 56.1438 1655.29 43.7995 1655.29 28.5722Z" stroke="#E4E4E8" stroke-width="2" stroke-miterlimit="10" stroke-linecap="round" stroke-linejoin="round"/>
<path d="M1765.57 83.7148C1765.57 68.4875 1777.92 56.1432 1793.14 56.1432C1808.37 56.1432 1820.71 68.4875 1820.71 83.7148C1820.71 98.9421 1808.37 111.286 1793.14 111.286C1777.92 111.286 1765.57 98.9421 1765.57 83.7148Z" stroke="#E4E4E8" stroke-width="2" stroke-miterlimit="10" stroke-linecap="round" stroke-linejoin="round"/>
<path d="M1875.86 194.001C1875.86 178.773 1888.2 166.429 1903.43 166.429C1918.66 166.429 1931 178.773 1931 194.001C1931 209.228 1918.66 221.572 1903.43 221.572C1888.2 221.572 1875.86 209.228 1875.86 194.001Z" stroke="#E4E4E8" stroke-width="2" stroke-miterlimit="10" stroke-linecap="round" stroke-linejoin="round"/>
<path d="M1765.57 194.001C1765.57 178.773 1777.92 166.429 1793.14 166.429C1808.37 166.429 1820.71 178.773 1820.71 194.001C1820.71 209.228 1808.37 221.572 1793.14 221.572C1777.92 221.572 1765.57 209.228 1765.57 194.001Z" stroke="#E4E4E8" stroke-width="2" stroke-miterlimit="10" stroke-linecap="round" stroke-linejoin="round"/>
<path d="M1710.43 304.286C1710.43 289.06 1722.77 276.715 1738 276.715C1753.23 276.715 1765.57 289.06 1765.57 304.286C1765.57 319.514 1753.23 331.858 1738 331.858C1722.77 331.858 1710.43 319.514 1710.43 304.286Z" stroke="#E4E4E8" stroke-width="2" stroke-miterlimit="10" stroke-linecap="round" stroke-linejoin="round"/>
<path d="M1600.14 359.43C1600.14 344.202 1612.49 331.858 1627.71 331.858C1642.94 331.858 1655.29 344.202 1655.29 359.43C1655.29 374.657 1642.94 386.999 1627.71 386.999C1612.49 386.999 1600.14 374.657 1600.14 359.43V359.43Z" stroke="#E4E4E8" stroke-width="2" stroke-miterlimit="10" stroke-linecap="round" stroke-linejoin="round"/>
<path d="M1655.29 359.43C1655.29 374.657 1667.57 386.999 1682.72 386.999H1765.64L1738.2 359.43L1765.64 331.858H1682.72C1667.57 331.858 1655.29 344.202 1655.29 359.43V359.43Z" stroke="#E4E4E8" stroke-width="2" stroke-miterlimit="10" stroke-linecap="round" stroke-linejoin="round"/>
<path d="M1545 442.145L1572.57 414.573L1545 387.001H1627.71C1642.94 387.001 1655.29 399.346 1655.29 414.573C1655.29 429.8 1642.94 442.145 1627.71 442.145H1545Z" stroke="#E4E4E8" stroke-width="2" stroke-miterlimit="10" stroke-linecap="round" stroke-linejoin="round"/>
<path d="M1875.86 387.001L1903.43 414.572L1931 387.001V469.716C1931 484.943 1918.66 497.287 1903.43 497.287C1888.2 497.287 1875.86 484.943 1875.86 469.716V387.001Z" stroke="#E4E4E8" stroke-width="2" stroke-miterlimit="10" stroke-linecap="round" stroke-linejoin="round"/>
<path d="M1710.43 717.859L1682.86 690.287L1655.29 717.859V635.145C1655.29 619.917 1667.63 607.573 1682.86 607.573C1698.08 607.573 1710.43 619.917 1710.43 635.145V717.859Z" stroke="#E4E4E8" stroke-width="2" stroke-miterlimit="10" stroke-linecap="round" stroke-linejoin="round"/>
<path d="M1931 717.859L1903.43 745.43L1931 773H1848.29C1833.06 773 1820.71 760.658 1820.71 745.43C1820.71 730.203 1833.06 717.859 1848.29 717.859H1931Z" stroke="#E4E4E8" stroke-width="2" stroke-miterlimit="10" stroke-linecap="round" stroke-linejoin="round"/>
<path d="M1820.71 552.43L1848.29 580.002L1875.86 552.43V635.145C1875.86 650.372 1863.51 662.716 1848.29 662.716C1833.06 662.716 1820.71 650.372 1820.71 635.145V552.43Z" stroke="#E4E4E8" stroke-width="2" stroke-miterlimit="10" stroke-linecap="round" stroke-linejoin="round"/>
<path d="M1875.86 497.287L1848.29 469.716L1820.71 497.287V442.144H1875.86V497.287Z" stroke="#E4E4E8" stroke-width="2" stroke-miterlimit="10" stroke-linecap="round" stroke-linejoin="round"/>
<path d="M1931 607.573L1903.43 635.145L1931 662.716H1875.86V607.573H1931Z" stroke="#E4E4E8" stroke-width="2" stroke-miterlimit="10" stroke-linecap="round" stroke-linejoin="round"/>
<path d="M1710.43 662.716L1738 635.145L1710.43 607.573H1765.57V662.716H1710.43Z" stroke="#E4E4E8" stroke-width="2" stroke-miterlimit="10" stroke-linecap="round" stroke-linejoin="round"/>
<path d="M1545 552.43L1572.57 580.002L1600.14 552.43V745.43C1600.14 760.658 1587.8 773 1572.57 773C1557.34 773 1545 760.658 1545 745.43V552.43Z" stroke="#E4E4E8" stroke-width="2" stroke-miterlimit="10" stroke-linecap="round" stroke-linejoin="round"/>
<path d="M1710.43 552.43L1682.86 524.859L1655.29 552.43V497.287H1710.43V552.43Z" stroke="#E4E4E8" stroke-width="2" stroke-miterlimit="10" stroke-linecap="round" stroke-linejoin="round"/>
<path d="M1710.43 469.716C1710.43 454.488 1698.08 442.144 1682.86 442.144H1627.8C1612.57 442.144 1600.22 454.488 1600.22 469.716C1600.22 484.943 1612.57 497.287 1627.8 497.287H1682.86C1698.08 497.287 1710.43 484.943 1710.43 469.716Z" stroke="#E4E4E8" stroke-width="2" stroke-miterlimit="10" stroke-linecap="round" stroke-linejoin="round"/>
<path d="M1738 442.225C1722.77 442.225 1710.43 454.57 1710.43 469.797V524.858C1710.43 540.085 1722.77 552.43 1738 552.43C1753.23 552.43 1765.57 540.085 1765.57 524.858V469.797C1765.57 454.57 1753.23 442.225 1738 442.225Z" stroke="#E4E4E8" stroke-width="2" stroke-miterlimit="10" stroke-linecap="round" stroke-linejoin="round"/>
<path d="M1820.71 690.287C1820.71 705.514 1833.06 717.859 1848.29 717.859H1903.35C1918.58 717.859 1930.92 705.514 1930.92 690.287C1930.92 675.06 1918.58 662.716 1903.35 662.716H1848.29C1833.06 662.716 1820.71 675.06 1820.71 690.287Z" stroke="#E4E4E8" stroke-width="2" stroke-miterlimit="10" stroke-linecap="round" stroke-linejoin="round"/>
<path d="M1545 524.858C1545 540.085 1557.34 552.43 1572.57 552.43H1627.63C1642.86 552.43 1655.2 540.085 1655.2 524.858C1655.2 509.631 1642.86 497.287 1627.63 497.287H1572.57C1557.34 497.287 1545 509.631 1545 524.858V524.858Z" stroke="#E4E4E8" stroke-width="2" stroke-miterlimit="10" stroke-linecap="round" stroke-linejoin="round"/>
<path d="M1627.71 607.573C1612.49 607.573 1600.14 619.917 1600.14 635.145V690.206C1600.14 705.433 1612.49 717.777 1627.71 717.777C1642.94 717.777 1655.29 705.433 1655.29 690.206V635.145C1655.29 619.917 1642.94 607.573 1627.71 607.573Z" stroke="#E4E4E8" stroke-width="2" stroke-miterlimit="10" stroke-linecap="round" stroke-linejoin="round"/>
<path d="M1793.14 524.859L1773.65 544.355L1765.57 552.43H1793.14C1793.14 552.43 1793.14 552.43 1793.14 552.43H1903.43C1918.66 552.43 1931 540.085 1931 524.859C1931 509.631 1918.66 497.287 1903.43 497.287H1765.57L1773.65 505.363L1793.14 524.859Z" stroke="#E4E4E8" stroke-width="2" stroke-miterlimit="10" stroke-linecap="round" stroke-linejoin="round"/>
<path d="M1738 552.43H1627.71C1627.71 552.43 1627.71 552.43 1627.71 552.43H1600.14L1608.22 560.506L1627.71 580.001L1608.22 599.497L1600.14 607.573H1738C1753.23 607.573 1765.57 595.229 1765.57 580.001C1765.57 564.774 1753.23 552.43 1738 552.43V552.43Z" stroke="#E4E4E8" stroke-width="2" stroke-miterlimit="10" stroke-linecap="round" stroke-linejoin="round"/>
<path d="M1793.14 607.573C1777.92 607.573 1765.57 619.917 1765.57 635.145V773L1773.65 764.927L1793.14 745.43L1812.64 764.927L1820.71 773V635.145C1820.71 619.917 1808.37 607.573 1793.14 607.573Z" stroke="#E4E4E8" stroke-width="2" stroke-miterlimit="10" stroke-linecap="round" stroke-linejoin="round"/>
<path d="M1710.43 414.574C1710.43 429.8 1722.77 442.145 1738 442.145H1875.86L1867.78 434.069L1848.29 414.573L1867.78 395.077L1875.86 387.001H1738C1722.77 387.001 1710.43 399.346 1710.43 414.574V414.574Z" stroke="#E4E4E8" stroke-width="2" stroke-miterlimit="10" stroke-linecap="round" stroke-linejoin="round"/>
<path d="M1545 469.716C1545 454.488 1557.34 442.144 1572.57 442.144C1587.8 442.144 1600.14 454.488 1600.14 469.716C1600.14 484.943 1587.8 497.287 1572.57 497.287C1557.34 497.287 1545 484.943 1545 469.716Z" stroke="#E4E4E8" stroke-width="2" stroke-miterlimit="10" stroke-linecap="round" stroke-linejoin="round"/>
<path d="M1655.29 414.573C1655.29 399.346 1667.63 387.001 1682.86 387.001C1698.08 387.001 1710.43 399.346 1710.43 414.573C1710.43 429.8 1698.08 442.145 1682.86 442.145C1667.63 442.145 1655.29 429.8 1655.29 414.573Z" stroke="#E4E4E8" stroke-width="2" stroke-miterlimit="10" stroke-linecap="round" stroke-linejoin="round"/>
<path d="M1765.57 469.716C1765.57 454.488 1777.92 442.144 1793.14 442.144C1808.37 442.144 1820.71 454.488 1820.71 469.716C1820.71 484.943 1808.37 497.287 1793.14 497.287C1777.92 497.287 1765.57 484.943 1765.57 469.716Z" stroke="#E4E4E8" stroke-width="2" stroke-miterlimit="10" stroke-linecap="round" stroke-linejoin="round"/>
<path d="M1875.86 580.001C1875.86 564.774 1888.2 552.43 1903.43 552.43C1918.66 552.43 1931 564.774 1931 580.001C1931 595.229 1918.66 607.573 1903.43 607.573C1888.2 607.573 1875.86 595.229 1875.86 580.001Z" stroke="#E4E4E8" stroke-width="2" stroke-miterlimit="10" stroke-linecap="round" stroke-linejoin="round"/>
<path d="M1765.57 580.001C1765.57 564.774 1777.92 552.43 1793.14 552.43C1808.37 552.43 1820.71 564.774 1820.71 580.001C1820.71 595.229 1808.37 607.573 1793.14 607.573C1777.92 607.573 1765.57 595.229 1765.57 580.001Z" stroke="#E4E4E8" stroke-width="2" stroke-miterlimit="10" stroke-linecap="round" stroke-linejoin="round"/>
<path d="M1710.43 690.287C1710.43 675.06 1722.77 662.716 1738 662.716C1753.23 662.716 1765.57 675.06 1765.57 690.287C1765.57 705.514 1753.23 717.859 1738 717.859C1722.77 717.859 1710.43 705.514 1710.43 690.287Z" stroke="#E4E4E8" stroke-width="2" stroke-miterlimit="10" stroke-linecap="round" stroke-linejoin="round"/>
<path d="M1600.14 745.43C1600.14 730.203 1612.49 717.859 1627.71 717.859C1642.94 717.859 1655.29 730.203 1655.29 745.43C1655.29 760.658 1642.94 773 1627.71 773C1612.49 773 1600.14 760.658 1600.14 745.43V745.43Z" stroke="#E4E4E8" stroke-width="2" stroke-miterlimit="10" stroke-linecap="round" stroke-linejoin="round"/>
<path d="M1655.29 745.43C1655.29 760.658 1667.57 773 1682.72 773H1765.64L1738.2 745.43L1765.64 717.859H1682.72C1667.57 717.859 1655.29 730.203 1655.29 745.43V745.43Z" stroke="#E4E4E8" stroke-width="2" stroke-miterlimit="10" stroke-linecap="round" stroke-linejoin="round"/>
</g>
</svg>
