<svg width="632" height="459" viewBox="0 0 632 459" fill="none" xmlns="http://www.w3.org/2000/svg">
<g clip-path="url(#clip0)">
<path opacity="0.03" fill-rule="evenodd" clip-rule="evenodd" d="M177 110.769C177 142.371 151.258 168 119.5 168C87.746 168 62 142.371 62 110.769C62 109.479 62.0533 108.207 62.1344 106.946L96.947 126.881L170.687 84.656C174.722 92.4851 177 101.359 177 110.769ZM96.947 112.476L64.5358 93.921C63.9 95.9779 63.381 98.0787 62.9801 100.232L96.947 119.68L167.521 79.2726C166.356 77.5256 165.104 75.8369 163.76 74.2209L96.947 112.476ZM159.382 69.5353C157.783 68.0034 156.096 66.5623 154.333 65.2239L96.947 98.0787L69.5533 82.3916C68.5196 84.1945 67.5797 86.0593 66.7409 87.9867L96.947 105.273L159.382 69.5353ZM96.947 90.8796L148.528 61.3522C146.371 60.0958 144.132 58.9744 141.808 58L96.947 83.6815L76.9716 72.2441C75.5463 73.7998 74.2115 75.445 72.9635 77.1467L96.947 90.8796ZM210.426 269.24C210.304 269.369 210.205 269.524 210.205 269.585C210.205 269.646 210.072 269.818 209.909 269.968C209.747 270.119 209.614 270.294 209.614 270.358C209.614 270.422 209.481 270.598 209.318 270.748C209.156 270.898 209.023 271.074 209.023 271.138C209.023 271.202 208.89 271.377 208.728 271.528C208.565 271.678 208.432 271.853 208.432 271.917C208.432 271.982 208.299 272.157 208.137 272.307C207.974 272.457 207.841 272.641 207.841 272.714C207.841 272.788 207.753 272.912 207.645 272.989C207.536 273.066 207.448 273.198 207.448 273.282C207.448 273.365 207.359 273.497 207.251 273.574C207.142 273.651 207.054 273.775 207.054 273.849C207.054 273.922 206.921 274.106 206.758 274.256C206.596 274.406 206.463 274.589 206.463 274.663C206.463 274.737 206.374 274.861 206.266 274.938C206.158 275.015 206.069 275.156 206.069 275.252C206.069 275.347 206.025 275.425 205.971 275.425C205.916 275.425 205.872 275.503 205.872 275.599C205.872 275.694 205.784 275.835 205.675 275.912C205.567 275.99 205.478 276.121 205.478 276.205C205.478 276.288 205.39 276.42 205.281 276.497C205.173 276.574 205.084 276.706 205.084 276.789C205.084 276.873 204.996 277.004 204.887 277.082C204.779 277.159 204.691 277.3 204.691 277.396C204.691 277.491 204.646 277.569 204.592 277.569C204.538 277.569 204.494 277.647 204.494 277.742C204.494 277.838 204.405 277.979 204.297 278.056C204.188 278.133 204.1 278.275 204.1 278.37C204.1 278.465 204.055 278.543 204.001 278.543C203.947 278.543 203.903 278.631 203.903 278.738C203.903 278.845 203.859 278.933 203.804 278.933C203.75 278.933 203.706 279.011 203.706 279.107C203.706 279.202 203.617 279.343 203.509 279.42C203.401 279.498 203.312 279.639 203.312 279.734C203.312 279.83 203.268 279.908 203.214 279.908C203.159 279.908 203.115 279.995 203.115 280.102C203.115 280.21 203.071 280.297 203.017 280.297C202.962 280.297 202.918 280.385 202.918 280.492C202.918 280.599 202.874 280.687 202.82 280.687C202.766 280.687 202.721 280.765 202.721 280.86C202.721 280.956 202.633 281.097 202.524 281.174C202.416 281.252 202.327 281.393 202.327 281.488C202.327 281.583 202.283 281.662 202.229 281.662C202.175 281.662 202.13 281.749 202.13 281.856C202.13 281.964 202.086 282.051 202.032 282.051C201.978 282.051 201.934 282.139 201.934 282.246C201.934 282.353 201.889 282.441 201.835 282.441C201.781 282.441 201.737 282.529 201.737 282.636C201.737 282.743 201.692 282.831 201.638 282.831C201.584 282.831 201.54 282.919 201.54 283.026C201.54 283.133 201.495 283.221 201.441 283.221C201.387 283.221 201.343 283.308 201.343 283.416C201.343 283.523 201.298 283.61 201.244 283.61C201.19 283.61 201.146 283.698 201.146 283.805C201.146 283.912 201.101 284 201.047 284C200.993 284 200.949 284.132 200.949 284.292C200.949 284.453 200.905 284.585 200.85 284.585C200.796 284.585 200.752 284.673 200.752 284.78C200.752 284.887 200.708 284.975 200.653 284.975C200.599 284.975 200.555 285.062 200.555 285.169C200.555 285.277 200.511 285.364 200.457 285.364C200.402 285.364 200.358 285.452 200.358 285.559C200.358 285.666 200.314 285.754 200.26 285.754C200.205 285.754 200.161 285.886 200.161 286.046C200.161 286.207 200.117 286.339 200.063 286.339C200.008 286.339 199.964 286.426 199.964 286.534C199.964 286.641 199.92 286.729 199.866 286.729C199.812 286.729 199.767 286.816 199.767 286.923C199.767 287.031 199.723 287.118 199.669 287.118C199.615 287.118 199.57 287.25 199.57 287.411C199.57 287.571 199.526 287.703 199.472 287.703C199.418 287.703 199.373 287.791 199.373 287.898C199.373 288.005 199.329 288.093 199.275 288.093C199.221 288.093 199.176 288.224 199.176 288.385C199.176 288.546 199.132 288.677 199.078 288.677C199.024 288.677 198.98 288.809 198.98 288.97C198.98 289.13 198.935 289.262 198.881 289.262C198.827 289.262 198.783 289.35 198.783 289.457C198.783 289.626 198.848 289.652 199.275 289.652C199.546 289.652 199.767 289.608 199.767 289.554C199.767 289.5 200.03 289.457 200.358 289.457C200.686 289.457 200.949 289.414 200.949 289.359C200.949 289.305 201.211 289.262 201.54 289.262C201.868 289.262 202.13 289.219 202.13 289.165C202.13 289.109 202.426 289.067 202.82 289.067C203.214 289.067 203.509 289.025 203.509 288.97C203.509 288.913 203.837 288.872 204.297 288.872C204.756 288.872 205.084 288.832 205.084 288.775C205.084 288.715 205.61 288.677 206.463 288.677C207.316 288.677 207.841 288.64 207.841 288.58C207.841 288.518 208.728 288.483 210.303 288.483C211.879 288.483 212.765 288.518 212.765 288.58C212.765 288.64 213.257 288.677 214.045 288.677C214.832 288.677 215.325 288.715 215.325 288.775C215.325 288.833 215.686 288.872 216.211 288.872C216.736 288.872 217.097 288.912 217.097 288.97C217.097 289.025 217.393 289.067 217.786 289.067C218.18 289.067 218.476 289.109 218.476 289.165C218.476 289.219 218.738 289.262 219.066 289.262C219.395 289.262 219.657 289.305 219.657 289.359C219.657 289.414 219.92 289.457 220.248 289.457C220.576 289.457 220.839 289.5 220.839 289.554C220.839 289.608 221.06 289.652 221.331 289.652C221.602 289.652 221.824 289.696 221.824 289.749C221.824 289.803 222.001 289.847 222.217 289.847C222.434 289.847 222.611 289.891 222.611 289.944C222.611 289.998 222.788 290.042 223.005 290.042C223.222 290.042 223.399 290.085 223.399 290.139C223.399 290.193 223.576 290.236 223.793 290.236C224.009 290.236 224.187 290.28 224.187 290.334C224.187 290.388 224.364 290.431 224.581 290.431C224.797 290.431 224.974 290.475 224.974 290.529C224.974 290.582 225.107 290.626 225.27 290.626C225.432 290.626 225.565 290.67 225.565 290.724C225.565 290.777 225.742 290.821 225.959 290.821C226.176 290.821 226.353 290.865 226.353 290.919C226.353 290.972 226.486 291.016 226.648 291.016C226.811 291.016 226.944 291.06 226.944 291.113C226.944 291.167 227.077 291.211 227.239 291.211C227.402 291.211 227.535 291.255 227.535 291.308C227.535 291.362 227.667 291.406 227.83 291.406C227.992 291.406 228.125 291.45 228.125 291.503C228.125 291.557 228.258 291.601 228.421 291.601C228.583 291.601 228.716 291.645 228.716 291.698C228.716 291.752 228.849 291.796 229.012 291.796C229.174 291.796 229.307 291.839 229.307 291.893C229.307 291.947 229.44 291.99 229.602 291.99C229.765 291.99 229.898 292.034 229.898 292.088C229.898 292.141 229.986 292.185 230.095 292.185C230.203 292.185 230.292 292.229 230.292 292.283C230.292 292.336 230.424 292.38 230.587 292.38C230.749 292.38 230.882 292.424 230.882 292.478C230.882 292.531 230.971 292.575 231.079 292.575C231.188 292.575 231.276 292.619 231.276 292.673C231.276 292.726 231.409 292.77 231.572 292.77C231.734 292.77 231.867 292.814 231.867 292.867C231.867 292.921 231.956 292.965 232.064 292.965C232.172 292.965 232.261 293.009 232.261 293.062C232.261 293.116 232.394 293.16 232.556 293.16C232.719 293.16 232.852 293.204 232.852 293.257C232.852 293.311 232.94 293.355 233.049 293.355C233.157 293.355 233.246 293.398 233.246 293.452C233.246 293.506 233.334 293.549 233.442 293.549C233.551 293.549 233.639 293.593 233.639 293.647C233.639 293.701 233.772 293.744 233.935 293.744C234.097 293.744 234.23 293.788 234.23 293.842C234.23 293.895 234.319 293.939 234.427 293.939C234.535 293.939 234.624 293.983 234.624 294.037C234.624 294.09 234.713 294.134 234.821 294.134C234.929 294.134 235.018 294.178 235.018 294.232C235.018 294.285 235.107 294.329 235.215 294.329C235.323 294.329 235.412 294.373 235.412 294.426C235.412 294.48 235.5 294.524 235.609 294.524C235.717 294.524 235.806 294.568 235.806 294.621C235.806 294.675 235.894 294.719 236.003 294.719C236.111 294.719 236.199 294.763 236.199 294.816C236.199 294.87 236.288 294.914 236.396 294.914C236.505 294.914 236.593 294.958 236.593 295.011C236.593 295.065 236.682 295.109 236.79 295.109C236.899 295.109 236.987 295.152 236.987 295.206C236.987 295.26 237.072 295.303 237.176 295.303C237.28 295.303 237.384 295.358 237.409 295.425C237.433 295.492 237.485 295.518 237.524 295.482C237.614 295.399 210.937 268.992 210.771 269C210.703 269.003 210.548 269.111 210.426 269.24ZM186.499 292.145C178.525 300.045 172 306.556 172 306.614C172 306.753 172.252 306.997 172.397 306.997C172.46 306.997 172.636 307.128 172.788 307.289C172.939 307.45 173.117 307.581 173.182 307.581C173.246 307.581 173.424 307.713 173.575 307.874C173.727 308.034 173.904 308.166 173.969 308.166C174.034 308.166 174.211 308.297 174.363 308.458C174.515 308.619 174.7 308.751 174.775 308.751C174.849 308.751 174.974 308.838 175.052 308.945C175.131 309.053 175.255 309.14 175.33 309.14C175.405 309.14 175.59 309.272 175.742 309.433C175.893 309.593 176.079 309.725 176.153 309.725C176.228 309.725 176.353 309.813 176.431 309.92C176.509 310.027 176.642 310.115 176.726 310.115C176.811 310.115 176.944 310.202 177.022 310.31C177.1 310.417 177.233 310.504 177.317 310.504C177.402 310.504 177.534 310.592 177.613 310.699C177.691 310.807 177.824 310.894 177.908 310.894C177.992 310.894 178.125 310.982 178.203 311.089C178.281 311.196 178.414 311.284 178.499 311.284C178.583 311.284 178.716 311.372 178.794 311.479C178.872 311.586 179.015 311.674 179.111 311.674C179.208 311.674 179.286 311.718 179.286 311.771C179.286 311.825 179.365 311.869 179.462 311.869C179.558 311.869 179.701 311.956 179.779 312.064C179.857 312.171 179.99 312.258 180.074 312.258C180.159 312.258 180.291 312.346 180.37 312.453C180.448 312.56 180.59 312.648 180.687 312.648C180.783 312.648 180.862 312.692 180.862 312.746C180.862 312.799 180.951 312.843 181.059 312.843C181.167 312.843 181.256 312.887 181.256 312.941C181.256 312.994 181.335 313.038 181.431 313.038C181.527 313.038 181.67 313.126 181.748 313.233C181.826 313.34 181.969 313.428 182.065 313.428C182.162 313.428 182.24 313.472 182.24 313.525C182.24 313.579 182.329 313.623 182.437 313.623C182.546 313.623 182.634 313.666 182.634 313.72C182.634 313.774 182.713 313.818 182.809 313.818C182.906 313.818 183.049 313.905 183.127 314.012C183.205 314.12 183.347 314.207 183.444 314.207C183.54 314.207 183.619 314.251 183.619 314.305C183.619 314.358 183.708 314.402 183.816 314.402C183.924 314.402 184.013 314.446 184.013 314.5C184.013 314.553 184.101 314.597 184.21 314.597C184.318 314.597 184.407 314.641 184.407 314.694C184.407 314.748 184.495 314.792 184.604 314.792C184.712 314.792 184.801 314.836 184.801 314.889C184.801 314.943 184.889 314.987 184.997 314.987C185.106 314.987 185.194 315.031 185.194 315.084C185.194 315.138 185.283 315.182 185.391 315.182C185.5 315.182 185.588 315.226 185.588 315.279C185.588 315.333 185.677 315.377 185.785 315.377C185.893 315.377 185.982 315.42 185.982 315.474C185.982 315.528 186.071 315.571 186.179 315.571C186.287 315.571 186.376 315.615 186.376 315.669C186.376 315.723 186.465 315.766 186.573 315.766C186.681 315.766 186.77 315.81 186.77 315.864C186.77 315.917 186.858 315.961 186.967 315.961C187.075 315.961 187.164 316.005 187.164 316.059C187.164 316.112 187.252 316.156 187.361 316.156C187.469 316.156 187.558 316.2 187.558 316.254C187.558 316.307 187.69 316.351 187.853 316.351C188.015 316.351 188.148 316.395 188.148 316.448C188.148 316.502 188.237 316.546 188.345 316.546C188.454 316.546 188.542 316.59 188.542 316.643C188.542 316.697 188.631 316.741 188.739 316.741C188.847 316.741 188.936 316.785 188.936 316.838C188.936 316.892 189.069 316.936 189.231 316.936C189.394 316.936 189.527 316.979 189.527 317.033C189.527 317.087 189.615 317.131 189.724 317.131C189.832 317.131 189.921 317.174 189.921 317.228C189.921 317.282 190.009 317.325 190.118 317.325C190.226 317.325 190.315 317.369 190.315 317.423C190.315 317.476 190.448 317.52 190.61 317.52C190.772 317.52 190.905 317.564 190.905 317.618C190.905 317.671 190.994 317.715 191.102 317.715C191.211 317.715 191.299 317.759 191.299 317.813C191.299 317.866 191.432 317.91 191.595 317.91C191.757 317.91 191.89 317.954 191.89 318.008C191.89 318.061 192.023 318.105 192.185 318.105C192.348 318.105 192.481 318.149 192.481 318.202C192.481 318.256 192.614 318.3 192.776 318.3C192.939 318.3 193.072 318.344 193.072 318.397C193.072 318.451 193.205 318.495 193.367 318.495C193.646 318.495 193.662 318.473 193.662 318.105C193.662 317.891 193.618 317.715 193.564 317.715C193.509 317.715 193.465 317.455 193.465 317.131C193.465 316.806 193.422 316.546 193.367 316.546C193.312 316.546 193.269 316.286 193.269 315.961C193.269 315.636 193.225 315.377 193.17 315.377C193.113 315.377 193.072 315.052 193.072 314.597C193.072 314.142 193.031 313.818 192.973 313.818C192.914 313.818 192.875 313.428 192.875 312.843C192.875 312.258 192.835 311.869 192.776 311.869C192.712 311.869 192.678 310.375 192.678 307.581C192.678 304.788 192.712 303.294 192.776 303.294C192.835 303.294 192.875 302.904 192.875 302.319C192.875 301.735 192.914 301.345 192.973 301.345C193.031 301.345 193.072 301.02 193.072 300.565C193.072 300.111 193.113 299.786 193.17 299.786C193.225 299.786 193.269 299.526 193.269 299.201C193.269 298.876 193.312 298.617 193.367 298.617C193.422 298.617 193.465 298.357 193.465 298.032C193.465 297.707 193.509 297.447 193.564 297.447C193.618 297.447 193.662 297.228 193.662 296.96C193.662 296.692 193.707 296.473 193.761 296.473C193.815 296.473 193.859 296.297 193.859 296.083C193.859 295.869 193.904 295.693 193.958 295.693C194.012 295.693 194.056 295.518 194.056 295.303C194.056 295.089 194.101 294.914 194.155 294.914C194.209 294.914 194.253 294.738 194.253 294.524C194.253 294.31 194.298 294.134 194.352 294.134C194.406 294.134 194.45 293.959 194.45 293.744C194.45 293.53 194.494 293.355 194.549 293.355C194.603 293.355 194.647 293.179 194.647 292.965C194.647 292.75 194.691 292.575 194.746 292.575C194.8 292.575 194.844 292.444 194.844 292.283C194.844 292.122 194.888 291.99 194.942 291.99C194.997 291.99 195.041 291.859 195.041 291.698C195.041 291.537 195.085 291.406 195.139 291.406C195.194 291.406 195.238 291.23 195.238 291.016C195.238 290.802 195.282 290.626 195.336 290.626C195.39 290.626 195.435 290.495 195.435 290.334C195.435 290.173 195.479 290.042 195.533 290.042C195.587 290.042 195.632 289.91 195.632 289.749C195.632 289.588 195.676 289.457 195.73 289.457C195.784 289.457 195.829 289.325 195.829 289.165C195.829 289.004 195.873 288.872 195.927 288.872C195.981 288.872 196.026 288.785 196.026 288.677C196.026 288.57 196.07 288.483 196.124 288.483C196.178 288.483 196.223 288.351 196.223 288.19C196.223 288.029 196.267 287.898 196.321 287.898C196.375 287.898 196.419 287.766 196.419 287.606C196.419 287.445 196.464 287.313 196.518 287.313C196.572 287.313 196.616 287.226 196.616 287.118C196.616 287.011 196.661 286.923 196.715 286.923C196.769 286.923 196.813 286.792 196.813 286.631C196.813 286.47 196.858 286.339 196.912 286.339C196.966 286.339 197.01 286.251 197.01 286.144C197.01 286.037 197.055 285.949 197.109 285.949C197.163 285.949 197.207 285.817 197.207 285.657C197.207 285.496 197.251 285.364 197.306 285.364C197.36 285.364 197.404 285.277 197.404 285.169C197.404 285.062 197.448 284.975 197.503 284.975C197.557 284.975 197.601 284.887 197.601 284.78C197.601 284.673 197.645 284.585 197.699 284.585C197.754 284.585 197.798 284.497 197.798 284.39C197.798 284.283 197.842 284.195 197.896 284.195C197.951 284.195 197.995 284.064 197.995 283.903C197.995 283.742 198.039 283.61 198.093 283.61C198.148 283.61 198.192 283.523 198.192 283.416C198.192 283.308 198.236 283.221 198.29 283.221C198.344 283.221 198.389 283.133 198.389 283.026C198.389 282.919 198.433 282.831 198.487 282.831C198.541 282.831 198.586 282.743 198.586 282.636C198.586 282.529 198.63 282.441 198.684 282.441C198.738 282.441 198.783 282.353 198.783 282.246C198.783 282.139 198.827 282.051 198.881 282.051C198.935 282.051 198.98 281.964 198.98 281.856C198.98 281.749 199.024 281.662 199.078 281.662C199.132 281.662 199.176 281.574 199.176 281.467C199.176 281.359 199.221 281.272 199.275 281.272C199.329 281.272 199.373 281.184 199.373 281.077C199.373 280.97 199.418 280.882 199.472 280.882C199.526 280.882 199.57 280.794 199.57 280.687C199.57 280.58 199.615 280.492 199.669 280.492C199.723 280.492 199.767 280.405 199.767 280.297C199.767 280.19 199.812 280.102 199.866 280.102C199.92 280.102 199.964 280.015 199.964 279.908C199.964 279.8 200.008 279.713 200.063 279.713C200.117 279.713 200.161 279.635 200.161 279.539C200.161 279.444 200.25 279.303 200.358 279.225C200.466 279.148 200.555 279.007 200.555 278.912C200.555 278.816 200.599 278.738 200.653 278.738C200.708 278.738 200.752 278.651 200.752 278.543C200.752 278.436 200.796 278.349 200.85 278.349C200.905 278.349 200.949 278.261 200.949 278.154C200.949 278.046 200.993 277.959 201.047 277.959C201.101 277.959 201.146 277.915 201.146 277.861C201.146 277.808 201.113 277.767 201.072 277.772C201.031 277.776 194.473 284.244 186.499 292.145ZM206.66 291.503C206.66 291.562 206.233 291.601 205.577 291.601C204.92 291.601 204.494 291.639 204.494 291.698C204.494 291.755 204.165 291.796 203.706 291.796C203.246 291.796 202.918 291.836 202.918 291.893C202.918 291.947 202.656 291.99 202.327 291.99C201.999 291.99 201.737 292.034 201.737 292.088C201.737 292.142 201.474 292.185 201.146 292.185C200.818 292.185 200.555 292.229 200.555 292.283C200.555 292.336 200.378 292.38 200.161 292.38C199.945 292.38 199.767 292.424 199.767 292.478C199.767 292.531 199.546 292.575 199.275 292.575C199.004 292.575 198.783 292.619 198.783 292.673C198.783 292.726 198.65 292.77 198.487 292.77H198.192V293.647C198.192 294.167 198.232 294.524 198.29 294.524C198.348 294.524 198.389 294.849 198.389 295.303C198.389 295.758 198.43 296.083 198.487 296.083C198.542 296.083 198.586 296.343 198.586 296.668C198.586 296.992 198.629 297.252 198.684 297.252C198.738 297.252 198.783 297.472 198.783 297.74C198.783 298.007 198.827 298.227 198.881 298.227C198.935 298.227 198.98 298.402 198.98 298.617C198.98 298.831 199.024 299.006 199.078 299.006C199.132 299.006 199.176 299.182 199.176 299.396C199.176 299.61 199.221 299.786 199.275 299.786C199.329 299.786 199.373 299.917 199.373 300.078C199.373 300.239 199.418 300.37 199.472 300.37C199.526 300.37 199.57 300.546 199.57 300.76C199.57 300.975 199.615 301.15 199.669 301.15C199.723 301.15 199.767 301.282 199.767 301.442C199.767 301.603 199.812 301.735 199.866 301.735C199.92 301.735 199.964 301.822 199.964 301.93C199.964 302.037 200.008 302.124 200.063 302.124C200.117 302.124 200.161 302.256 200.161 302.417C200.161 302.578 200.205 302.709 200.26 302.709C200.314 302.709 200.358 302.841 200.358 303.001C200.358 303.162 200.402 303.294 200.457 303.294C200.511 303.294 200.555 303.381 200.555 303.489C200.555 303.596 200.58 303.684 200.611 303.684C200.719 303.684 200.949 303.404 200.949 303.273C200.949 303.201 201.037 303.079 201.146 303.001C201.254 302.924 201.343 302.801 201.343 302.729C201.343 302.656 201.52 302.428 201.737 302.222C201.953 302.016 202.13 301.798 202.13 301.738C202.13 301.678 202.485 301.282 202.918 300.858C203.351 300.434 203.706 300.038 203.706 299.978C203.706 299.838 203.955 299.591 204.096 299.591C204.157 299.591 204.601 299.196 205.084 298.714C205.568 298.232 206.013 297.837 206.073 297.837C206.133 297.837 206.353 297.662 206.561 297.447C206.77 297.233 207 297.057 207.074 297.057C207.147 297.057 207.271 296.97 207.349 296.863C207.427 296.755 207.56 296.668 207.645 296.668C207.729 296.668 207.862 296.58 207.94 296.473C208.018 296.366 208.151 296.278 208.235 296.278C208.32 296.278 208.453 296.19 208.531 296.083C208.609 295.976 208.742 295.888 208.826 295.888C208.91 295.888 209.043 295.8 209.121 295.693C209.2 295.586 209.342 295.498 209.439 295.498C209.535 295.498 209.614 295.454 209.614 295.401C209.614 295.347 209.693 295.303 209.789 295.303C209.885 295.303 210.028 295.216 210.106 295.109C210.184 295.001 210.327 294.914 210.423 294.914C210.52 294.914 210.598 294.87 210.598 294.816C210.598 294.763 210.687 294.719 210.795 294.719C210.904 294.719 210.992 294.675 210.992 294.621C210.992 294.568 211.081 294.524 211.189 294.524C211.298 294.524 211.386 294.48 211.386 294.426C211.386 294.373 211.475 294.329 211.583 294.329C211.691 294.329 211.78 294.285 211.78 294.232C211.78 294.178 211.869 294.134 211.977 294.134C212.085 294.134 212.174 294.09 212.174 294.037C212.174 293.983 212.263 293.939 212.371 293.939C212.479 293.939 212.568 293.895 212.568 293.842C212.568 293.788 212.656 293.744 212.765 293.744C212.873 293.744 212.962 293.701 212.962 293.647C212.962 293.593 213.095 293.549 213.257 293.549C213.419 293.549 213.552 293.506 213.552 293.452C213.552 293.398 213.641 293.355 213.749 293.355C213.858 293.355 213.946 293.311 213.946 293.257C213.946 293.204 214.079 293.16 214.242 293.16C214.404 293.16 214.537 293.116 214.537 293.062C214.537 293.009 214.67 292.965 214.832 292.965C214.995 292.965 215.128 292.921 215.128 292.867C215.128 292.814 215.216 292.77 215.325 292.77C215.433 292.77 215.522 292.726 215.522 292.673C215.522 292.619 215.655 292.575 215.817 292.575C215.98 292.575 216.113 292.531 216.113 292.478C216.113 292.424 216.29 292.38 216.506 292.38C216.723 292.38 216.9 292.336 216.9 292.283C216.9 292.229 217.077 292.185 217.294 292.185C217.722 292.185 217.761 292.147 217.547 291.935C217.45 291.839 217.176 291.796 216.661 291.796C216.23 291.796 215.916 291.755 215.916 291.698C215.916 291.64 215.522 291.601 214.931 291.601C214.34 291.601 213.946 291.562 213.946 291.503C213.946 291.44 212.666 291.406 210.303 291.406C207.94 291.406 206.66 291.44 206.66 291.503ZM222.119 293.939C221.725 293.939 221.43 293.981 221.43 294.037C221.43 294.091 221.167 294.134 220.839 294.134C220.511 294.134 220.248 294.177 220.248 294.232C220.248 294.285 220.027 294.329 219.756 294.329C219.485 294.329 219.263 294.373 219.263 294.426C219.263 294.48 219.086 294.524 218.87 294.524C218.653 294.524 218.476 294.568 218.476 294.621C218.476 294.675 218.298 294.719 218.082 294.719C217.865 294.719 217.688 294.763 217.688 294.816C217.688 294.87 217.555 294.914 217.393 294.914C217.23 294.914 217.097 294.958 217.097 295.011C217.097 295.065 216.964 295.109 216.802 295.109C216.639 295.109 216.506 295.152 216.506 295.206C216.506 295.26 216.373 295.303 216.211 295.303C216.049 295.303 215.916 295.347 215.916 295.401C215.916 295.454 215.783 295.498 215.62 295.498C215.458 295.498 215.325 295.542 215.325 295.596C215.325 295.649 215.236 295.693 215.128 295.693C215.02 295.693 214.931 295.737 214.931 295.791C214.931 295.844 214.817 295.888 214.678 295.888C214.45 295.888 214.143 296.08 214.143 296.222C214.143 296.253 214.222 296.278 214.318 296.278C214.415 296.278 214.557 296.366 214.636 296.473C214.714 296.58 214.839 296.668 214.913 296.668C214.988 296.668 215.173 296.799 215.325 296.96C215.477 297.121 215.652 297.252 215.714 297.252C215.777 297.252 216.089 297.515 216.408 297.837C216.727 298.159 217.035 298.422 217.093 298.422C217.151 298.422 217.619 298.838 218.132 299.346C218.646 299.855 219.066 300.317 219.066 300.375C219.066 300.432 219.332 300.737 219.657 301.053C219.982 301.368 220.248 301.677 220.248 301.739C220.248 301.801 220.381 301.974 220.543 302.124C220.706 302.275 220.839 302.45 220.839 302.514C220.839 302.578 220.972 302.754 221.134 302.904C221.297 303.054 221.43 303.238 221.43 303.311C221.43 303.385 221.518 303.509 221.627 303.586C221.735 303.663 221.824 303.805 221.824 303.9C221.824 303.995 221.868 304.073 221.922 304.073C221.976 304.073 222.02 304.151 222.02 304.247C222.02 304.342 222.109 304.483 222.217 304.56C222.326 304.638 222.414 304.779 222.414 304.874C222.414 304.97 222.459 305.048 222.513 305.048C222.567 305.048 222.611 305.126 222.611 305.221C222.611 305.316 222.7 305.458 222.808 305.535C222.917 305.612 223.005 305.753 223.005 305.849C223.005 305.944 223.049 306.022 223.104 306.022C223.158 306.022 223.202 306.11 223.202 306.217C223.202 306.324 223.246 306.412 223.301 306.412C223.355 306.412 223.399 306.5 223.399 306.607C223.399 306.714 223.443 306.802 223.497 306.802C223.552 306.802 223.596 306.889 223.596 306.997C223.596 307.104 223.64 307.191 223.694 307.191C223.749 307.191 223.793 307.279 223.793 307.386C223.793 307.493 223.837 307.581 223.891 307.581C223.945 307.581 223.99 307.669 223.99 307.776C223.99 307.883 224.034 307.971 224.088 307.971C224.142 307.971 224.187 308.103 224.187 308.263C224.187 308.424 224.231 308.556 224.285 308.556C224.339 308.556 224.384 308.643 224.384 308.751C224.384 308.858 224.428 308.945 224.482 308.945C224.536 308.945 224.581 309.033 224.581 309.14C224.581 309.247 224.625 309.335 224.679 309.335C224.733 309.335 224.777 309.467 224.777 309.627C224.777 309.788 224.822 309.92 224.876 309.92C224.93 309.92 224.974 310.051 224.974 310.212C224.974 310.373 225.019 310.504 225.073 310.504C225.127 310.504 225.171 310.636 225.171 310.797C225.171 310.958 225.216 311.089 225.27 311.089C225.324 311.089 225.368 311.221 225.368 311.381C225.368 311.542 225.413 311.674 225.467 311.674C225.521 311.674 225.565 311.805 225.565 311.966C225.565 312.127 225.61 312.258 225.664 312.258C225.718 312.258 225.762 312.39 225.762 312.551C225.762 312.712 225.806 312.843 225.861 312.843C225.918 312.843 225.959 312.518 225.959 312.064C225.959 311.609 226 311.284 226.058 311.284C226.118 311.284 226.156 310.797 226.156 310.017C226.156 309.238 226.194 308.751 226.254 308.751C226.317 308.751 226.353 307.874 226.353 306.314C226.353 304.755 226.317 303.878 226.254 303.878C226.194 303.878 226.156 303.391 226.156 302.612C226.156 301.832 226.118 301.345 226.058 301.345C225.999 301.345 225.959 300.988 225.959 300.468C225.959 299.948 225.919 299.591 225.861 299.591C225.804 299.591 225.762 299.299 225.762 298.909C225.762 298.519 225.72 298.227 225.664 298.227C225.61 298.227 225.565 298.007 225.565 297.74C225.565 297.472 225.521 297.252 225.467 297.252C225.412 297.252 225.368 296.992 225.368 296.668C225.368 296.343 225.325 296.083 225.27 296.083C225.216 296.083 225.171 295.908 225.171 295.693C225.171 295.479 225.127 295.303 225.073 295.303C225.019 295.303 224.974 295.084 224.974 294.816C224.974 294.548 224.93 294.329 224.876 294.329C224.822 294.329 224.777 294.197 224.777 294.037V293.744H223.793C223.202 293.744 222.808 293.783 222.808 293.842C222.808 293.897 222.513 293.939 222.119 293.939ZM227.928 294.914C227.928 295.128 227.973 295.303 228.027 295.303C228.081 295.303 228.125 295.523 228.125 295.791C228.125 296.059 228.17 296.278 228.224 296.278C228.279 296.278 228.322 296.538 228.322 296.863C228.322 297.187 228.366 297.447 228.421 297.447C228.475 297.447 228.519 297.707 228.519 298.032C228.519 298.357 228.563 298.617 228.618 298.617C228.675 298.617 228.716 298.941 228.716 299.396C228.716 299.851 228.757 300.176 228.815 300.176C228.874 300.176 228.913 300.565 228.913 301.15C228.913 301.735 228.952 302.124 229.012 302.124C229.076 302.124 229.11 303.586 229.11 306.314C229.11 309.043 229.076 310.504 229.012 310.504C228.952 310.504 228.913 310.894 228.913 311.479C228.913 312.064 228.874 312.453 228.815 312.453C228.757 312.453 228.716 312.778 228.716 313.233C228.716 313.688 228.675 314.012 228.618 314.012C228.563 314.012 228.519 314.272 228.519 314.597C228.519 314.922 228.475 315.182 228.421 315.182C228.366 315.182 228.322 315.442 228.322 315.766C228.322 316.091 228.279 316.351 228.224 316.351C228.17 316.351 228.125 316.57 228.125 316.838C228.125 317.106 228.081 317.325 228.027 317.325C227.973 317.325 227.928 317.545 227.928 317.813C227.928 318.081 227.884 318.3 227.83 318.3C227.776 318.3 227.731 318.475 227.731 318.69C227.731 318.904 227.687 319.079 227.633 319.079C227.579 319.079 227.535 319.255 227.535 319.469C227.535 319.684 227.49 319.859 227.436 319.859C227.382 319.859 227.338 320.034 227.338 320.249C227.338 320.463 227.293 320.638 227.239 320.638C227.185 320.638 227.141 320.77 227.141 320.931C227.141 321.092 227.096 321.223 227.042 321.223C226.988 321.223 226.944 321.398 226.944 321.613C226.944 321.827 226.899 322.003 226.845 322.003C226.791 322.003 226.747 322.134 226.747 322.295C226.747 322.456 226.702 322.587 226.648 322.587C226.594 322.587 226.55 322.719 226.55 322.88C226.55 323.04 226.506 323.172 226.451 323.172C226.397 323.172 226.353 323.303 226.353 323.464C226.353 323.625 226.309 323.757 226.254 323.757C226.2 323.757 226.156 323.888 226.156 324.049C226.156 324.21 226.112 324.341 226.058 324.341C226.003 324.341 225.959 324.473 225.959 324.634C225.959 324.794 225.915 324.926 225.861 324.926C225.806 324.926 225.762 325.057 225.762 325.218C225.762 325.379 225.718 325.511 225.664 325.511C225.61 325.511 225.565 325.642 225.565 325.803C225.565 325.964 225.521 326.095 225.467 326.095C225.413 326.095 225.368 326.183 225.368 326.29C225.368 326.397 225.324 326.485 225.27 326.485C225.216 326.485 225.171 326.617 225.171 326.777C225.171 326.938 225.127 327.07 225.073 327.07C225.019 327.07 224.974 327.157 224.974 327.265C224.974 327.372 224.93 327.459 224.876 327.459C224.822 327.459 224.777 327.591 224.777 327.752C224.777 327.913 224.733 328.044 224.679 328.044C224.625 328.044 224.581 328.132 224.581 328.239C224.581 328.346 224.536 328.434 224.482 328.434C224.428 328.434 224.384 328.522 224.384 328.629C224.384 328.736 224.339 328.824 224.285 328.824C224.231 328.824 224.187 328.955 224.187 329.116C224.187 329.277 224.142 329.408 224.088 329.408C224.034 329.408 223.99 329.496 223.99 329.603C223.99 329.71 223.945 329.798 223.891 329.798C223.837 329.798 223.793 329.886 223.793 329.993C223.793 330.1 223.749 330.188 223.694 330.188C223.64 330.188 223.596 330.276 223.596 330.383C223.596 330.49 223.552 330.578 223.497 330.578C223.443 330.578 223.399 330.665 223.399 330.772C223.399 330.88 223.355 330.967 223.301 330.967C223.246 330.967 223.202 331.099 223.202 331.26C223.202 331.42 223.158 331.552 223.104 331.552C223.049 331.552 223.005 331.64 223.005 331.747C223.005 331.854 222.961 331.942 222.907 331.942C222.852 331.942 222.808 332.029 222.808 332.137C222.808 332.244 222.764 332.332 222.71 332.332C222.656 332.332 222.611 332.419 222.611 332.526C222.611 332.634 222.567 332.721 222.513 332.721C222.459 332.721 222.414 332.805 222.414 332.908C222.414 333.011 222.359 333.114 222.291 333.138C222.224 333.162 222.198 333.213 222.234 333.252C222.308 333.331 249 306.954 249 306.801C249 306.666 246.568 304.268 246.431 304.268C246.371 304.268 246.198 304.137 246.046 303.976C245.894 303.815 245.709 303.684 245.634 303.684C245.56 303.684 245.435 303.596 245.357 303.489C245.279 303.381 245.146 303.294 245.061 303.294C244.977 303.294 244.844 303.206 244.766 303.099C244.688 302.992 244.563 302.904 244.488 302.904C244.414 302.904 244.228 302.772 244.077 302.612C243.925 302.451 243.74 302.319 243.665 302.319C243.591 302.319 243.466 302.232 243.387 302.124C243.309 302.017 243.167 301.93 243.07 301.93C242.974 301.93 242.895 301.886 242.895 301.832C242.895 301.779 242.816 301.735 242.72 301.735C242.624 301.735 242.481 301.647 242.403 301.54C242.325 301.433 242.192 301.345 242.107 301.345C242.023 301.345 241.89 301.257 241.812 301.15C241.734 301.043 241.601 300.955 241.517 300.955C241.432 300.955 241.299 300.867 241.221 300.76C241.143 300.653 241 300.565 240.904 300.565C240.808 300.565 240.729 300.521 240.729 300.468C240.729 300.414 240.65 300.37 240.554 300.37C240.457 300.37 240.315 300.283 240.237 300.176C240.158 300.068 240.016 299.981 239.919 299.981C239.823 299.981 239.744 299.937 239.744 299.883C239.744 299.83 239.656 299.786 239.547 299.786C239.439 299.786 239.35 299.742 239.35 299.688C239.35 299.635 239.272 299.591 239.175 299.591C239.079 299.591 238.936 299.503 238.858 299.396C238.78 299.289 238.637 299.201 238.541 299.201C238.445 299.201 238.366 299.157 238.366 299.104C238.366 299.05 238.277 299.006 238.169 299.006C238.06 299.006 237.972 298.962 237.972 298.909C237.972 298.855 237.883 298.811 237.775 298.811C237.667 298.811 237.578 298.768 237.578 298.714C237.578 298.66 237.499 298.617 237.403 298.617C237.306 298.617 237.164 298.529 237.086 298.422C237.008 298.314 236.865 298.227 236.769 298.227C236.672 298.227 236.593 298.183 236.593 298.129C236.593 298.076 236.505 298.032 236.396 298.032C236.288 298.032 236.199 297.988 236.199 297.934C236.199 297.881 236.111 297.837 236.003 297.837C235.894 297.837 235.806 297.793 235.806 297.74C235.806 297.686 235.717 297.642 235.609 297.642C235.5 297.642 235.412 297.598 235.412 297.545C235.412 297.491 235.323 297.447 235.215 297.447C235.107 297.447 235.018 297.403 235.018 297.35C235.018 297.296 234.929 297.252 234.821 297.252C234.713 297.252 234.624 297.208 234.624 297.155C234.624 297.101 234.535 297.057 234.427 297.057C234.319 297.057 234.23 297.014 234.23 296.96C234.23 296.906 234.097 296.863 233.935 296.863C233.772 296.863 233.639 296.819 233.639 296.765C233.639 296.712 233.551 296.668 233.442 296.668C233.334 296.668 233.246 296.624 233.246 296.57C233.246 296.517 233.157 296.473 233.049 296.473C232.94 296.473 232.852 296.429 232.852 296.375C232.852 296.322 232.763 296.278 232.655 296.278C232.546 296.278 232.458 296.234 232.458 296.18C232.458 296.127 232.369 296.083 232.261 296.083C232.153 296.083 232.064 296.039 232.064 295.986C232.064 295.932 231.931 295.888 231.769 295.888C231.606 295.888 231.473 295.844 231.473 295.791C231.473 295.737 231.385 295.693 231.276 295.693C231.168 295.693 231.079 295.649 231.079 295.596C231.079 295.542 230.946 295.498 230.784 295.498C230.621 295.498 230.488 295.454 230.488 295.401C230.488 295.347 230.4 295.303 230.292 295.303C230.183 295.303 230.095 295.26 230.095 295.206C230.095 295.152 229.962 295.109 229.799 295.109C229.637 295.109 229.504 295.065 229.504 295.011C229.504 294.958 229.415 294.914 229.307 294.914C229.199 294.914 229.11 294.87 229.11 294.816C229.11 294.763 228.977 294.719 228.815 294.719C228.652 294.719 228.519 294.675 228.519 294.621C228.519 294.568 228.386 294.524 228.224 294.524C227.945 294.524 227.928 294.546 227.928 294.914ZM196.026 300.176C196.026 300.5 195.982 300.76 195.927 300.76C195.869 300.76 195.829 301.118 195.829 301.637C195.829 302.157 195.789 302.514 195.73 302.514C195.67 302.514 195.632 303.001 195.632 303.781C195.632 304.56 195.594 305.048 195.533 305.048C195.47 305.048 195.435 305.99 195.435 307.679C195.435 309.368 195.47 310.31 195.533 310.31C195.594 310.31 195.632 310.797 195.632 311.576C195.632 312.356 195.67 312.843 195.73 312.843C195.788 312.843 195.829 313.168 195.829 313.623C195.829 314.077 195.87 314.402 195.927 314.402C195.983 314.402 196.026 314.694 196.026 315.084C196.026 315.474 196.068 315.766 196.124 315.766C196.179 315.766 196.223 316.026 196.223 316.351C196.223 316.676 196.266 316.936 196.321 316.936C196.375 316.936 196.419 317.155 196.419 317.423C196.419 317.691 196.464 317.91 196.518 317.91C196.572 317.91 196.616 318.085 196.616 318.3C196.616 318.514 196.661 318.69 196.715 318.69C196.769 318.69 196.813 318.846 196.813 319.038C196.813 319.229 196.877 319.448 196.954 319.525C197.114 319.683 197.995 319.718 197.995 319.567C197.995 319.508 198.389 319.469 198.98 319.469C199.57 319.469 199.964 319.43 199.964 319.372C199.964 319.316 200.26 319.274 200.653 319.274C201.047 319.274 201.343 319.232 201.343 319.177C201.343 319.123 201.564 319.079 201.835 319.079C202.106 319.079 202.327 319.036 202.327 318.982C202.327 318.928 202.549 318.884 202.82 318.884C203.09 318.884 203.312 318.841 203.312 318.787C203.312 318.733 203.489 318.69 203.706 318.69C203.923 318.69 204.1 318.646 204.1 318.592C204.1 318.539 204.233 318.495 204.395 318.495C204.558 318.495 204.691 318.451 204.691 318.397C204.691 318.344 204.868 318.3 205.084 318.3C205.301 318.3 205.478 318.256 205.478 318.202C205.478 318.149 205.611 318.105 205.774 318.105C205.936 318.105 206.069 318.061 206.069 318.008C206.069 317.954 206.202 317.91 206.364 317.91C206.527 317.91 206.66 317.866 206.66 317.813C206.66 317.759 206.748 317.715 206.857 317.715C206.965 317.715 207.054 317.671 207.054 317.618C207.054 317.564 207.187 317.52 207.349 317.52C207.512 317.52 207.645 317.476 207.645 317.423C207.645 317.369 207.733 317.325 207.841 317.325C207.95 317.325 208.038 317.3 208.038 317.27C208.038 317.17 207.76 316.936 207.642 316.936C207.578 316.936 207.402 316.804 207.251 316.643C207.099 316.483 206.924 316.351 206.861 316.351C206.799 316.351 206.486 316.088 206.168 315.766C205.849 315.445 205.54 315.182 205.482 315.182C205.345 315.182 203.706 313.56 203.706 313.424C203.706 313.366 203.44 313.061 203.115 312.746C202.79 312.43 202.524 312.122 202.524 312.061C202.524 312 202.347 311.782 202.13 311.576C201.914 311.37 201.737 311.15 201.737 311.087C201.737 311.024 201.604 310.85 201.441 310.699C201.279 310.549 201.146 310.366 201.146 310.292C201.146 310.218 201.057 310.095 200.949 310.017C200.841 309.94 200.752 309.808 200.752 309.725C200.752 309.641 200.663 309.51 200.555 309.433C200.447 309.355 200.358 309.214 200.358 309.119C200.358 309.023 200.314 308.945 200.26 308.945C200.205 308.945 200.161 308.867 200.161 308.772C200.161 308.677 200.073 308.535 199.964 308.458C199.856 308.381 199.767 308.24 199.767 308.144C199.767 308.049 199.723 307.971 199.669 307.971C199.615 307.971 199.57 307.883 199.57 307.776C199.57 307.669 199.526 307.581 199.472 307.581C199.418 307.581 199.373 307.493 199.373 307.386C199.373 307.279 199.329 307.191 199.275 307.191C199.221 307.191 199.176 307.104 199.176 306.997C199.176 306.889 199.132 306.802 199.078 306.802C199.024 306.802 198.98 306.714 198.98 306.607C198.98 306.5 198.935 306.412 198.881 306.412C198.827 306.412 198.783 306.324 198.783 306.217C198.783 306.11 198.738 306.022 198.684 306.022C198.63 306.022 198.586 305.934 198.586 305.827C198.586 305.72 198.541 305.632 198.487 305.632C198.433 305.632 198.389 305.545 198.389 305.437C198.389 305.33 198.344 305.243 198.29 305.243C198.236 305.243 198.192 305.155 198.192 305.048C198.192 304.941 198.148 304.853 198.093 304.853C198.039 304.853 197.995 304.765 197.995 304.658C197.995 304.551 197.951 304.463 197.896 304.463C197.842 304.463 197.798 304.331 197.798 304.171C197.798 304.01 197.754 303.878 197.699 303.878C197.645 303.878 197.601 303.791 197.601 303.684C197.601 303.576 197.557 303.489 197.503 303.489C197.448 303.489 197.404 303.357 197.404 303.196C197.404 303.036 197.36 302.904 197.306 302.904C197.251 302.904 197.207 302.772 197.207 302.612C197.207 302.451 197.163 302.319 197.109 302.319C197.055 302.319 197.01 302.188 197.01 302.027C197.01 301.866 196.966 301.735 196.912 301.735C196.858 301.735 196.813 301.559 196.813 301.345C196.813 301.131 196.769 300.955 196.715 300.955C196.661 300.955 196.616 300.824 196.616 300.663C196.616 300.502 196.572 300.37 196.518 300.37C196.464 300.37 196.419 300.195 196.419 299.981C196.419 299.656 196.387 299.591 196.223 299.591C196.047 299.591 196.026 299.656 196.026 300.176ZM221.553 309.676C221.485 309.752 221.43 309.864 221.43 309.925C221.43 309.986 221.297 310.159 221.134 310.31C220.972 310.46 220.839 310.634 220.839 310.697C220.839 310.76 220.662 310.981 220.445 311.187C220.228 311.393 220.051 311.609 220.051 311.667C220.051 311.725 219.232 312.583 218.23 313.575C217.229 314.566 216.361 315.377 216.302 315.377C216.244 315.377 216.025 315.552 215.817 315.766C215.609 315.981 215.379 316.156 215.305 316.156C215.231 316.156 215.107 316.244 215.029 316.351C214.951 316.458 214.826 316.546 214.752 316.546C214.677 316.546 214.492 316.677 214.34 316.838C214.188 316.999 214.003 317.131 213.929 317.131C213.854 317.131 213.729 317.218 213.651 317.325C213.573 317.433 213.43 317.52 213.334 317.52C213.237 317.52 213.159 317.564 213.159 317.618C213.159 317.671 213.08 317.715 212.983 317.715C212.887 317.715 212.744 317.803 212.666 317.91C212.588 318.017 212.445 318.105 212.349 318.105C212.253 318.105 212.174 318.149 212.174 318.202C212.174 318.256 212.085 318.3 211.977 318.3C211.869 318.3 211.78 318.344 211.78 318.397C211.78 318.451 211.691 318.495 211.583 318.495C211.475 318.495 211.386 318.539 211.386 318.592C211.386 318.646 211.298 318.69 211.189 318.69C211.081 318.69 210.992 318.733 210.992 318.787C210.992 318.841 210.904 318.884 210.795 318.884C210.687 318.884 210.598 318.928 210.598 318.982C210.598 319.036 210.51 319.079 210.402 319.079C210.293 319.079 210.205 319.123 210.205 319.177C210.205 319.23 210.116 319.274 210.008 319.274C209.899 319.274 209.811 319.318 209.811 319.372C209.811 319.425 209.722 319.469 209.614 319.469C209.505 319.469 209.417 319.513 209.417 319.567C209.417 319.62 209.328 319.664 209.22 319.664C209.112 319.664 209.023 319.708 209.023 319.761C209.023 319.815 208.89 319.859 208.728 319.859C208.565 319.859 208.432 319.903 208.432 319.956C208.432 320.01 208.344 320.054 208.235 320.054C208.127 320.054 208.038 320.098 208.038 320.151C208.038 320.205 207.905 320.249 207.743 320.249C207.581 320.249 207.448 320.293 207.448 320.346C207.448 320.4 207.315 320.444 207.152 320.444C206.99 320.444 206.857 320.487 206.857 320.541C206.857 320.595 206.724 320.638 206.561 320.638C206.399 320.638 206.266 320.682 206.266 320.736C206.266 320.789 206.133 320.833 205.971 320.833C205.808 320.833 205.675 320.877 205.675 320.931C205.675 320.984 205.542 321.028 205.38 321.028C205.217 321.028 205.084 321.072 205.084 321.126C205.084 321.185 205.511 321.223 206.168 321.223C206.824 321.223 207.251 321.262 207.251 321.321C207.251 321.384 208.465 321.418 210.697 321.418C212.929 321.418 214.143 321.384 214.143 321.321C214.143 321.262 214.57 321.223 215.226 321.223C215.883 321.223 216.309 321.185 216.309 321.126C216.309 321.069 216.638 321.028 217.097 321.028C217.557 321.028 217.885 320.988 217.885 320.931C217.885 320.877 218.148 320.833 218.476 320.833C218.804 320.833 219.066 320.79 219.066 320.736C219.066 320.682 219.329 320.638 219.657 320.638C219.985 320.638 220.248 320.595 220.248 320.541C220.248 320.487 220.47 320.444 220.74 320.444C221.011 320.444 221.233 320.4 221.233 320.346C221.233 320.293 221.41 320.249 221.627 320.249C221.843 320.249 222.02 320.205 222.02 320.151C222.02 320.098 222.242 320.054 222.513 320.054C222.784 320.054 223.005 320.01 223.005 319.956C223.005 319.903 223.182 319.859 223.399 319.859C223.616 319.859 223.793 319.815 223.793 319.761C223.793 319.708 223.881 319.664 223.99 319.664C224.154 319.664 224.187 319.599 224.187 319.274C224.187 319.06 224.142 318.884 224.088 318.884C224.03 318.884 223.99 318.527 223.99 318.008C223.99 317.488 223.95 317.131 223.891 317.131C223.837 317.131 223.793 316.871 223.793 316.546C223.793 316.221 223.749 315.961 223.694 315.961C223.64 315.961 223.596 315.701 223.596 315.377C223.596 315.052 223.552 314.792 223.497 314.792C223.443 314.792 223.399 314.617 223.399 314.402C223.399 314.188 223.355 314.012 223.301 314.012C223.246 314.012 223.202 313.837 223.202 313.623C223.202 313.408 223.158 313.233 223.104 313.233C223.049 313.233 223.005 313.101 223.005 312.941C223.005 312.78 222.961 312.648 222.907 312.648C222.852 312.648 222.808 312.473 222.808 312.258C222.808 312.044 222.764 311.869 222.71 311.869C222.656 311.869 222.611 311.737 222.611 311.576C222.611 311.416 222.567 311.284 222.513 311.284C222.459 311.284 222.414 311.196 222.414 311.089C222.414 310.982 222.37 310.894 222.316 310.894C222.262 310.894 222.217 310.763 222.217 310.602C222.217 310.441 222.173 310.31 222.119 310.31C222.065 310.31 222.02 310.222 222.02 310.115C222.02 310.008 221.976 309.92 221.922 309.92C221.868 309.92 221.824 309.832 221.824 309.725C221.824 309.498 221.727 309.48 221.553 309.676ZM181.847 316.595C181.847 316.621 188.294 323.024 196.174 330.822L210.501 345L211.83 343.685C212.561 342.962 213.159 342.313 213.159 342.244C213.159 342.175 213.247 342.056 213.355 341.978C213.464 341.901 213.552 341.777 213.552 341.704C213.552 341.63 213.685 341.446 213.848 341.296C214.01 341.146 214.143 340.963 214.143 340.889C214.143 340.815 214.232 340.691 214.34 340.614C214.448 340.537 214.537 340.405 214.537 340.322C214.537 340.238 214.626 340.107 214.734 340.029C214.842 339.952 214.931 339.821 214.931 339.737C214.931 339.654 215.02 339.522 215.128 339.445C215.236 339.368 215.325 339.236 215.325 339.152C215.325 339.069 215.413 338.937 215.522 338.86C215.63 338.783 215.719 338.651 215.719 338.568C215.719 338.484 215.807 338.353 215.916 338.276C216.024 338.198 216.113 338.067 216.113 337.983C216.113 337.9 216.201 337.768 216.309 337.691C216.418 337.614 216.506 337.482 216.506 337.399C216.506 337.315 216.595 337.183 216.703 337.106C216.812 337.029 216.9 336.888 216.9 336.792C216.9 336.697 216.945 336.619 216.999 336.619C217.053 336.619 217.097 336.541 217.097 336.446C217.097 336.35 217.186 336.209 217.294 336.132C217.402 336.055 217.491 335.913 217.491 335.818C217.491 335.723 217.535 335.645 217.59 335.645C217.644 335.645 217.688 335.567 217.688 335.471C217.688 335.376 217.777 335.235 217.885 335.157C217.993 335.08 218.082 334.939 218.082 334.844C218.082 334.748 218.126 334.67 218.18 334.67C218.234 334.67 218.279 334.582 218.279 334.475C218.279 334.368 218.323 334.28 218.377 334.28C218.431 334.28 218.476 334.202 218.476 334.107C218.476 334.012 218.564 333.87 218.673 333.793C218.781 333.716 218.87 333.575 218.87 333.479C218.87 333.384 218.914 333.306 218.968 333.306C219.022 333.306 219.066 333.218 219.066 333.111C219.066 333.004 219.111 332.916 219.165 332.916C219.219 332.916 219.263 332.828 219.263 332.721C219.263 332.614 219.308 332.526 219.362 332.526C219.416 332.526 219.46 332.439 219.46 332.332C219.46 332.224 219.505 332.137 219.559 332.137C219.613 332.137 219.657 332.049 219.657 331.942C219.657 331.835 219.702 331.747 219.756 331.747C219.81 331.747 219.854 331.659 219.854 331.552C219.854 331.445 219.899 331.357 219.953 331.357C220.007 331.357 220.051 331.269 220.051 331.162C220.051 331.055 220.095 330.967 220.15 330.967C220.204 330.967 220.248 330.88 220.248 330.772C220.248 330.665 220.292 330.578 220.347 330.578C220.401 330.578 220.445 330.49 220.445 330.383C220.445 330.276 220.489 330.188 220.543 330.188C220.598 330.188 220.642 330.1 220.642 329.993C220.642 329.886 220.686 329.798 220.74 329.798C220.795 329.798 220.839 329.71 220.839 329.603C220.839 329.496 220.883 329.408 220.937 329.408C220.992 329.408 221.036 329.321 221.036 329.213C221.036 329.106 221.08 329.018 221.134 329.018C221.188 329.018 221.233 328.931 221.233 328.824C221.233 328.716 221.277 328.629 221.331 328.629C221.385 328.629 221.43 328.497 221.43 328.336C221.43 328.176 221.474 328.044 221.528 328.044C221.582 328.044 221.627 327.956 221.627 327.849C221.627 327.742 221.671 327.654 221.725 327.654C221.779 327.654 221.824 327.567 221.824 327.459C221.824 327.352 221.868 327.265 221.922 327.265C221.976 327.265 222.02 327.133 222.02 326.972C222.02 326.811 222.065 326.68 222.119 326.68C222.173 326.68 222.217 326.592 222.217 326.485C222.217 326.378 222.262 326.29 222.316 326.29C222.37 326.29 222.414 326.159 222.414 325.998C222.414 325.837 222.459 325.705 222.513 325.705C222.567 325.705 222.611 325.618 222.611 325.511C222.611 325.403 222.656 325.316 222.71 325.316C222.764 325.316 222.808 325.184 222.808 325.023C222.808 324.863 222.852 324.731 222.907 324.731C222.961 324.731 223.005 324.599 223.005 324.439C223.005 324.278 223.049 324.146 223.104 324.146C223.158 324.146 223.202 324.015 223.202 323.854C223.202 323.693 223.246 323.562 223.301 323.562C223.355 323.562 223.399 323.43 223.399 323.269C223.399 323.109 223.443 322.977 223.497 322.977C223.552 322.977 223.596 322.933 223.596 322.88C223.596 322.826 223.463 322.782 223.301 322.782C223.138 322.782 223.005 322.826 223.005 322.88C223.005 322.933 222.784 322.977 222.513 322.977C222.242 322.977 222.02 323.021 222.02 323.075C222.02 323.128 221.799 323.172 221.528 323.172C221.257 323.172 221.036 323.216 221.036 323.269C221.036 323.323 220.814 323.367 220.543 323.367C220.273 323.367 220.051 323.411 220.051 323.464C220.051 323.518 219.789 323.562 219.46 323.562C219.132 323.562 218.87 323.605 218.87 323.659C218.87 323.715 218.574 323.757 218.18 323.757C217.786 323.757 217.491 323.798 217.491 323.854C217.491 323.912 217.13 323.952 216.605 323.952C216.08 323.952 215.719 323.991 215.719 324.049C215.719 324.109 215.194 324.146 214.34 324.146C213.487 324.146 212.962 324.184 212.962 324.244C212.962 324.306 212.141 324.341 210.697 324.341C209.253 324.341 208.432 324.306 208.432 324.244C208.432 324.184 207.907 324.146 207.054 324.146C206.2 324.146 205.675 324.109 205.675 324.049C205.675 323.991 205.314 323.952 204.789 323.952C204.264 323.952 203.903 323.912 203.903 323.854C203.903 323.798 203.607 323.757 203.214 323.757C202.82 323.757 202.524 323.715 202.524 323.659C202.524 323.605 202.262 323.562 201.934 323.562C201.605 323.562 201.343 323.518 201.343 323.464C201.343 323.41 201.08 323.367 200.752 323.367C200.424 323.367 200.161 323.324 200.161 323.269C200.161 323.216 199.94 323.172 199.669 323.172C199.398 323.172 199.176 323.128 199.176 323.075C199.176 323.021 198.999 322.977 198.783 322.977C198.566 322.977 198.389 322.933 198.389 322.88C198.389 322.826 198.212 322.782 197.995 322.782C197.778 322.782 197.601 322.738 197.601 322.685C197.601 322.631 197.424 322.587 197.207 322.587C196.991 322.587 196.813 322.543 196.813 322.49C196.813 322.436 196.636 322.392 196.419 322.392C196.203 322.392 196.026 322.349 196.026 322.295C196.026 322.241 195.848 322.198 195.632 322.198C195.415 322.198 195.238 322.154 195.238 322.1C195.238 322.047 195.105 322.003 194.942 322.003C194.78 322.003 194.647 321.959 194.647 321.905C194.647 321.852 194.514 321.808 194.352 321.808C194.189 321.808 194.056 321.764 194.056 321.71C194.056 321.657 193.923 321.613 193.761 321.613C193.598 321.613 193.465 321.569 193.465 321.515C193.465 321.462 193.333 321.418 193.17 321.418C193.008 321.418 192.875 321.374 192.875 321.321C192.875 321.267 192.742 321.223 192.579 321.223C192.417 321.223 192.284 321.179 192.284 321.126C192.284 321.072 192.151 321.028 191.988 321.028C191.826 321.028 191.693 320.984 191.693 320.931C191.693 320.877 191.56 320.833 191.398 320.833C191.235 320.833 191.102 320.789 191.102 320.736C191.102 320.682 190.969 320.638 190.807 320.638C190.644 320.638 190.512 320.595 190.512 320.541C190.512 320.487 190.423 320.444 190.315 320.444C190.206 320.444 190.118 320.4 190.118 320.346C190.118 320.293 189.985 320.249 189.822 320.249C189.66 320.249 189.527 320.205 189.527 320.151C189.527 320.098 189.438 320.054 189.33 320.054C189.222 320.054 189.133 320.01 189.133 319.956C189.133 319.903 189 319.859 188.838 319.859C188.675 319.859 188.542 319.815 188.542 319.761C188.542 319.708 188.454 319.664 188.345 319.664C188.237 319.664 188.148 319.62 188.148 319.567C188.148 319.513 188.06 319.469 187.951 319.469C187.843 319.469 187.754 319.425 187.754 319.372C187.754 319.318 187.622 319.274 187.459 319.274C187.297 319.274 187.164 319.23 187.164 319.177C187.164 319.123 187.075 319.079 186.967 319.079C186.858 319.079 186.77 319.036 186.77 318.982C186.77 318.928 186.681 318.884 186.573 318.884C186.465 318.884 186.376 318.841 186.376 318.787C186.376 318.733 186.287 318.69 186.179 318.69C186.071 318.69 185.982 318.646 185.982 318.592C185.982 318.539 185.893 318.495 185.785 318.495C185.677 318.495 185.588 318.451 185.588 318.397C185.588 318.344 185.5 318.3 185.391 318.3C185.283 318.3 185.194 318.256 185.194 318.202C185.194 318.149 185.061 318.105 184.899 318.105C184.737 318.105 184.604 318.061 184.604 318.008C184.604 317.954 184.525 317.91 184.428 317.91C184.332 317.91 184.189 317.822 184.111 317.715C184.033 317.608 183.891 317.52 183.794 317.52C183.698 317.52 183.619 317.476 183.619 317.423C183.619 317.369 183.53 317.325 183.422 317.325C183.314 317.325 183.225 317.282 183.225 317.228C183.225 317.174 183.136 317.131 183.028 317.131C182.92 317.131 182.831 317.087 182.831 317.033C182.831 316.979 182.743 316.936 182.634 316.936C182.526 316.936 182.437 316.892 182.437 316.838C182.437 316.785 182.349 316.741 182.24 316.741C182.132 316.741 182.043 316.697 182.043 316.643C182.043 316.59 181.999 316.546 181.945 316.546C181.891 316.546 181.847 316.568 181.847 316.595ZM428.5 356C426.015 356 424 358.015 424 360.5V382.5C424 384.985 426.015 387 428.5 387C430.985 387 433 384.985 433 382.5V380.257L441.504 386.239C443.536 387.669 446.343 387.18 447.773 385.147C449.203 383.115 448.715 380.308 446.682 378.878L441.627 375.322C445.357 373.87 448 370.244 448 366C448 360.477 443.523 356 438 356H429.76C429.534 356 429.31 356.013 429.091 356.038C428.898 356.013 428.7 356 428.5 356ZM437.5 365H432V368H437.5C438.328 368 439 367.328 439 366.5C439 365.672 438.328 365 437.5 365ZM469.5 365H466V382.5C466 384.985 463.985 387 461.5 387C459.015 387 457 384.985 457 382.5V365H453.5C451.015 365 449 362.985 449 360.5C449 358.015 451.015 356 453.5 356H469.5C471.985 356 474 358.015 474 360.5C474 362.985 471.985 365 469.5 365ZM484 376C483.194 376 482.389 375.903 481.602 375.708C480.243 375.373 478.97 374.756 477.865 373.897C476.76 373.039 475.847 371.958 475.186 370.724C474.525 369.491 474.13 368.132 474.027 366.737C473.924 365.341 474.115 363.939 474.588 362.622C475.061 361.305 475.804 360.102 476.771 359.09C477.738 358.078 478.907 357.281 480.202 356.749C481.408 356.254 482.698 356 484 356H493.5C495.985 356 498 358.015 498 360.5C498 362.984 495.987 364.998 493.503 365H484C483.448 365 483 365.448 483 366C483 366.552 483.448 367 484 367H488.5C488.669 367 488.836 367.009 489 367.027V367C490.313 367 491.614 367.259 492.827 367.761C494.04 368.264 495.142 369 496.071 369.929C497 370.858 497.736 371.96 498.239 373.173C498.741 374.386 499 375.687 499 377C499 378.313 498.741 379.614 498.239 380.827C497.736 382.04 497 383.142 496.071 384.071C495.142 385 494.04 385.736 492.827 386.239C491.614 386.741 490.313 387 489 387H479.5C477.015 387 475 384.985 475 382.5C475 380.015 477.015 378 479.5 378H489C489.552 378 490 377.552 490 377C490 376.448 489.552 376 489 376V375.973C488.836 375.991 488.669 376 488.5 376H484ZM507.587 357.472H505.555V363H504.188V357.472H502.182V356.365H507.587V357.472ZM509.738 360.124H512.363V359.053H509.738V357.472H512.81V356.365H508.371V363H512.819V361.902H509.738V360.124ZM519.017 363H517.65L514.988 358.634V363H513.621V356.365H514.988L517.654 360.74V356.365H519.017V363ZM520.211 356.365V363H522.266C522.847 362.997 523.368 362.863 523.829 362.599C524.291 362.335 524.648 361.962 524.9 361.482C525.156 361.002 525.283 360.454 525.283 359.837V359.532C525.283 358.915 525.154 358.365 524.896 357.882C524.638 357.396 524.278 357.022 523.816 356.761C523.357 356.497 522.836 356.365 522.253 356.365H520.211ZM521.578 361.902V357.472H522.253C522.79 357.472 523.199 357.647 523.479 357.996C523.758 358.342 523.898 358.853 523.898 359.527V359.878C523.892 360.528 523.747 361.028 523.465 361.378C523.182 361.727 522.774 361.902 522.239 361.902H521.578ZM530.273 360.124H527.648V361.902H530.729V363H526.281V356.365H530.72V357.472H527.648V359.053H530.273V360.124ZM532.898 360.571H533.988L535.232 363H536.699V362.936L535.264 360.225C535.662 360.045 535.958 359.805 536.152 359.505C536.35 359.201 536.449 358.822 536.449 358.37C536.449 357.732 536.236 357.238 535.811 356.889C535.385 356.539 534.781 356.365 533.997 356.365H531.531V363H532.898V360.571ZM534.001 359.464H532.898V357.472H533.997C534.364 357.472 534.636 357.562 534.812 357.741C534.992 357.92 535.081 358.166 535.081 358.479C535.081 358.786 534.987 359.028 534.799 359.204C534.61 359.377 534.345 359.464 534.001 359.464ZM480.653 114.5L465 131V94H516L497.822 114.5H480.653ZM500.347 122.5L516 106V143H465L483.178 122.5H500.347ZM684.889 63.3562L684.506 62.5724L684.023 63.2991L550.939 263.619C549.833 262.631 548.373 262.03 546.773 262.03C543.548 262.03 540.894 264.469 540.552 267.602H492.19C491.86 265.459 490.008 263.818 487.773 263.818C485.304 263.818 483.303 265.819 483.303 268.288C483.303 268.842 483.404 269.372 483.588 269.862L402.29 306.821C401.305 304.657 399.124 303.152 396.591 303.152C394.841 303.152 393.259 303.87 392.123 305.028L276.255 158.061C278.228 156.421 279.485 153.948 279.485 151.182C279.485 146.245 275.482 142.242 270.545 142.242C265.608 142.242 261.606 146.245 261.606 151.182C261.606 152.864 262.071 154.438 262.879 155.783L103.403 296.032C102.589 294.928 101.279 294.212 99.803 294.212C97.3933 294.212 95.429 296.119 95.3367 298.506L48.7612 308.362C48.263 305.405 45.6901 303.152 42.5909 303.152C39.1349 303.152 36.3333 305.953 36.3333 309.409C36.3333 312.865 39.1349 315.667 42.5909 315.667C46.0469 315.667 48.8485 312.865 48.8485 309.409L48.8483 309.366L95.4104 299.513C95.7998 301.584 97.6184 303.152 99.803 303.152C102.272 303.152 104.273 301.15 104.273 298.682C104.273 298.055 104.144 297.458 103.911 296.917L263.446 156.615C265.08 158.747 267.652 160.121 270.545 160.121C272.357 160.121 274.043 159.582 275.451 158.656L391.469 305.813C390.753 306.831 390.333 308.071 390.333 309.409C390.333 312.865 393.135 315.667 396.591 315.667C400.047 315.667 402.848 312.865 402.848 309.409C402.848 308.84 402.772 308.289 402.63 307.765L484.044 270.753C484.844 271.961 486.215 272.758 487.773 272.758C490.136 272.758 492.07 270.924 492.231 268.602H540.523C540.687 271.912 543.422 274.545 546.773 274.545C550.229 274.545 553.03 271.744 553.03 268.288C553.03 266.801 552.512 265.435 551.646 264.362L684.373 64.579L722.429 142.462L722.476 142.558L722.558 142.626L803.826 210.498L841.324 286.388L841.565 286.876L842.031 286.595L893.823 255.341L971.532 233.011L971.663 232.973L971.757 232.874L1048.76 151.646L1074.59 459.259L1075.59 459.176L1049.66 150.451L1049.57 149.339L1048.8 150.149L971.125 232.087L893.483 254.398L893.419 254.416L893.363 254.451L841.98 285.458L804.675 209.96L804.629 209.866L804.548 209.798L723.281 141.927L684.889 63.3562Z" fill="#0F1112"/>
</g>
<defs>
<clipPath id="clip0">
<rect width="632" height="459" fill="white"/>
</clipPath>
</defs>
</svg>
