<svg width="482" height="525" viewBox="0 0 482 525" fill="none" xmlns="http://www.w3.org/2000/svg">
<g opacity="0.25">
<path d="M242.857 182.715L202.715 142.572L162.572 182.715V62.2869C162.572 40.1166 180.544 22.1439 202.715 22.1439C224.884 22.1439 242.857 40.1166 242.857 62.2869V182.715Z" stroke="#E0E0E0" stroke-width="3" stroke-miterlimit="10" stroke-linecap="round" stroke-linejoin="round"/>
<path d="M564 182.715L523.857 222.858L564 262.998H443.571C421.401 262.998 403.429 245.028 403.429 222.858C403.429 200.688 421.401 182.715 443.571 182.715H564Z" stroke="#E0E0E0" stroke-width="3" stroke-miterlimit="10" stroke-linecap="round" stroke-linejoin="round"/>
<path d="M403.429 -58.142L443.571 -17.999L483.714 -58.142V62.2871C483.714 84.4574 465.742 102.43 443.571 102.43C421.401 102.43 403.429 84.4574 403.429 62.2871V-58.142Z" stroke="#E0E0E0" stroke-width="3" stroke-miterlimit="10" stroke-linecap="round" stroke-linejoin="round"/>
<path d="M242.858 102.43L283 62.2871L242.858 22.1441H323.143V102.43H242.858Z" stroke="#E0E0E0" stroke-width="3" stroke-miterlimit="10" stroke-linecap="round" stroke-linejoin="round"/>
<path d="M2 -58.1419L42.143 -17.9988L82.2855 -58.1419V222.858C82.2855 245.029 64.3132 262.998 42.143 262.998C19.9725 262.998 2 245.029 2 222.858V-58.1419Z" stroke="#E0E0E0" stroke-width="3" stroke-miterlimit="10" stroke-linecap="round" stroke-linejoin="round"/>
<path d="M403.429 142.572C403.429 164.742 421.402 182.715 443.572 182.715H523.739C545.909 182.715 563.882 164.742 563.882 142.572C563.882 120.402 545.909 102.43 523.739 102.43H443.572C421.402 102.43 403.429 120.402 403.429 142.572Z" stroke="#E0E0E0" stroke-width="3" stroke-miterlimit="10" stroke-linecap="round" stroke-linejoin="round"/>
<path d="M122.429 22.1441C100.258 22.1441 82.2855 40.1169 82.2855 62.2872V142.454C82.2855 164.624 100.258 182.597 122.429 182.597C144.599 182.597 162.572 164.624 162.572 142.454V62.2872C162.572 40.1169 144.599 22.1441 122.429 22.1441Z" stroke="#E0E0E0" stroke-width="3" stroke-miterlimit="10" stroke-linecap="round" stroke-linejoin="round"/>
<path d="M283 -58.1422H122.429C122.428 -58.1422 122.426 -58.1422 122.425 -58.1422H82.2856L94.0435 -46.3844L122.429 -17.9992L94.0435 10.3859L82.2856 22.1438H283C305.171 22.1438 323.143 4.1711 323.143 -17.9992C323.143 -40.1695 305.171 -58.1422 283 -58.1422V-58.1422Z" stroke="#E0E0E0" stroke-width="3" stroke-miterlimit="10" stroke-linecap="round" stroke-linejoin="round"/>
<path d="M363.286 22.1441C341.115 22.1441 323.143 40.1168 323.143 62.2871V262.998L334.901 251.245L363.286 222.858L391.672 251.245L403.429 262.998V62.2871C403.429 40.1168 385.456 22.1441 363.286 22.1441Z" stroke="#E0E0E0" stroke-width="3" stroke-miterlimit="10" stroke-linecap="round" stroke-linejoin="round"/>
<path d="M323.143 -17.9992C323.143 -40.1695 341.115 -58.1422 363.286 -58.1422C385.455 -58.1422 403.429 -40.1695 403.429 -17.9992C403.429 4.1711 385.455 22.1438 363.286 22.1438C341.115 22.1438 323.143 4.1711 323.143 -17.9992Z" stroke="#E0E0E0" stroke-width="3" stroke-miterlimit="10" stroke-linecap="round" stroke-linejoin="round"/>
<path d="M242.858 142.572C242.858 120.403 260.83 102.43 283 102.43C305.171 102.43 323.143 120.403 323.143 142.572C323.143 164.742 305.171 182.715 283 182.715C260.83 182.715 242.858 164.742 242.858 142.572Z" stroke="#E0E0E0" stroke-width="3" stroke-miterlimit="10" stroke-linecap="round" stroke-linejoin="round"/>
<path d="M82.2855 222.858C82.2855 200.688 100.259 182.715 122.429 182.715C144.599 182.715 162.572 200.688 162.572 222.858C162.572 245.028 144.599 262.998 122.429 262.998C100.259 262.998 82.2855 245.028 82.2855 222.858V222.858Z" stroke="#E0E0E0" stroke-width="3" stroke-miterlimit="10" stroke-linecap="round" stroke-linejoin="round"/>
<path d="M162.572 222.858C162.572 245.028 180.455 262.998 202.516 262.998H323.236L283.292 222.858L323.236 182.715H202.516C180.455 182.715 162.572 200.688 162.572 222.858V222.858Z" stroke="#E0E0E0" stroke-width="3" stroke-miterlimit="10" stroke-linecap="round" stroke-linejoin="round"/>
<path d="M2 343.287L42.143 303.144L2 263.001H122.429C144.599 263.001 162.572 280.974 162.572 303.144C162.572 325.315 144.599 343.287 122.429 343.287H2Z" stroke="#E0E0E0" stroke-width="3" stroke-miterlimit="10" stroke-linecap="round" stroke-linejoin="round"/>
<path d="M403.429 503.858L443.571 544.001L483.714 503.858V624.287C483.714 646.457 465.742 664.43 443.571 664.43C421.401 664.43 403.429 646.457 403.429 624.287V503.858Z" stroke="#E0E0E0" stroke-width="3" stroke-miterlimit="10" stroke-linecap="round" stroke-linejoin="round"/>
<path d="M483.714 423.573L443.572 383.43L403.429 423.573V343.287H483.714V423.573Z" stroke="#E0E0E0" stroke-width="3" stroke-miterlimit="10" stroke-linecap="round" stroke-linejoin="round"/>
<path d="M2 503.858L42.143 544.001L82.2855 503.858V784.858C82.2855 807.029 64.3132 824.998 42.143 824.998C19.9725 824.998 2 807.029 2 784.858V503.858Z" stroke="#E0E0E0" stroke-width="3" stroke-miterlimit="10" stroke-linecap="round" stroke-linejoin="round"/>
<path d="M242.858 503.858L202.715 463.716L162.572 503.858V423.573H242.858V503.858Z" stroke="#E0E0E0" stroke-width="3" stroke-miterlimit="10" stroke-linecap="round" stroke-linejoin="round"/>
<path d="M242.858 383.43C242.858 361.259 224.885 343.287 202.715 343.287H122.548C100.378 343.287 82.4049 361.259 82.4049 383.43C82.4049 405.6 100.378 423.573 122.548 423.573H202.715C224.885 423.573 242.858 405.6 242.858 383.43Z" stroke="#E0E0E0" stroke-width="3" stroke-miterlimit="10" stroke-linecap="round" stroke-linejoin="round"/>
<path d="M283.001 343.405C260.83 343.405 242.858 361.378 242.858 383.548V463.715C242.858 485.885 260.83 503.858 283.001 503.858C305.171 503.858 323.143 485.885 323.143 463.715V383.548C323.143 361.378 305.171 343.405 283.001 343.405Z" stroke="#E0E0E0" stroke-width="3" stroke-miterlimit="10" stroke-linecap="round" stroke-linejoin="round"/>
<path d="M2 463.715C2 485.885 19.9725 503.858 42.143 503.858H122.31C144.48 503.858 162.452 485.885 162.452 463.715C162.452 441.544 144.48 423.573 122.31 423.573H42.143C19.9725 423.573 2 441.544 2 463.715V463.715Z" stroke="#E0E0E0" stroke-width="3" stroke-miterlimit="10" stroke-linecap="round" stroke-linejoin="round"/>
<path d="M363.285 463.716L334.9 492.101L323.143 503.858H363.282C363.283 503.858 363.284 503.858 363.286 503.858H523.857C546.027 503.858 564 485.885 564 463.716C564 441.545 546.027 423.573 523.857 423.573H323.143L334.9 435.33L363.285 463.716Z" stroke="#E0E0E0" stroke-width="3" stroke-miterlimit="10" stroke-linecap="round" stroke-linejoin="round"/>
<path d="M283 503.858H122.429C122.428 503.858 122.426 503.858 122.425 503.858H82.2856L94.0435 515.616L122.429 544.001L94.0435 572.386L82.2856 584.144H283C305.171 584.144 323.143 566.171 323.143 544.001C323.143 521.831 305.171 503.858 283 503.858V503.858Z" stroke="#E0E0E0" stroke-width="3" stroke-miterlimit="10" stroke-linecap="round" stroke-linejoin="round"/>
<path d="M242.858 303.145C242.858 325.315 260.83 343.287 283.001 343.287H483.714L471.957 331.53L443.571 303.144L471.957 274.759L483.714 263.001H283.001C260.83 263.001 242.858 280.974 242.858 303.145V303.145Z" stroke="#E0E0E0" stroke-width="3" stroke-miterlimit="10" stroke-linecap="round" stroke-linejoin="round"/>
<path d="M2.00024 383.43C2.00024 361.259 19.9727 343.287 42.1429 343.287C64.3135 343.287 82.2854 361.259 82.2854 383.43C82.2854 405.6 64.3135 423.573 42.1429 423.573C19.9727 423.573 2.00024 405.6 2.00024 383.43Z" stroke="#E0E0E0" stroke-width="3" stroke-miterlimit="10" stroke-linecap="round" stroke-linejoin="round"/>
<path d="M162.572 303.144C162.572 280.974 180.544 263.001 202.715 263.001C224.885 263.001 242.858 280.974 242.858 303.144C242.858 325.315 224.885 343.287 202.715 343.287C180.544 343.287 162.572 325.315 162.572 303.144Z" stroke="#E0E0E0" stroke-width="3" stroke-miterlimit="10" stroke-linecap="round" stroke-linejoin="round"/>
<path d="M323.143 383.43C323.143 361.259 341.115 343.287 363.286 343.287C385.456 343.287 403.429 361.259 403.429 383.43C403.429 405.6 385.456 423.573 363.286 423.573C341.115 423.573 323.143 405.6 323.143 383.43Z" stroke="#E0E0E0" stroke-width="3" stroke-miterlimit="10" stroke-linecap="round" stroke-linejoin="round"/>
<path d="M323.143 544.001C323.143 521.831 341.115 503.858 363.286 503.858C385.455 503.858 403.429 521.831 403.429 544.001C403.429 566.171 385.455 584.144 363.286 584.144C341.115 584.144 323.143 566.171 323.143 544.001Z" stroke="#E0E0E0" stroke-width="3" stroke-miterlimit="10" stroke-linecap="round" stroke-linejoin="round"/>
</g>
</svg>
