<svg width="714" height="469" viewBox="0 0 714 469" fill="none" xmlns="http://www.w3.org/2000/svg">
<path opacity="0.03" d="M0 469L13.0583 424.479L26.1167 398.812L39.1748 405.094L52.2327 339.872L65.2902 330.538L78.3473 357.464L91.4042 345.078L104.461 294.337L117.517 427.892L130.573 402.402L143.629 328.384L156.684 352.618L169.739 441.954L182.794 330.717L195.849 312.348L208.903 452.904L221.957 437.466L235.011 414.309L248.064 404.376L261.118 313.425L274.171 372.842L287.223 406.052L300.276 255.802L313.328 304.808L326.38 347.591L339.431 303.791L352.483 451.408L365.534 342.685L378.585 244.971L391.635 265.974L404.686 356.866L417.736 326.469L430.786 368.474L443.836 346.215L456.886 362.91L469.935 303.611L482.984 366.799L496.033 418.199L509.082 469L522.131 452.904L535.179 398.572L548.227 221.216L561.275 260.17L574.323 318.81L587.371 244.433L600.418 331.017L613.466 266.513L626.513 304.629L639.56 307.261L652.607 308.937L665.654 288.353L678.7 221.635L691.747 190.7L704.793 238.928L717.839 195.187L730.885 267.231L743.931 169.398L756.977 379.365L770.023 410.001L783.068 279.916L796.114 221.336L809.159 209.488L822.205 207.873L835.25 180.348L848.295 201.53L861.34 276.984L874.385 187.049L887.43 248.382L900.475 165.807L913.52 172.09L926.565 267.051L939.609 257.836L952.654 267.59L965.699 221.994L978.743 227.02L991.788 182.502L1004.83 205.659L1017.88 174.783L1030.92 216.549L1043.97 211.583L1057.01 220.139L1070.06 130.025L1083.1 145.523L1096.14 193.751L1109.19 178.613L1122.23 204.462L1135.28 153.9L1148.32 198.598L1161.37 160.901L1174.41 159.225L1187.46 175.381L1200.5 186.75L1213.55 156.234L1226.59 169.936L1239.64 156.353L1252.68 135.291L1265.73 195.905L1278.77 171.073L1291.82 176.578L1304.86 191.418L1317.91 147.318L1330.96 274.591L1344 282.728L1357.05 256.34L1370.09 229.653L1383.14 178.254L1396.19 238.509L1409.23 154.738L1422.28 192.435L1435.33 388.579L1448.37 320.904L1461.42 203.505L1474.47 186.152L1487.51 149.113L1500.56 265.854L1513.61 268.487L1526.66 230.551L1539.71 139.958L1552.75 184.417L1565.8 232.765L1578.85 194.888L1591.9 125.238L1604.95 111.057L1618 164.85L1631.05 139.479L1644.1 140.257L1657.15 159.824L1670.2 103.996L1683.25 96.8158L1696.3 181.545L1709.35 113.57L1722.4 134.214L1735.46 180.826L1748.51 216.489L1761.56 241.142L1774.61 149.352L1787.66 126.794L1800.72 170.295L1813.77 270.402L1826.82 209.189L1839.88 221.755L1852.93 226.602L1865.99 146.361L1879.04 112.613L1892.1 126.016L1905.15 133.077L1918.21 98.9699L1931.26 69.9491L1944.32 173.048L1957.38 283.805L1970.43 219.601L1983.49 158.029L1996.55 179.809L2009.61 100.167L2022.67 31.2348L2035.72 0L2048.78 14.0018L2061.84 66.2392L2074.9 91.5501L2087.96 76.4115L2101 32.1323V469H2087.96H2074.9H2061.84H2048.78H2035.72H2022.67H2009.61H1996.55H1983.49H1970.43H1957.38H1944.32H1931.26H1918.21H1905.15H1892.1H1879.04H1865.99H1852.93H1839.88H1826.82H1813.77H1800.72H1787.66H1774.61H1761.56H1748.51H1735.46H1722.4H1709.35H1696.3H1683.25H1670.2H1657.15H1644.1H1631.05H1618H1604.95H1591.9H1578.85H1565.8H1552.75H1539.71H1526.66H1513.61H1500.56H1487.51H1474.47H1461.42H1448.37H1435.33H1422.28H1409.23H1396.19H1383.14H1370.09H1357.05H1344H1330.96H1317.91H1304.86H1291.82H1278.77H1265.73H1252.68H1239.64H1226.59H1213.55H1200.5H1187.46H1174.41H1161.37H1148.32H1135.28H1122.23H1109.19H1096.14H1083.1H1070.06H1057.01H1043.97H1030.92H1017.88H1004.83H991.788H978.743H965.699H952.654H939.609H926.565H913.52H900.475H887.43H874.385H861.34H848.295H835.25H822.205H809.159H796.114H783.068H770.023H756.977H743.931H730.885H717.839H704.793H691.747H678.7H665.654H652.607H639.56H626.513H613.466H600.418H587.371H574.323H561.275H548.227H535.179H522.131H509.082H496.033H482.984H469.935H456.886H443.836H430.786H417.736H404.686H391.635H378.585H365.534H352.483H339.431H326.38H313.328H300.276H287.223H274.171H261.118H248.064H235.011H221.957H208.903H195.849H182.794H169.739H156.684H143.629H130.573H117.517H104.461H91.4042H78.3473H65.2902H52.2327H39.1748H26.1167H13.0583H0Z" fill="black"/>
</svg>
