<svg width="553" height="388" viewBox="0 0 553 388" fill="none" xmlns="http://www.w3.org/2000/svg">
<g opacity="0.6">
<rect x="3" y="152" width="9" height="288" fill="#E0E0E0" stroke="#E0E0E0" stroke-width="5"/>
<rect x="35" y="290" width="9" height="150" fill="#E0E0E0" stroke="#E0E0E0" stroke-width="5"/>
<rect x="67" y="143" width="8" height="297" fill="#E0E0E0" stroke="#E0E0E0" stroke-width="5"/>
<rect x="98" y="222" width="9" height="218" fill="#E0E0E0" stroke="#E0E0E0" stroke-width="5"/>
<rect x="130" y="187" width="9" height="253" fill="#E0E0E0" stroke="#E0E0E0" stroke-width="5"/>
<rect x="162" y="3" width="8" height="437" fill="#E0E0E0" stroke="#E0E0E0" stroke-width="5"/>
<rect x="193" y="66" width="9" height="374" fill="#E0E0E0" stroke="#E0E0E0" stroke-width="5"/>
<rect x="225" y="176" width="9" height="264" fill="#E0E0E0" stroke="#E0E0E0" stroke-width="5"/>
<rect x="257" y="192" width="8" height="248" fill="#E0E0E0" stroke="#E0E0E0" stroke-width="5"/>
<rect x="288" y="312" width="9" height="128" fill="#E0E0E0" stroke="#E0E0E0" stroke-width="5"/>
<rect x="320" y="118" width="8" height="322" fill="#E0E0E0" stroke="#E0E0E0" stroke-width="5"/>
<rect x="351" y="115" width="9" height="325" fill="#E0E0E0" stroke="#E0E0E0" stroke-width="5"/>
<rect x="383" y="151" width="9" height="289" fill="#E0E0E0" stroke="#E0E0E0" stroke-width="5"/>
<rect x="415" y="322" width="8" height="118" fill="#E0E0E0" stroke="#E0E0E0" stroke-width="5"/>
<rect x="446" y="194" width="9" height="246" fill="#E0E0E0" stroke="#E0E0E0" stroke-width="5"/>
<rect x="478" y="149" width="9" height="291" fill="#E0E0E0" stroke="#E0E0E0" stroke-width="5"/>
<rect x="510" y="184" width="8" height="256" fill="#E0E0E0" stroke="#E0E0E0" stroke-width="5"/>
<rect x="541" y="249" width="9" height="191" fill="#E0E0E0" stroke="#E0E0E0" stroke-width="5"/>
</g>
</svg>
