<svg xmlns="http://www.w3.org/2000/svg" xmlns:xlink="http://www.w3.org/1999/xlink" width="0" height="0" style="position: absolute;">

  <symbol id="htc-logo" viewBox="0 0 33 64">
    <path fill-rule="evenodd" clip-rule="evenodd" d="M32.001 1.184c.064-.576 0-.512-.225-1.024a.339.339 0 0 0-.29-.16c-.354 0-.934.448-1.256.8-2.189 2.432-4.86 6.528-6.277 7.008-.709.256-1.385-.992-1.867-1.44-1.932-1.888-4.41-4-8.435-5.248C11.526.416 9.723-.192 9.047.128c-1.255.576.548 1.728 1.256 2.496.547.576 1.159.512 1.803.224a2.145 2.145 0 0 1 1.545 0c3.638 1.472 5.698 2.88 7.79 5.12.677.768 1.095 1.728.451 2.336a614.431 614.431 0 0 0-6.535 6.4c-.483.48-1.062 1.12-1.674 1.088-.386-.032-.998-.448-1.352-.672-.612-.416-1.159-.64-1.738-1.088-.515-.384-.612-.736-.644-1.376-.033-1.056.225-1.952.386-2.752.258-1.44.58-2.88.87-4.352.225-1.12.353-2.56.257-3.744-.097-.288-.58-.352-.902-.128-.128.608-.128.608-.257 1.248-.129.672-.258 1.888-.387 2.56-.386 2.112-.9 3.712-1.255 6.464a68.72 68.72 0 0 0-.225 1.632c-.065.704.16 1.568-.065 2.016-.29.64-.547 1.152-.386 2.016.129.832-.064 1.056-.58 1.472-.74.608-2.382 1.824-3.315 2.368-.516.32-1.16.928-.773 1.568.354.64 1.159.768 1.867.8 1.095.064 2.479-1.344 3.541-1.568.419-.096.998-.256 1.353.032.45.32.547.832.643 1.344.419 1.92.29 2.912.161 4.96-.096 1.216-.386 3.424-.804 4.576-.322.896-.644 1.28-1.385 1.92-.676.576-1.48 1.376-1.706 2.784-.097.672.354 2.272-.354 4.096-.676 1.728-.773 2.112-1.481 3.744-.354.832-.708 1.856-1.095 2.88-.676 1.792-.772 1.664-1.32 3.488-.29.992-.74 2.432-1.03 3.424-.515 1.632-.322 1.536-1.127 3.2-.225.416-.837 1.728-.386 2.56.193.352.708.736 1.095.736h.096c.805-.192 1.417-.48 1.803-1.28.354-.736.161-1.792.419-2.56.58-1.76 1.159-3.552 1.931-5.248.837-1.824.74-2.528 1.481-4.448.805-2.176 1.352-3.52 2.511-5.504 1.385-2.336 4.99-5.504 6.535-6.624 2.415-1.696 3.928-2.816 3.606-.864-.258 1.664-3.09 5.824-3.702 7.2-.322.672-.354 1.376-.065 1.952.355.736 1.16 1.728 1.964 1.664.74-.032 1.385-1.024 1.16-1.728-.29-.864-.323-1.504.74-3.552 1.32-2.528 3.412-6.144 3.026-9.312-.129-1.152-1.513-1.728-2.64-1.344-1.288.448-3.413 2.144-4.732 2.848-.902.48-1.546.672-1.642-.288-.097-.896.096-1.952.16-2.88.29-3.296.097-4.48.42-7.392.096-.832.933-1.952 1.641-1.312 2.253 1.984 5.15 4.288 7.404 6.08.934.736 1.352 1.376 1.803 2.688.226.64.032 1.6-.193 2.496-.096.416.097 1.024.998.416 2.093-2.816 3.51-7.392 3.51-10.944.031-3.136.385-6.528-2.995-12.032-.547-.896-1.835-2.88-.58-4.192 1.771-1.92 5.28-5.152 6.053-6.656zm-4.25 19.296a39.06 39.06 0 0 1 .13 3.36c0 .8-.29 1.792-.451 2.88-.097.736-.161 1.792-.515 2.848-.065.16-.258.64-.612.64-.387.032-.515-.48-.708-.704-.676-.768-1.224-1.504-1.964-2.112a39.549 39.549 0 0 0-2.672-1.856c-.709-.48-1.449-1.28-2.157-1.792-.74-.544-1.417-1.056-2.093-1.696a2.374 2.374 0 0 1-.515-.64 1.76 1.76 0 0 1-.032-1.216c.16-.544.515-1.024.837-1.504.419-.608.87-1.184 1.352-1.728.29-.32.773-.768 1.127-.992.547-.32.772-.416 1.223-.864.45-.416.419-.832.87-1.28.45-.448.997-1.312 1.545-1.696.225-.16.611-.32.869-.192.354.128.708.576.901.896 1.481 2.624 2.64 4.8 2.866 7.648z" fill="#1F4766"></path>
  </symbol>

  <symbol id="icon-close" viewBox="0 0 16 16">
    <path d="M15 1L1 15M1 1l14 14"></path>
  </symbol>

  <symbol id="logotype" viewBox="0 0 182 36">
    <path d="M50.04 25a.463.463 0 0 1-.34-.14.463.463 0 0 1-.14-.34V11.5c0-.147.04-.267.12-.36a.487.487 0 0 1 .36-.14h5.8c1.56 0 2.727.347 3.5 1.04.773.68 1.16 1.613 1.16 2.8 0 .693-.173 1.287-.52 1.78-.333.48-.727.827-1.18 1.04.56.253 1.033.667 1.42 1.24s.58 1.227.58 1.96c0 1.24-.42 2.24-1.26 3-.84.76-2.013 1.14-3.52 1.14h-5.98zm5.44-8.26c.68 0 1.2-.167 1.56-.5.373-.333.56-.78.56-1.34s-.18-.993-.54-1.3c-.36-.307-.887-.46-1.58-.46h-3.1v3.6h3.1zm.2 6.12c.693 0 1.233-.187 1.62-.56.387-.387.58-.873.58-1.46s-.2-1.067-.6-1.44c-.387-.387-.92-.58-1.6-.58h-3.3v4.04h3.3zm16.87-8.26a.44.44 0 0 1 .32.14c.094.08.14.18.14.3v9.48a.463.463 0 0 1-.14.34.424.424 0 0 1-.34.14h-1.7a.463.463 0 0 1-.34-.14.463.463 0 0 1-.14-.34v-6.38l-4.74 6.54c-.146.213-.333.32-.56.32h-1.54a.504.504 0 0 1-.34-.12.505.505 0 0 1-.12-.34v-9.46c0-.147.047-.26.14-.34a.463.463 0 0 1 .34-.14h1.7c.134 0 .247.047.34.14.094.093.14.207.14.34v6.38l4.74-6.54c.16-.213.347-.32.56-.32h1.54zm2.58 12.6a.463.463 0 0 1-.34-.14.423.423 0 0 1-.14-.34v-3.38c0-.147.048-.26.14-.34a.463.463 0 0 1 .34-.14h.16c.52 0 .9-.413 1.14-1.24.24-.827.36-2.107.36-3.84v-2.7c0-.147.048-.26.14-.34a.463.463 0 0 1 .34-.14h7.16c.148 0 .26.047.34.14.094.08.14.193.14.34v7.76h.9c.148 0 .26.047.34.14.094.08.14.193.14.34v3.4c0 .147-.046.26-.14.34a.423.423 0 0 1-.34.14h-1.7a.463.463 0 0 1-.34-.14.423.423 0 0 1-.14-.34V25h-6.32v1.72c0 .147-.046.26-.14.34a.423.423 0 0 1-.34.14h-1.7zm7.12-4.36v-6.1h-2.92v1.34c0 2.293-.306 3.887-.92 4.78l3.84-.02zm10.36 2.36c-1.494 0-2.68-.427-3.56-1.28-.868-.853-1.328-2.067-1.38-3.64l-.02-.5c0-1.667.432-2.98 1.3-3.94.88-.96 2.092-1.44 3.64-1.44 1.586 0 2.806.48 3.66 1.44.866.96 1.3 2.24 1.3 3.84v.42a.463.463 0 0 1-.14.34.488.488 0 0 1-.36.14h-6.64v.16c.026.747.226 1.367.6 1.86.386.48.912.72 1.58.72.76 0 1.38-.307 1.86-.92.12-.147.212-.233.28-.26.066-.04.18-.06.34-.06h1.76c.12 0 .22.033.3.1.092.067.14.16.14.28 0 .32-.194.7-.58 1.14-.374.427-.914.8-1.62 1.12-.708.32-1.528.48-2.46.48zm2.18-6.32v-.04c0-.787-.2-1.413-.6-1.88-.388-.48-.92-.72-1.6-.72s-1.214.24-1.6.72c-.388.467-.58 1.093-.58 1.88v.04h4.38zm9.502 6.32c-1.574 0-2.787-.4-3.64-1.2-.854-.8-1.314-1.907-1.38-3.32l-.02-.88.02-.88c.066-1.4.533-2.5 1.4-3.3.866-.813 2.073-1.22 3.62-1.22 1.533 0 2.733.407 3.6 1.22.866.8 1.333 1.9 1.4 3.3.013.16.02.453.02.88s-.007.72-.02.88c-.067 1.413-.527 2.52-1.38 3.32-.854.8-2.06 1.2-3.62 1.2zm0-2.02c.706 0 1.246-.22 1.62-.66.386-.44.593-1.087.62-1.94a9.8 9.8 0 0 0 .02-.78 9.8 9.8 0 0 0-.02-.78c-.027-.853-.234-1.5-.62-1.94-.387-.453-.927-.68-1.62-.68-.707 0-1.254.227-1.64.68-.387.44-.594 1.087-.62 1.94l-.02.78.02.78c.026.853.233 1.5.62 1.94.386.44.933.66 1.64.66zm11.735 2.02c-1.467 0-2.64-.407-3.52-1.22-.867-.813-1.327-1.94-1.38-3.38l-.02-.8.02-.8c.053-1.44.513-2.567 1.38-3.38.88-.813 2.053-1.22 3.52-1.22 1.053 0 1.94.187 2.66.56.733.373 1.273.833 1.62 1.38.36.533.553 1.047.58 1.54a.38.38 0 0 1-.14.34.463.463 0 0 1-.34.14h-1.78c-.147 0-.253-.027-.32-.08a1.08 1.08 0 0 1-.2-.34c-.2-.507-.467-.873-.8-1.1-.32-.227-.733-.34-1.24-.34-.68 0-1.213.213-1.6.64-.373.427-.573 1.08-.6 1.96l-.02.74.02.66c.08 1.733.813 2.6 2.2 2.6.52 0 .94-.107 1.26-.32.32-.227.58-.6.78-1.12a.87.87 0 0 1 .18-.32c.08-.067.193-.1.34-.1h1.78c.133 0 .247.047.34.14a.38.38 0 0 1 .14.34c-.027.467-.213.973-.56 1.52-.347.533-.88.993-1.6 1.38-.72.387-1.62.58-2.7.58zm11.445 0c-1.493 0-2.68-.427-3.56-1.28-.866-.853-1.326-2.067-1.38-3.64l-.02-.5c0-1.667.434-2.98 1.3-3.94.88-.96 2.094-1.44 3.64-1.44 1.587 0 2.807.48 3.66 1.44.867.96 1.3 2.24 1.3 3.84v.42a.46.46 0 0 1-.14.34.486.486 0 0 1-.36.14h-6.64v.16c.027.747.227 1.367.6 1.86.387.48.914.72 1.58.72.76 0 1.38-.307 1.86-.92.12-.147.214-.233.28-.26.067-.04.18-.06.34-.06h1.76c.12 0 .22.033.3.1.094.067.14.16.14.28 0 .32-.193.7-.58 1.14-.373.427-.913.8-1.62 1.12-.706.32-1.526.48-2.46.48zm2.18-6.32v-.04c0-.787-.2-1.413-.6-1.88-.386-.48-.92-.72-1.6-.72s-1.213.24-1.6.72c-.386.467-.58 1.093-.58 1.88v.04h4.38zm5.383 9.92a.463.463 0 0 1-.34-.14.424.424 0 0 1-.14-.34V15.08c0-.147.047-.26.14-.34a.463.463 0 0 1 .34-.14h1.6c.147 0 .267.047.36.14.093.093.14.207.14.34v.8c.707-.987 1.767-1.48 3.18-1.48 1.347 0 2.38.427 3.1 1.28.72.84 1.107 1.973 1.16 3.4.013.16.02.4.02.72 0 .32-.007.56-.02.72-.04 1.4-.427 2.533-1.16 3.4-.72.853-1.753 1.28-3.1 1.28-1.333 0-2.353-.473-3.06-1.42v4.54c0 .147-.047.26-.14.34a.423.423 0 0 1-.34.14h-1.74zm4.52-5.76c1.427 0 2.187-.88 2.28-2.64.013-.133.02-.333.02-.6 0-.267-.007-.467-.02-.6-.093-1.76-.853-2.64-2.28-2.64-.76 0-1.327.247-1.7.74s-.573 1.093-.6 1.8a10.4 10.4 0 0 0-.02.76c0 .347.007.607.02.78.027.667.233 1.233.62 1.7.387.467.947.7 1.68.7zM147.3 25a.463.463 0 0 1-.34-.14.464.464 0 0 1-.14-.34v-9.44c0-.147.047-.26.14-.34a.463.463 0 0 1 .34-.14h4.44c1.387 0 2.427.253 3.12.76.707.507 1.06 1.213 1.06 2.12 0 .533-.1.96-.3 1.28-.2.307-.5.58-.9.82.467.213.827.533 1.08.96.267.427.4.907.4 1.44 0 .973-.36 1.72-1.08 2.24-.72.52-1.773.78-3.16.78h-4.66zm4.4-6.16c.533 0 .953-.113 1.26-.34.307-.227.46-.547.46-.96 0-.4-.147-.687-.44-.86-.293-.173-.72-.26-1.28-.26h-2.3v2.42h2.3zm.1 4.34c.547 0 .973-.1 1.28-.3.307-.2.46-.507.46-.92 0-.44-.147-.753-.44-.94-.28-.2-.713-.3-1.3-.3h-2.4v2.46h2.4zm16.219-8.58a.44.44 0 0 1 .32.14c.094.08.14.18.14.3v9.48a.46.46 0 0 1-.14.34.423.423 0 0 1-.34.14h-1.7a.465.465 0 0 1-.34-.14.464.464 0 0 1-.14-.34v-6.38l-4.74 6.54c-.146.213-.333.32-.56.32h-1.54a.506.506 0 0 1-.34-.12.505.505 0 0 1-.12-.34v-9.46c0-.147.047-.26.14-.34a.465.465 0 0 1 .34-.14h1.7c.134 0 .247.047.34.14a.46.46 0 0 1 .14.34v6.38l4.74-6.54c.16-.213.347-.32.56-.32h1.54zm7.481 10.6c-1.467 0-2.64-.407-3.52-1.22-.867-.813-1.327-1.94-1.38-3.38l-.02-.8.02-.8c.053-1.44.513-2.567 1.38-3.38.88-.813 2.053-1.22 3.52-1.22 1.053 0 1.94.187 2.66.56.733.373 1.273.833 1.62 1.38.36.533.553 1.047.58 1.54a.383.383 0 0 1-.14.34.465.465 0 0 1-.34.14h-1.78c-.147 0-.254-.027-.32-.08a1.061 1.061 0 0 1-.2-.34c-.2-.507-.467-.873-.8-1.1-.32-.227-.734-.34-1.24-.34-.68 0-1.214.213-1.6.64-.374.427-.574 1.08-.6 1.96l-.02.74.02.66c.08 1.733.813 2.6 2.2 2.6.52 0 .94-.107 1.26-.32.32-.227.58-.6.78-1.12a.87.87 0 0 1 .18-.32c.08-.067.193-.1.34-.1h1.78c.133 0 .246.047.34.14a.383.383 0 0 1 .14.34c-.027.467-.214.973-.56 1.52-.347.533-.88.993-1.6 1.38-.72.387-1.62.58-2.7.58z" fill="#333"></path><path fill-rule="evenodd" clip-rule="evenodd" d="M36.022 20.132L11.808 34.889A18.102 18.102 0 0 0 18.074 36c9.257 0 16.889-6.932 17.948-15.868zM8 32.947C3.175 29.715 0 24.227 0 18 0 11.773 3.175 6.285 8 3.053v29.894zM10.816 1.51A18.075 18.075 0 0 1 18.074 0c9.62 0 17.485 7.487 18.042 16.93l-25.3-15.42z" fill="#E5261E"></path>
  </symbol>

</svg>