<svg xmlns="http://www.w3.org/2000/svg" xmlns:xlink="http://www.w3.org/1999/xlink" width="0" height="0" style="position: absolute;">

  <symbol id="icon-adjust" viewBox="0 0 78 78">
    <path fill="#fff" d="M0 0h78v78H0z"></path><path class="service__round" d="M76 33.5C76 50.345 62.345 64 45.5 64S15 50.345 15 33.5 28.655 3 45.5 3 76 16.655 76 33.5z"></path><path d="M43.728 34.067c0-2.583-2.121-4.684-4.728-4.684-2.607 0-4.728 2.101-4.728 4.684s2.121 4.685 4.728 4.685c2.607 0 4.728-2.102 4.728-4.685zm2.515 0c0 3.958-3.25 7.178-7.243 7.178-3.994 0-7.244-3.22-7.244-7.178 0-3.957 3.25-7.177 7.244-7.177 3.994 0 7.243 3.22 7.243 7.177zm1.963 4.663l.6-1.452c.155-.372.48-.648.876-.74l3.998-.933V32.55l-3.957-.847a1.252 1.252 0 0 1-.891-.73l-.624-1.447a1.24 1.24 0 0 1 .086-1.143l2.184-3.512-2.184-2.165-3.387 2.147c-.344.218-.77.257-1.147.107l-1.469-.584a1.253 1.253 0 0 1-.755-.862l-.978-3.993h-3.116l-.979 3.993c-.096.391-.377.712-.755.863l-1.469.583c-.374.15-.801.111-1.146-.107l-3.387-2.147-2.178 2.157 2.165 3.405c.217.34.255.764.101 1.136l-.6 1.453c-.154.372-.481.649-.877.741l-3.997.933v3.055l3.956.847c.4.085.733.357.892.73l.623 1.446c.16.373.128.799-.085 1.144l-2.185 3.512 2.185 2.164 3.387-2.147a1.269 1.269 0 0 1 1.145-.107l1.471.585c.378.15.658.47.754.862l.98 3.992h3.115l.978-3.992c.097-.391.377-.712.755-.862l1.47-.585a1.27 1.27 0 0 1 1.146.106l3.387 2.148 2.178-2.157-2.166-3.405a1.235 1.235 0 0 1-.1-1.137zm2.683.087l-.109.264 2.356 3.704c.313.493.24 1.135-.175 1.546l-3.603 3.57a1.265 1.265 0 0 1-1.567.169l-3.695-2.343-.267.107-1.06 4.32a1.256 1.256 0 0 1-1.222.952h-5.094a1.256 1.256 0 0 1-1.223-.952l-1.06-4.32-.266-.106-3.695 2.342c-.5.317-1.15.244-1.567-.17l-3.603-3.569a1.238 1.238 0 0 1-.182-1.535l2.364-3.802-.112-.26-4.312-.924a1.25 1.25 0 0 1-.993-1.218v-5.048c0-.579.401-1.081.97-1.214l4.336-1.011.11-.265-2.355-3.703a1.238 1.238 0 0 1 .174-1.547l3.603-3.57a1.264 1.264 0 0 1 1.567-.168l3.695 2.342.267-.106 1.06-4.322a1.256 1.256 0 0 1 1.222-.951h5.094c.58 0 1.085.393 1.222.951l1.06 4.322.267.106 3.695-2.342a1.266 1.266 0 0 1 1.567.168l3.603 3.57c.412.409.487 1.044.182 1.536l-2.365 3.802.112.26 4.313.924c.579.123.992.63.992 1.218v5.048c0 .579-.4 1.08-.969 1.213l-4.337 1.012zM7 56.604V11.247C7 10.559 7.563 10 8.258 10h61.484c.694 0 1.258.559 1.258 1.247 0 .688-.564 1.246-1.258 1.246H9.516v42.865h4.612c.695 0 1.258.558 1.258 1.246v7.16l8.201-8.045c.236-.231.554-.361.885-.361h44.012V16.232c0-.688.564-1.246 1.258-1.246.694 0 1.258.558 1.258 1.246v40.372c0 .688-.564 1.247-1.258 1.247H24.99l-9.977 9.788a1.263 1.263 0 0 1-1.37.265 1.248 1.248 0 0 1-.773-1.15V57.85H8.258A1.252 1.252 0 0 1 7 56.604z" fill="#040606"></path>
  </symbol>

  <symbol id="icon-arrow-up" viewBox="0 0 19 11">
    <path d="M18.06 8.44l-7.5-7.5a1.5 1.5 0 0 0-2.12 0l-7.5 7.5a1.5 1.5 0 1 0 2.12 2.12L9.5 4.121l6.44 6.44a1.5 1.5 0 1 0 2.12-2.122z" fill="#5C6D99"></path>
  </symbol>

  <symbol id="icon-auto-adjust" viewBox="0 0 100 100">
    <g clip-path="url(#a)"><path fill="#fff" d="M0 0h100v100H0z"></path><path class="service__round" d="M100 52c0 23.748-19.252 43-43 43S14 75.748 14 52 33.252 9 57 9s43 19.252 43 43z"></path><path d="M49.713 50.739a6.202 6.202 0 0 1 6.194 6.193 6.201 6.201 0 0 1-6.194 6.194 6.201 6.201 0 0 1-6.194-6.194 6.201 6.201 0 0 1 6.194-6.193zm0 15.683c5.231 0 9.49-4.257 9.49-9.49 0-5.232-4.259-9.489-9.49-9.489-5.233 0-9.49 4.257-9.49 9.49 0 5.232 4.257 9.489 9.49 9.489zM37.522 49.265l-2.837-4.502 2.853-2.852 4.438 2.84c.448.286 1.006.339 1.5.14l1.926-.773c.494-.198.861-.622.988-1.14l1.282-5.277h4.082l1.283 5.277c.124.517.502.946.995 1.144l1.918.77a1.649 1.649 0 0 0 1.502-.142l4.436-2.839 2.863 2.862-2.861 4.643a1.652 1.652 0 0 0-.113 1.51l.816 1.914c.208.493.644.853 1.168.965l5.183 1.12v4.04l-5.237 1.233a1.648 1.648 0 0 0-1.147.98l-.788 1.919a1.65 1.65 0 0 0 .132 1.504l2.837 4.5-2.853 2.852-4.436-2.839a1.657 1.657 0 0 0-1.503-.14l-1.926.772c-.494.199-.862.623-.986 1.14l-1.283 5.278h-4.082l-1.282-5.277a1.646 1.646 0 0 0-.988-1.14l-1.924-.773a1.656 1.656 0 0 0-1.502.14l-4.438 2.839-2.863-2.862 2.862-4.643c.28-.456.322-1.02.112-1.511l-.816-1.915c-.21-.49-.647-.85-1.169-.963l-5.183-1.12v-4.04l5.237-1.232a1.648 1.648 0 0 0 1.148-.98l.785-1.919a1.651 1.651 0 0 0-.13-1.504zm-9.066 2.726a1.645 1.645 0 0 0-1.27 1.604v6.674c0 .776.54 1.448 1.3 1.61l5.65 1.221.147.345-3.097 5.026c-.4.65-.302 1.49.239 2.03l4.719 4.72c.546.549 1.399.641 2.053.223l4.839-3.096.351.141 1.387 5.712c.18.738.84 1.259 1.602 1.259h6.674a1.65 1.65 0 0 0 1.602-1.259l1.387-5.713.35-.14 4.84 3.096a1.644 1.644 0 0 0 2.054-.223l4.719-4.72c.544-.544.64-1.392.228-2.044l-3.085-4.896.143-.35 5.682-1.338a1.646 1.646 0 0 0 1.27-1.604v-6.674c0-.776-.542-1.447-1.3-1.61l-5.65-1.222-.146-.344 3.096-5.026c.4-.65.301-1.49-.238-2.03l-4.72-4.72a1.645 1.645 0 0 0-2.053-.223l-4.84 3.097-.35-.14-1.387-5.713a1.65 1.65 0 0 0-1.602-1.259h-6.674c-.761 0-1.422.52-1.602 1.26l-1.387 5.711-.35.14-4.84-3.096a1.644 1.644 0 0 0-2.053.224l-4.72 4.72a1.649 1.649 0 0 0-.23 2.043l3.087 4.896-.144.35-5.681 1.338zm63.248-25.844H8.297V15.801h83.407v10.346zm1.648-13.642H6.649A1.65 1.65 0 0 0 5 14.153v13.643c0 .91.74 1.648 1.649 1.648h85.055v55.348H8.297V36.054a1.649 1.649 0 0 0-3.297 0V86.44c0 .91.74 1.648 1.649 1.648h86.703c.91 0 1.648-.739 1.648-1.648V14.153c0-.91-.739-1.648-1.648-1.648z" fill="#040606"></path></g><defs><clipPath id="a"><path fill="#fff" d="M0 0h100v100H0z"></path></clipPath></defs>
  </symbol>

  <symbol id="icon-clock" viewBox="0 0 18 18">
    <path d="M9.9 8.1V3.6a.9.9 0 0 0-1.8 0V9a.9.9 0 0 0 .9.9h4.5a.9.9 0 0 0 0-1.8H9.9zM9 18a9 9 0 0 1-9-9 9 9 0 0 1 9-9 9 9 0 0 1 9 9 9 9 0 0 1-9 9z" fill="#E0E0E0"></path>
  </symbol>

  <symbol id="icon-close" viewBox="0 0 16 16">
    <path d="M15 1L1 15M1 1l14 14"></path>
  </symbol>

  <symbol id="icon-correct" viewBox="0 0 28 27">
    <path d="M21.28 8.171l3.18 1.89L23 13.46l1.46 3.395-3.18 1.895-.814 3.609-3.685-.338L14 24.468l-2.78-2.44-3.686.336-.817-3.615-3.18-1.89 1.458-3.407-1.46-3.395 3.183-1.886.815-3.608 3.684.338L14 2.46l2.78 2.44 3.687-.335.814 3.605z" fill="#27AE60"></path><path d="M12.286 17.931L8 13.646l1.209-1.209 3.077 3.069L18.79 9 20 10.217l-7.714 7.714z" fill="#fff"></path>
  </symbol>

  <symbol id="icon-delivery" viewBox="0 0 78 78">
    <path fill="#fff" d="M0 0h78v78H0z"></path><path class="service__round" d="M76 35.5C76 52.345 62.345 66 45.5 66S15 52.345 15 35.5 28.655 5 45.5 5 76 18.655 76 35.5z"></path><path d="M62.083 62.357c-2.489 0-4.514-2.056-4.514-4.584 0-2.528 2.025-4.585 4.514-4.585 2.49 0 4.514 2.057 4.514 4.585s-2.025 4.584-4.514 4.584zm0-11.551c-3.782 0-6.859 3.126-6.859 6.967 0 3.842 3.077 6.967 6.86 6.967 3.781 0 6.858-3.125 6.858-6.967 0-3.841-3.077-6.968-6.859-6.968zm-43.697 2.382c2.489 0 4.514 2.057 4.514 4.585s-2.025 4.584-4.514 4.584c-2.488 0-4.513-2.056-4.513-4.584 0-2.528 2.025-4.585 4.513-4.585zm0 11.552c3.782 0 6.86-3.125 6.86-6.967 0-3.841-3.078-6.968-6.86-6.968-3.38 0-6.191 2.502-6.75 5.777H6.245v-40.16h9.682c.647 0 1.173-.533 1.173-1.19 0-.658-.526-1.192-1.173-1.192H5.072c-.647 0-1.172.534-1.172 1.191v42.542c0 .657.525 1.191 1.172 1.191h6.564c.559 3.275 3.37 5.776 6.75 5.776zm14.74-28.639l-4.21-3.64a1.157 1.157 0 0 0-1.52 0l-4.21 3.64V16.422h9.94v19.68zm31.645-7.674a1.166 1.166 0 0 0-.829-.349h-11.53V15.231c0-.657-.525-1.191-1.173-1.191H22.012c-.647 0-1.172.534-1.172 1.191V38.68c0 .464.267.886.682 1.08.414.197.903.128 1.25-.173l5.384-4.654 5.384 4.654a1.16 1.16 0 0 0 1.25.174c.416-.195.682-.617.682-1.081V16.422h14.595v40.16H29.745c-.647 0-1.173.533-1.173 1.191 0 .657.526 1.191 1.173 1.191h21.494c.648 0 1.173-.534 1.173-1.191V30.461h11.045l8.298 8.43v18.882c0 .657.525 1.191 1.172 1.191.647 0 1.173-.534 1.173-1.191V38.397c0-.315-.124-.618-.344-.842l-8.985-9.128z" fill="#040606"></path>
  </symbol>

  <symbol id="icon-email" viewBox="0 0 20 16">
    <path d="M18 0H2C.9 0 .01.9.01 2L0 14c0 1.1.9 2 2 2h16c1.1 0 2-.9 2-2V2c0-1.1-.9-2-2-2zm-.4 4.25l-7.07 4.42c-.32.2-.74.2-1.06 0L2.4 4.25a.85.85 0 1 1 .9-1.44L10 7l6.7-4.19a.85.85 0 1 1 .9 1.44z"></path>
  </symbol>

  <symbol id="icon-file" viewBox="0 0 50 60">
    <path d="M40 52H10a1 1 0 0 1-1-1V10a1 1 0 0 1 1-1h19.774a1 1 0 0 1 .713.3l10.226 10.408a1 1 0 0 1 .287.701V51a1 1 0 0 1-1 1z" stroke="#000" stroke-width="2"></path><path d="M29 21V9l12 12H29zM16.457 33.994V37h-1.758v-8.531h3.328c.641 0 1.203.117 1.688.351.488.235.863.569 1.125 1.002.262.43.392.92.392 1.471 0 .836-.287 1.496-.86 1.98-.571.48-1.362.721-2.374.721h-1.541zm0-1.424h1.57c.465 0 .819-.11 1.06-.328.247-.219.37-.531.37-.937 0-.418-.123-.756-.37-1.014-.245-.258-.585-.39-1.019-.398h-1.611v2.677zM22.445 37v-8.531h2.625c.75 0 1.42.17 2.01.51a3.506 3.506 0 0 1 1.389 1.44c.332.622.498 1.329.498 2.122v.393c0 .793-.164 1.498-.492 2.115a3.485 3.485 0 0 1-1.377 1.435c-.594.34-1.264.512-2.01.516h-2.643zm1.758-7.107v5.695h.85c.687 0 1.213-.225 1.576-.674.363-.45.549-1.092.556-1.928v-.45c0-.868-.18-1.524-.538-1.97-.36-.449-.885-.673-1.577-.673h-.867zm11.18 3.62h-3.375V37H30.25v-8.531h5.555v1.424h-3.797v2.203h3.375v1.418z" fill="#000"></path>
  </symbol>

  <symbol id="icon-license" viewBox="0 0 54 64">
    <rect x="11.133" y="6" width="36.867" height="50.067" rx="3" stroke="#0F1112" stroke-width="2"></rect><path d="M22.112 28.172c.205 1.25.668 2.88 1.85 3.586 1.181.706 1.952.163 2.62-.217.565-.326.873-.435 1.13-.163l-1.028 1.358a1.258 1.258 0 0 0-.246.793.455.455 0 0 0-.221.125l-.663.734-.39-.419c.06-.206.065-.426.015-.635a.56.56 0 0 0-.234-.34.496.496 0 0 0-.393-.062.517.517 0 0 0-.31.246.57.57 0 0 0-.06.406.26.26 0 0 1-.072.146l-.046.06h-.082a.49.49 0 0 0-.378.072.543.543 0 0 0-.225.33.57.57 0 0 0 .054.402.52.52 0 0 0 .302.25c.09.026.184.039.278.038.15-.002.298-.035.436-.098l.591.62c.023.06.056.115.098.163a.41.41 0 0 0 .154.103l.72.766a.512.512 0 0 0 .364.16.49.49 0 0 0 .365-.16.547.547 0 0 0 .152-.386.57.57 0 0 0-.152-.386l-.488-.51.652-.685c.663.478 2.297-.543 2.297-.543.36 1.195-1.85 2.227-1.901 2.988 0 .598 1.028.598 1.747.87.257.108 1.028.543 1.028.543s.77-.435 1.027-.544c.77-.271 1.747-.271 1.747-.869 0-.706-2.26-1.739-1.901-2.988 0 0 1.685 1.043 2.328.516l.883.978c.053.343.215.656.459.888.244.232.556.368.884.387.328.019.652-.081.918-.284.266-.203.46-.496.546-.83.087-.335.064-.692-.067-1.01a1.49 1.49 0 0 0-.65-.741 1.37 1.37 0 0 0-.947-.147 1.426 1.426 0 0 0-.824.514l-.488-.543a.505.505 0 0 0-.283-.152 1.245 1.245 0 0 0-.293-.777l-1.027-1.358c.257-.272.565-.163 1.13.163.668.38 1.439.87 2.62.217 1.182-.652 1.645-2.336 1.85-3.586.248-1.61.178-3.256-.205-4.835a.323.323 0 0 0-.098-.16.29.29 0 0 0-.344-.033.313.313 0 0 0-.123.139c-.206.38-.566 1.032-.925 1.575-1.028 1.576-1.645 2.445-3.135 2.5a1.164 1.164 0 0 1-.497-.124 1.23 1.23 0 0 1-.406-.329 1.313 1.313 0 0 1-.242-.476 1.36 1.36 0 0 1-.036-.538 1.45 1.45 0 0 1 .205-.702c.126-.21.304-.38.514-.494.411-.271.925-.217 1.798.272 0 0 .309-1.956-1.027-1.956-1.953 0-3.237 2.445-3.391 2.77-.155-.325-1.44-2.77-3.392-2.77-1.284 0-1.027 1.956-1.027 1.956.873-.435 1.387-.49 1.798-.272.203.123.374.296.5.504.125.208.2.446.22.692.021.18.007.363-.042.538a1.342 1.342 0 0 1-.243.475 1.256 1.256 0 0 1-.402.331 1.19 1.19 0 0 1-.495.133c-1.49 0-2.107-.869-3.134-2.499a16.3 16.3 0 0 1-.925-1.576.314.314 0 0 0-.124-.139.29.29 0 0 0-.344.033.322.322 0 0 0-.098.16 13.337 13.337 0 0 0-.256 4.836zm13.461 6.574c.082 0 .161.026.229.073a.43.43 0 0 1 .151.196.457.457 0 0 1-.09.473.39.39 0 0 1-.448.094.417.417 0 0 1-.184-.16.453.453 0 0 1 .052-.548.4.4 0 0 1 .29-.128z" fill="#000"></path><path d="M5 14.533v41.3a6 6 0 0 0 6 6h30.667" stroke="#0F1112" stroke-width="2" stroke-linecap="round"></path><path d="M40.146 15.354l-2.292 2.292a.5.5 0 0 1-.854-.353V2.5a.5.5 0 0 1 .5-.5h6a.5.5 0 0 1 .5.5v14.793a.5.5 0 0 1-.854.353l-2.292-2.292a.5.5 0 0 0-.708 0z" fill="#fff" stroke="#000" stroke-width="2"></path><path fill="#fff" d="M34 4h2v5h-2zM45 4h2v5h-2z"></path>
  </symbol>

  <symbol id="icon-mail" viewBox="0 0 54 60">
    <path d="M8 42h32v-2H8v2zM4 17v21h2V17H4zm40 21V17h-2v21h2zM9 14h30v-2H9v2zm35 3a5 5 0 0 0-5-5v2a3 3 0 0 1 3 3h2zM6 17a3 3 0 0 1 3-3v-2a5 5 0 0 0-5 5h2zm34 25a4 4 0 0 0 4-4h-2a2 2 0 0 1-2 2v2zM8 40a2 2 0 0 1-2-2H4a4 4 0 0 0 4 4v-2zM10.65 17.24a1 1 0 0 0-1.3 1.52l1.3-1.52zm28 1.52a1 1 0 0 0-1.3-1.52l1.3 1.52zM24 30l-.65.76a1 1 0 0 0 1.3 0L24 30zM9.35 18.76l14 12 1.3-1.52-14-12-1.3 1.52zm15.3 12l14-12-1.3-1.52-14 12 1.3 1.52z" fill="#000"></path>
  </symbol>

  <symbol id="icon-phone" viewBox="0 0 54 60">
    <path d="M11 16a1 1 0 1 0-2 0h2zm26.984-7.984l-1-.005 1 .005zm-.164 40.996l-1-.004 1 .004zM13 53h21.82v-2H13v2zM34.984 4H13v2h21.984V4zM9 8v2h2V8H9zm0 8v33h2V16H9zm29.82 33.016l.147-38.012-2-.008-.147 38.012 2 .008zm.147-38.01l.017-2.984-2-.011-.017 2.984 2 .01zM11 12h26.967v-2H11v2zm-2-2a2 2 0 0 0 2 2v-2H9zm4-6a4 4 0 0 0-4 4h2a2 2 0 0 1 2-2V4zm21.984 2a2 2 0 0 1 2 2.01l2 .012a4 4 0 0 0-4-4.022v2zm-.164 47a4 4 0 0 0 4-3.984l-2-.008a2 2 0 0 1-2 1.992v2zM13 51a2 2 0 0 1-2-2H9a4 4 0 0 0 4 4v-2z" fill="#000"></path><path d="M11 44a1 1 0 1 1 0-2v2zm27 0H11v-2h27v2z" fill="#000"></path><circle cx="24.5" cy="47.5" r="1.5" fill="#000"></circle>
  </symbol>

  <symbol id="icon-phone-handset" viewBox="0 0 18 18">
    <path d="M.654.865L4.31.021a.85.85 0 0 1 .967.49l1.687 3.937a.842.842 0 0 1-.242.984l-2.13 1.744a13.03 13.03 0 0 0 6.229 6.23l1.744-2.131a.843.843 0 0 1 .984-.243l3.937 1.688a.854.854 0 0 1 .492.97l-.843 3.656a.843.843 0 0 1-.823.654C7.31 18 0 10.705 0 1.688 0 1.294.27.953.654.865z"></path>
  </symbol>

  <symbol id="icon-phone-handset-primary" viewBox="0 0 18 18">
    <path d="M.654.865L4.31.021a.85.85 0 0 1 .967.49l1.687 3.937a.842.842 0 0 1-.242.984l-2.13 1.744a13.03 13.03 0 0 0 6.229 6.23l1.744-2.131a.843.843 0 0 1 .984-.243l3.937 1.688a.854.854 0 0 1 .492.97l-.843 3.656a.843.843 0 0 1-.823.654C7.31 18 0 10.705 0 1.688 0 1.294.27.953.654.865z" fill="#F6BF46"></path>
  </symbol>

  <symbol id="icon-plate" viewBox="0 0 78 78">
    <path fill="#fff" d="M0 0h78v78H0z"></path><path class="service__round" d="M64 32.5C64 49.345 50.345 63 33.5 63S3 49.345 3 32.5 16.655 2 33.5 2 64 15.655 64 32.5z"></path><path d="M15.185 60.915c0 .746.621 1.35 1.386 1.35H42.43c.765 0 1.386-.604 1.386-1.35 0-.746-.62-1.352-1.386-1.352H16.57c-.765 0-1.386.606-1.386 1.352zM44.3 50.369c0-.746-.621-1.35-1.387-1.35H16.087c-.765 0-1.386.604-1.386 1.35 0 .746.62 1.352 1.386 1.352h26.826c.766 0 1.387-.606 1.387-1.352zM17.62 56.993H41.38c.765 0 1.387-.605 1.387-1.35 0-.746-.622-1.352-1.387-1.352H17.621c-.765 0-1.386.606-1.386 1.352 0 .745.62 1.35 1.386 1.35zM14.1 41.173c.271.263.626.395.98.395.355 0 .71-.132.98-.395L26.766 30.74l4.804 4.683c.26.254.613.397.98.397.368 0 .72-.143.98-.397l11.372-11.08a1.327 1.327 0 0 0 0-1.912 1.41 1.41 0 0 0-1.96 0L32.549 32.557l-4.804-4.683a1.405 1.405 0 0 0-.98-.395c-.368 0-.72.142-.98.395L14.099 39.262a1.327 1.327 0 0 0 0 1.911zm5.489-27.56h19.825v-2.911H19.588v2.911zM18.201 8H40.8c.765 0 1.386.605 1.386 1.351v5.613c0 .746-.62 1.351-1.386 1.351H18.2c-.765 0-1.386-.605-1.386-1.35V9.35c0-.746.621-1.351 1.386-1.351zM52 11.787v56.862c0 .746-.62 1.351-1.386 1.351H8.386C7.621 70 7 69.395 7 68.65V11.785c0-.746.621-1.35 1.386-1.35h5.296c.765 0 1.386.604 1.386 1.35 0 .746-.621 1.352-1.386 1.352h-3.91v54.16h39.456v-54.16h-3.89c-.765 0-1.386-.606-1.386-1.351 0-.747.621-1.352 1.386-1.352h5.276c.765 0 1.386.605 1.386 1.351z" fill="#040606"></path>
  </symbol>

  <symbol id="icon-price-tag" viewBox="0 0 78 78">
    <path fill="#fff" d="M0 0h78v78H0z"></path><path d="M77 32.5C77 49.345 63.345 63 46.5 63S16 49.345 16 32.5 29.655 2 46.5 2 77 15.655 77 32.5z"></path><path d="M45.703 40.002h-4.578V25.49h4.5c3.923 0 8.504 1.806 8.504 6.892 0 4.95-4.338 7.621-8.426 7.621zm-.078-17.17h-5.833c-.736 0-1.334.595-1.334 1.329V46.6H35.94c-.736 0-1.333.596-1.333 1.33 0 .733.597 1.329 1.334 1.329h2.516v3.58c0 .733.598 1.328 1.334 1.328.736 0 1.333-.595 1.333-1.329v-3.58h9.803a1.329 1.329 0 1 0 0-2.657h-9.803V42.66h4.578c5.451 0 11.093-3.845 11.093-10.28 0-6.56-5.787-9.549-11.17-9.549zm19.707 42.26l-3.265-2.319a1.334 1.334 0 0 0-1.547.002l-4.58 3.262-4.576-3.262a1.34 1.34 0 0 0-1.552 0l-4.579 3.262-4.577-3.262a1.34 1.34 0 0 0-1.552 0l-4.577 3.262-4.578-3.262a1.338 1.338 0 0 0-1.552 0l-3.243 2.311V15.551a7.54 7.54 0 0 0-.037-.735c-.007-.078-.022-.154-.032-.23a7.47 7.47 0 0 0-.074-.485c-.018-.09-.04-.176-.061-.264a7.638 7.638 0 0 0-.11-.43c-.028-.09-.06-.178-.089-.268a7.277 7.277 0 0 0-.798-1.651c-.048-.076-.096-.152-.147-.226a7.579 7.579 0 0 0-.268-.357c-.052-.065-.1-.132-.153-.194-.014-.018-.026-.036-.041-.053h37.08c2.71 0 4.908 2.195 4.908 4.893v49.541zM60.423 8H17.577C13.399 8 10 11.388 10 15.551v11.12c0 .735.597 1.33 1.333 1.33h7.149c.736 0 1.334-.596 1.334-1.33 0-.733-.598-1.328-1.334-1.328h-5.815V15.55c0-2.698 2.203-4.893 4.91-4.893 2.707 0 4.91 2.195 4.91 4.893v52.12c0 .499.28.955.724 1.182.444.227.979.189 1.386-.101l4.576-3.262 4.579 3.262c.463.33 1.086.33 1.551 0l4.577-3.262 4.577 3.262a1.34 1.34 0 0 0 1.552 0l4.58-3.262 4.574 3.262a1.34 1.34 0 0 0 1.553 0l4.58-3.263 4.597 3.264a1.338 1.338 0 0 0 1.385.1c.447-.228.722-.684.722-1.182V15.55C68 11.388 64.6 8 60.423 8z" fill="#040606"></path>
  </symbol>

  <symbol id="icon-quoting" viewBox="0 0 40 32">
    <path d="M10.723 0l8.671 4.688c-3.203 5.78-4.863 11.19-4.98 16.23v10.371H0v-9.668c.04-3.555 1.094-7.363 3.164-11.426 2.07-4.101 4.59-7.5 7.559-10.195zm20.566 0l8.672 4.688c-3.203 5.78-4.863 11.19-4.98 16.23v10.371H20.566v-9.668c.04-3.555 1.094-7.363 3.165-11.426C25.8 6.094 28.32 2.695 31.288 0z" fill="#F6BF46"></path>
  </symbol>

  <symbol id="icon-reset" viewBox="0 0 14 14">
    <path d="M14 1.41L12.59 0 7 5.59 1.41 0 0 1.41 5.59 7 0 12.59 1.41 14 7 8.41 12.59 14 14 12.59 8.41 7 14 1.41z" fill="#828282"></path>
  </symbol>

  <symbol id="icon-search" viewBox="0 0 102 102">
    <g clip-path="url(#a)"><path fill="#fff" d="M0 0h102v102H0z"></path><path class="service__round" d="M102 43c0 23.748-19.252 43-43 43S16 66.748 16 43 35.252 0 59 0s43 19.252 43 43z"></path><path d="M76.296 56.523a1.961 1.961 0 0 0 2.775 0c4.476-4.467 6.941-10.403 6.941-16.72 0-6.316-2.465-12.252-6.941-16.718a1.964 1.964 0 0 0-2.775 0 1.953 1.953 0 0 0 0 2.768c3.733 3.727 5.791 8.681 5.791 13.95a19.58 19.58 0 0 1-5.791 13.95 1.955 1.955 0 0 0 0 2.77zm-34.33 3.581c11.221 11.193 29.475 11.193 40.696 0 11.22-11.194 11.22-29.41 0-40.603-5.61-5.596-12.979-8.396-20.347-8.396-7.37 0-14.738 2.8-20.349 8.396-11.22 11.194-11.22 29.409 0 40.603zm-2.775 2.77c-12.75-12.722-12.75-33.42 0-46.142 12.75-12.723 33.497-12.723 46.246 0 12.75 12.721 12.75 33.42 0 46.142-6.374 6.36-14.749 9.54-23.122 9.54-8.375 0-16.75-3.18-23.124-9.54zM5.575 86.177a1.954 1.954 0 0 1 0-2.77l22.969-22.915a1.964 1.964 0 0 1 2.775 0 1.953 1.953 0 0 1 0 2.769L9.738 84.793l7.484 7.466 21.58-21.531a1.965 1.965 0 0 1 2.776 0 1.956 1.956 0 0 1 0 2.769L18.61 96.413a1.96 1.96 0 0 1-1.387.573 1.96 1.96 0 0 1-1.388-.573L5.575 86.177z" fill="#040606"></path></g><defs><clipPath id="a"><path fill="#fff" d="M0 0h102v102H0z"></path></clipPath></defs>
  </symbol>

  <symbol id="icon-search-small" viewBox="0 0 16 16">
    <path fill-rule="evenodd" clip-rule="evenodd" d="M3.333 7.333c0-2.206 1.794-4 4-4s4 1.794 4 4-1.794 4-4 4-4-1.794-4-4zm10.472 5.529l-2.264-2.264a5.301 5.301 0 0 0 1.126-3.265A5.34 5.34 0 0 0 7.333 2 5.34 5.34 0 0 0 2 7.333a5.34 5.34 0 0 0 5.333 5.334c1.231 0 2.362-.424 3.265-1.126l2.264 2.264a.665.665 0 0 0 .943 0 .666.666 0 0 0 0-.943z" fill="#828282"></path>
  </symbol>

  <symbol id="icon-sharp-arrow" viewBox="0 0 26 18">
    <path d="M0 4.95l12.975 12.975L25.95 4.95 21 0l-8.025 8.025L4.95 0 0 4.95z"></path>
  </symbol>

  <symbol id="icon-start-search" viewBox="0 0 18 18">
    <path d="M12.5 11h-.79l-.28-.27A6.471 6.471 0 0 0 13 6.5 6.5 6.5 0 1 0 6.5 13c1.61 0 3.09-.59 4.23-1.57l.27.28v.79l5 4.99L17.49 16l-4.99-5zm-6 0C4.01 11 2 8.99 2 6.5S4.01 2 6.5 2 11 4.01 11 6.5 8.99 11 6.5 11z" fill="#828282"></path>
  </symbol>

  <symbol id="icon-tick" viewBox="0 0 9 6">
    <path d="M8.354 1.354a.5.5 0 1 0-.708-.708L3.5 4.793 1.354 2.646a.5.5 0 1 0-.708.708l2.5 2.5a.5.5 0 0 0 .708 0l4.5-4.5z" fill="#000"></path>
  </symbol>

  <symbol id="logotype" viewBox="0 0 110 31">
    <path fill-rule="evenodd" clip-rule="evenodd" d="M102.564 0c-3.862 0-7.157 2.896-7.157 8.797v21.362l7.163-7.154 7.15 7.15V8.797c0-5.875-3.295-8.797-7.156-8.797z" fill="#F6BF46"></path><path fill-rule="evenodd" clip-rule="evenodd" d="M88.242 11.933l.002-1.197c0-1.784-1.14-2.748-2.53-2.748h-1.475v6.693h1.473c1.39 0 2.53-.964 2.53-2.748zm2.394 12.297H88.53l-2.677-7.56h-1.586l-.027.019v7.54H82.17V6h3.782c2.419 0 4.365 1.769 4.365 4.563v1.692l-.005.004c-.05 1.943-1.054 3.369-2.495 4.019l2.82 7.952zM4.867 7.988h5.631L4.682 22.427l.002.003h-.002v1.8h8.027V22.24H6.923L12.709 7.81V6H4.866v1.988zm21.26 0h3.424V24.23h2.079V7.988h3.423V6h-8.925v1.988zM0 24.23h2.07V6H0v18.23zm54.972-5.735h-.095L49.354 6h-1.842v18.23h2.078V11.746h.099l5.515 12.484h1.835V6h-2.067v12.495zM37.094 24.23h7.646V22.24h-5.577V16.11h4.777v-1.988h-4.777V7.988h5.577V6h-7.646v18.23zm29.858-13.46c0-1.731-1.095-2.782-2.665-2.782h-1.9v14.253h1.877c1.616 0 2.688-1.171 2.688-2.788v-8.682zm2.07-.16v9.005c0 2.91-1.947 4.615-4.366 4.615h-4.338V6h4.338c2.42 0 4.365 1.607 4.365 4.61zm2.863 13.62h7.647V22.24h-5.578V16.11h4.777v-1.988h-4.777V7.988h5.578V6h-7.647v18.23zM22.005 6h2.078v18.23h-2.079v-8.122h-4.613v8.122h-2.07V6h2.07v8.12h4.613V6z" fill="#0F1112"></path>
  </symbol>

</svg>